<svg width="46" height="46" viewBox="0 0 46 46" fill="none" xmlns="http://www.w3.org/2000/svg">
<path d="M10.5328 17.5073C14.9233 10.265 25.3945 6.28268 38.7272 7.06689H38.7281C38.7815 7.07013 38.832 7.09257 38.8698 7.13037C38.9075 7.16819 38.93 7.21862 38.9332 7.27197V7.27295C39.7174 20.6044 35.7337 31.0762 28.4908 35.4663L28.4889 35.4683C26.2047 36.8699 23.576 37.6103 20.8961 37.6079C17.972 37.6079 14.8921 36.743 11.8307 34.9985L11.4987 34.8091L11.2291 35.0786L7.34241 38.9673C7.30131 39.0084 7.24526 39.0317 7.18713 39.0317C7.12918 39.0316 7.07383 39.0083 7.03284 38.9673C6.99174 38.9262 6.96838 38.8701 6.96838 38.812C6.9685 38.7541 6.99185 38.6987 7.03284 38.6577L11.1891 34.5015L10.9996 34.1694C7.6779 28.3394 7.54485 22.4599 10.5338 17.5083L10.5328 17.5073ZM36.8785 7.42432C24.7862 7.10192 15.0928 10.8296 10.9069 17.7417C8.03294 22.4794 8.17598 28.0977 11.1852 33.6011L11.5055 34.186L11.9772 33.7144L28.5973 17.0933C28.6383 17.0523 28.6936 17.0289 28.7516 17.0288C28.8097 17.0288 28.8658 17.0522 28.9069 17.0933C28.9479 17.1344 28.9713 17.1904 28.9713 17.2485C28.9712 17.3064 28.9478 17.3618 28.9069 17.4028L12.2858 34.022L11.8141 34.4946L12.399 34.8149C17.9027 37.8243 23.521 37.9633 28.2584 35.0933C35.3935 30.7723 39.1353 20.5827 38.5319 7.94385L38.5104 7.48975L38.0563 7.46826L36.8785 7.42432Z" stroke="url(#paint0_linear_1068_2866)"/>
<defs>
<linearGradient id="paint0_linear_1068_2866" x1="22.9996" y1="6.46924" x2="22.9996" y2="39.5316" gradientUnits="userSpaceOnUse">
<stop stop-color="#178AFE"/>
<stop offset="1" stop-color="#013E7D"/>
</linearGradient>
</defs>
</svg>
