<svg width="46" height="46" viewBox="0 0 46 46" fill="none" xmlns="http://www.w3.org/2000/svg">
<path d="M43.125 19.4063H40.7172L35.5368 7.74993C35.3671 7.3677 35.0899 7.04308 34.7389 6.8156C34.388 6.58813 33.9785 6.46762 33.5602 6.46876H12.4344C12.0162 6.46762 11.6066 6.58813 11.2557 6.8156C10.9048 7.04308 10.6275 7.3677 10.4578 7.74993L5.28281 19.4063H2.875C2.68438 19.4063 2.50156 19.482 2.36677 19.6168C2.23198 19.7516 2.15625 19.9344 2.15625 20.125C2.15625 20.3156 2.23198 20.4985 2.36677 20.6332C2.50156 20.768 2.68438 20.8438 2.875 20.8438H5.03125V35.9375C5.03125 36.5094 5.25843 37.0578 5.6628 37.4622C6.06718 37.8666 6.61563 38.0938 7.1875 38.0938H11.5C12.0719 38.0938 12.6203 37.8666 13.0247 37.4622C13.4291 37.0578 13.6562 36.5094 13.6562 35.9375V32.3438H32.3438V35.9375C32.3438 36.5094 32.5709 37.0578 32.9753 37.4622C33.3797 37.8666 33.9281 38.0938 34.5 38.0938H38.8125C39.3844 38.0938 39.9328 37.8666 40.3372 37.4622C40.7416 37.0578 40.9688 36.5094 40.9688 35.9375V20.8438H43.125C43.3156 20.8438 43.4984 20.768 43.6332 20.6332C43.768 20.4985 43.8438 20.3156 43.8438 20.125C43.8438 19.9344 43.768 19.7516 43.6332 19.6168C43.4984 19.482 43.3156 19.4063 43.125 19.4063ZM11.7767 8.33391C11.8331 8.20658 11.9253 8.09837 12.0421 8.02245C12.1588 7.94653 12.2951 7.90616 12.4344 7.90626H33.5656C33.7049 7.90616 33.8412 7.94653 33.9579 8.02245C34.0747 8.09837 34.1669 8.20658 34.2233 8.33391L39.1431 19.4063H6.85687L11.7767 8.33391ZM39.5312 35.9375C39.5312 36.1281 39.4555 36.3109 39.3207 36.4457C39.1859 36.5805 39.0031 36.6563 38.8125 36.6563H34.5C34.3094 36.6563 34.1266 36.5805 33.9918 36.4457C33.857 36.3109 33.7812 36.1281 33.7812 35.9375V31.625C33.7812 31.4344 33.7055 31.2516 33.5707 31.1168C33.4359 30.982 33.2531 30.9063 33.0625 30.9063H12.9375C12.7469 30.9063 12.5641 30.982 12.4293 31.1168C12.2945 31.2516 12.2188 31.4344 12.2188 31.625V35.9375C12.2188 36.1281 12.143 36.3109 12.0082 36.4457C11.8734 36.5805 11.6906 36.6563 11.5 36.6563H7.1875C6.99688 36.6563 6.81406 36.5805 6.67927 36.4457C6.54448 36.3109 6.46875 36.1281 6.46875 35.9375V20.8438H39.5312V35.9375Z" fill="url(#paint0_linear_1068_2864)"/>
<defs>
<linearGradient id="paint0_linear_1068_2864" x1="23" y1="6.46875" x2="23" y2="38.0938" gradientUnits="userSpaceOnUse">
<stop stop-color="#218FFF"/>
<stop offset="1" stop-color="#013E7D"/>
</linearGradient>
</defs>
</svg>
