<svg width="63" height="63" viewBox="0 0 63 63" fill="none" xmlns="http://www.w3.org/2000/svg">
<path d="M30.7179 52.3478C31.0609 52.3478 31.4126 52.2708 31.7731 52.1168C32.1336 51.9628 32.425 51.7747 32.6472 51.5524L53.1117 31.0853C53.7715 30.4256 54.2808 29.7518 54.6395 29.0641C54.9965 28.3728 55.175 27.6151 55.175 26.7908C55.175 25.9561 54.9965 25.1458 54.6395 24.3601C54.2808 23.5726 53.7715 22.8551 53.1117 22.2076L43.268 12.3638C42.6187 11.7041 41.9511 11.2202 41.2651 10.9122C40.5809 10.6042 39.8214 10.4502 38.9866 10.4502C38.1624 10.4502 37.3967 10.6042 36.6897 10.9122C35.9827 11.2202 35.3169 11.7032 34.6921 12.3612L32.4031 14.6502L37.2594 19.5196C37.7809 20.0323 38.1702 20.6151 38.4275 21.2678C38.683 21.9206 38.8107 22.5829 38.8107 23.2549C38.8107 24.6217 38.3636 25.7522 37.4694 26.6464C36.5751 27.5407 35.4455 27.9869 34.0805 27.9852C33.4067 27.9852 32.7496 27.8828 32.1091 27.6781C31.4686 27.4733 30.892 27.1146 30.3792 26.6018L25.3576 21.5986L14.0229 32.9307C13.7586 33.1967 13.56 33.4986 13.427 33.8363C13.294 34.1741 13.2275 34.5153 13.2275 34.8601C13.2275 35.4796 13.4261 35.9897 13.8234 36.3904C14.2189 36.7929 14.7264 36.9942 15.3459 36.9942C15.6889 36.9942 16.0406 36.9172 16.4011 36.7632C16.7616 36.6074 17.053 36.4184 17.2752 36.1962L25.5939 27.8776L27.4524 29.7361L19.1469 38.0573C18.8809 38.3216 18.6814 38.6226 18.5484 38.9603C18.4171 39.2998 18.3515 39.6411 18.3515 39.9841C18.3515 40.5703 18.558 41.0699 18.971 41.4829C19.384 41.8959 19.8836 42.1033 20.4699 42.1051C20.8129 42.1051 21.1646 42.0272 21.5251 41.8714C21.8856 41.7157 22.177 41.5276 22.3992 41.3071L31.3242 32.3978L33.1827 34.2537L24.2709 43.1787C24.0381 43.4009 23.8474 43.6923 23.6986 44.0528C23.5481 44.4133 23.4729 44.7651 23.4729 45.1081C23.4729 45.6926 23.6802 46.1913 24.095 46.6043C24.508 47.0208 25.0076 47.2291 25.5939 47.2291C25.9369 47.2291 26.2781 47.1626 26.6176 47.0296C26.9571 46.8966 27.2581 46.6971 27.5206 46.4311L36.4456 37.5192L38.3041 39.3777L29.3791 48.3027C29.1149 48.5687 28.9162 48.8881 28.7832 49.2608C28.6502 49.6336 28.5837 49.9739 28.5837 50.2819C28.5837 50.9014 28.8016 51.4011 29.2374 51.7808C29.6731 52.1606 30.1666 52.3504 30.7179 52.3504M30.7021 54.9754C29.3529 54.9754 28.1979 54.4819 27.2371 53.4949C26.2764 52.5062 25.8546 51.2864 25.9719 49.8357C24.4844 49.8532 23.2462 49.4096 22.2575 48.5048C21.2687 47.5983 20.7989 46.3348 20.8479 44.7143C19.2274 44.7318 17.9499 44.2681 17.0154 43.3231C16.0809 42.3781 15.6556 41.1338 15.7396 39.5903C14.2801 39.6078 13.0586 39.1966 12.0751 38.3566C11.0934 37.5201 10.6025 36.3546 10.6025 34.8601C10.6025 34.1863 10.7329 33.5126 10.9936 32.8388C11.2544 32.1633 11.6394 31.5701 12.1486 31.0591L25.3576 17.8658L32.1354 24.6436C32.3576 24.8763 32.6324 25.0679 32.9596 25.2184C33.2869 25.3689 33.6552 25.4433 34.0647 25.4416C34.6265 25.4416 35.1226 25.2456 35.5531 24.8536C35.9836 24.4616 36.1997 23.9506 36.2015 23.3206C36.2015 22.9111 36.1262 22.5436 35.9757 22.2181C35.8252 21.8908 35.6345 21.6161 35.4035 21.3938L26.3735 12.3638C25.7225 11.7041 25.0461 11.2202 24.3444 10.9122C23.6426 10.6042 22.8744 10.4502 22.0396 10.4502C21.2154 10.4502 20.4664 10.6042 19.7926 10.9122C19.1206 11.2202 18.4547 11.7041 17.795 12.3638L9.8045 20.3701C9.241 20.9301 8.786 21.5994 8.4395 22.3782C8.093 23.1552 7.90925 23.9576 7.88825 24.7853C7.87075 25.3786 7.9215 25.9482 8.0405 26.4942C8.1595 27.0402 8.352 27.5547 8.618 28.0377L6.62825 30.0274C6.18725 29.3239 5.8425 28.5137 5.594 27.5967C5.3455 26.6797 5.23087 25.7434 5.25012 24.7879C5.27112 23.5944 5.51 22.4526 5.96675 21.3623C6.4235 20.2721 7.078 19.2999 7.93025 18.4459L15.8709 10.5053C16.7861 9.59882 17.7547 8.92507 18.7767 8.48407C19.7987 8.04482 20.9039 7.8252 22.0921 7.8252C23.2804 7.8252 24.3759 8.0457 25.3786 8.4867C26.3831 8.92595 27.3386 9.59882 28.2451 10.5053L30.5289 12.7917L32.8179 10.5053C33.7331 9.59882 34.693 8.92507 35.6975 8.48407C36.702 8.04482 37.7984 7.8252 38.9866 7.8252C40.1749 7.8252 41.28 8.0457 42.302 8.4867C43.3222 8.92595 44.2847 9.59882 45.1895 10.5053L54.9702 20.2834C55.875 21.1882 56.5732 22.2041 57.065 23.3311C57.5568 24.4581 57.8017 25.6157 57.8 26.8039C57.8 27.9939 57.555 29.0903 57.065 30.0931C56.575 31.0958 55.8768 32.0513 54.9702 32.9596L34.5031 53.4083C33.9589 53.9543 33.3656 54.3516 32.7234 54.6001C32.0829 54.8486 31.4091 54.9728 30.7021 54.9728" fill="#002F5F"/>
</svg>
