<svg width="63" height="63" viewBox="0 0 63 63" fill="none" xmlns="http://www.w3.org/2000/svg">
<path d="M13.5004 36.75C11.5308 33.5245 10.4923 29.8167 10.5 26.0374C10.5 14.5556 19.9028 5.25 31.5 5.25C43.0973 5.25 52.5 14.5556 52.5 26.0374C52.5078 29.8167 51.4693 33.5245 49.4997 36.75" stroke="#002F5F" stroke-width="1.5" stroke-linecap="round"/>
<path d="M39.375 49.875L39.0337 51.5734C38.6662 53.4292 38.4799 54.3559 38.0625 55.0909C37.4193 56.2237 36.378 57.077 35.1409 57.4849C34.3402 57.75 33.39 57.75 31.5 57.75C29.61 57.75 28.6597 57.75 27.8591 57.4875C26.6215 57.079 25.5801 56.2247 24.9375 55.0909C24.5201 54.3559 24.3337 53.4292 23.9662 51.5734L23.625 49.875M19.3804 44.8822C19.1389 44.1577 19.0181 43.7929 19.0312 43.4989C19.0461 43.1949 19.1487 42.9017 19.3267 42.6548C19.5046 42.4079 19.7503 42.2178 20.034 42.1076C20.307 42 20.6902 42 21.4515 42H41.5485C42.3124 42 42.693 42 42.966 42.105C43.2501 42.2154 43.496 42.4059 43.674 42.6533C43.852 42.9007 43.9544 43.1944 43.9687 43.4989C43.9819 43.7929 43.8611 44.1551 43.6196 44.8822C43.1734 46.2236 42.9502 46.8956 42.6064 47.439C41.8871 48.5746 40.7597 49.3911 39.4564 49.7201C38.8316 49.875 38.1281 49.875 36.7185 49.875H26.2815C24.8719 49.875 24.1657 49.875 23.5436 49.7175C22.2407 49.3891 21.1134 48.5736 20.3936 47.439C20.0497 46.8956 19.8266 46.2236 19.3804 44.8822Z" stroke="#002F5F" stroke-width="1.5"/>
<path d="M32.3085 31.4999L28.4734 19.6323C28.3406 19.2582 28.0934 18.9355 27.7669 18.7098C27.4404 18.4841 27.0511 18.3669 26.6543 18.3749C26.2574 18.3669 25.8681 18.4841 25.5416 18.7098C25.2151 18.9355 24.9679 19.2582 24.8351 19.6323L21 31.4999M39.375 18.3749V31.4999M22.4123 27.5624H30.8936" stroke="#002F5F" stroke-width="1.5" stroke-linecap="round" stroke-linejoin="round"/>
</svg>
