<svg width="63" height="63" viewBox="0 0 63 63" fill="none" xmlns="http://www.w3.org/2000/svg">
<path d="M50.2769 24.0266C50.2769 26.4924 49.7912 28.934 48.8476 31.2121C47.904 33.4902 46.5209 35.5601 44.7773 37.3037C43.0338 39.0473 40.9638 40.4304 38.6858 41.374C36.4077 42.3176 33.966 42.8032 31.5003 42.8032C29.0345 42.8032 26.5928 42.3176 24.3148 41.374C22.0367 40.4304 19.9667 39.0473 18.2232 37.3037C16.4796 35.5601 15.0965 33.4902 14.1529 31.2121C13.2093 28.934 12.7236 26.4924 12.7236 24.0266C12.7236 19.0468 14.7019 14.2708 18.2232 10.7495C21.7445 7.22825 26.5204 5.25 31.5003 5.25C36.4801 5.25 41.256 7.22825 44.7773 10.7495C48.2986 14.2708 50.2769 19.0468 50.2769 24.0266Z" stroke="#002F5F" stroke-width="1.5"/>
<path d="M15.4875 33.8363L7.00879 48.5205L16.7633 45.9349L19.4014 55.6737L27.1294 42.2914M47.5125 33.8363L55.9913 48.5205L46.2368 45.9375L43.5987 55.6763L35.8707 42.2888M31.374 14.2722L34.6999 19.971L40.3962 21.3964L36.5978 25.6699L37.548 32.319L31.374 29.4709L25.2 32.3164L26.1503 25.6673L22.3519 21.3938L28.0482 19.9684L31.374 14.2722Z" stroke="#002F5F" stroke-width="1.5"/>
</svg>
