<svg width="63" height="63" viewBox="0 0 63 63" fill="none" xmlns="http://www.w3.org/2000/svg">
<path d="M23.6095 47.5546C23.0372 45.8483 22.5481 44.1114 22.1421 42.3439C21.7379 40.5764 21.443 38.7844 21.2575 36.9679L17.8187 39.2674C17.5842 39.4372 17.4075 39.6314 17.2885 39.8502C17.1695 40.0689 17.1109 40.3122 17.1126 40.5799V49.6021C17.1126 49.7701 17.1712 49.8882 17.2885 49.9564C17.4057 50.0247 17.5326 50.0247 17.6691 49.9564L23.6095 47.5546ZM30.9857 12.4452C28.3467 15.4832 26.4602 18.6183 25.3262 21.8506C24.1922 25.0828 23.6252 28.6108 23.6252 32.4346C23.6252 35.1611 23.8659 37.7817 24.3471 40.2964C24.8284 42.8112 25.4627 45.1291 26.2502 47.2501H36.7502C37.5377 45.1308 38.1721 42.8129 38.6534 40.2964C39.1346 37.7799 39.3752 35.1593 39.3752 32.4346C39.3752 28.6108 38.8082 25.0828 37.6742 21.8506C36.5402 18.6183 34.6537 15.4823 32.0147 12.4426C31.9167 12.3446 31.8336 12.2719 31.7654 12.2247C31.6954 12.1757 31.607 12.1512 31.5002 12.1512C31.3935 12.1512 31.3051 12.1757 31.2351 12.2247C31.1651 12.2737 31.082 12.3463 30.9857 12.4426M31.5002 32.8126C30.3925 32.8126 29.4597 32.4328 28.702 31.6733C27.9425 30.9156 27.5627 29.9828 27.5627 28.8751C27.5627 27.7673 27.9425 26.8346 28.702 26.0768C29.4615 25.3191 30.3942 24.9393 31.5002 24.9376C32.6062 24.9358 33.539 25.3156 34.2985 26.0768C35.058 26.8346 35.4377 27.7673 35.4377 28.8751C35.4377 29.9828 35.058 30.9156 34.2985 31.6733C33.539 32.4311 32.6062 32.8108 31.5002 32.8126ZM39.391 47.6044L45.3314 50.0063C45.4661 50.0746 45.593 50.0658 45.712 49.9801C45.8292 49.8961 45.8879 49.7701 45.8879 49.6021V40.6351C45.8879 40.3656 45.8284 40.1136 45.7094 39.8791C45.5921 39.6428 45.4154 39.4407 45.1791 39.2727L41.743 36.9706C41.5575 38.7871 41.2617 40.5878 40.8557 42.3728C40.4515 44.1561 39.9632 45.8982 39.391 47.6044ZM33.0306 9.8543C36.0984 12.9378 38.3602 16.3722 39.8162 20.1574C41.2722 23.9427 42.0002 28.1278 42.0002 32.7128C42.0002 32.9141 42.009 33.1241 42.0265 33.3428C42.044 33.5616 42.0352 33.7891 42.0002 34.0253L46.5546 37.0939C47.1636 37.4737 47.6422 37.9812 47.9905 38.6164C48.3387 39.2517 48.5129 39.9237 48.5129 40.6324V50.9487C48.5129 51.7012 48.1979 52.2892 47.5679 52.7127C46.9361 53.1362 46.2667 53.2062 45.5597 52.9227L38.0785 49.8751H24.8721L17.3909 52.8728C16.6839 53.1563 16.0232 53.0863 15.409 52.6628C14.7947 52.2393 14.4885 51.6522 14.4902 50.9014V40.5826C14.4902 39.8756 14.6556 39.2036 14.9864 38.5666C15.3171 37.9313 15.787 37.4238 16.396 37.0441L21.0002 33.9728V32.7128C21.0002 28.1278 21.7282 23.9427 23.1842 20.1574C24.6385 16.3722 26.9004 12.9378 29.9699 9.8543C30.1746 9.63555 30.4109 9.47718 30.6786 9.37918C30.9464 9.28118 31.2202 9.23218 31.5002 9.23218C31.7802 9.23218 32.0541 9.28118 32.3219 9.37918C32.5896 9.47718 32.8259 9.6373 33.0306 9.8543Z" fill="#002F5F"/>
</svg>
