<svg width="46" height="46" viewBox="0 0 46 46" fill="none" xmlns="http://www.w3.org/2000/svg">
<path d="M37.2696 21.7636C36.733 18.0932 37.2696 19.5019 36.8096 16.1573C36.0238 10.5607 30.1013 4.01524 22.1471 4.32191C9.58339 4.79149 7.76256 15.6207 7.76256 21.7348C7.76256 24.2744 6.93839 27.8011 7.21631 33.0911C7.66673 41.4957 8.53881 42.3486 20.7096 41.3519C36.9151 40.039 38.7838 33.5798 38.918 30.0627C39.0521 26.5457 37.653 24.4086 37.2696 21.7636ZM19.3967 27.6669C15.7646 27.6669 13.8863 23.2586 13.8863 19.7032C13.8863 16.1477 16.1959 12.2761 19.3967 12.2761C22.8851 12.2761 24.7826 16.3777 24.7826 19.8469C24.7826 23.5077 23.0001 27.6669 19.3967 27.6669ZM31.9605 24.5236C29.2867 24.5236 27.9163 21.3227 27.9163 18.7736C27.9163 16.2244 29.6126 13.3686 31.9605 13.3686C34.5288 13.3686 35.9184 16.349 35.9184 18.8694C35.9184 21.4952 34.6342 24.5236 31.9605 24.5236Z" stroke="url(#paint0_linear_1068_2868)" stroke-linecap="round" stroke-linejoin="round"/>
<defs>
<linearGradient id="paint0_linear_1068_2868" x1="23.043" y1="4.31152" x2="23.043" y2="41.6825" gradientUnits="userSpaceOnUse">
<stop stop-color="#178AFF"/>
<stop offset="1" stop-color="#013E7D"/>
</linearGradient>
</defs>
</svg>
