<svg width="46" height="46" viewBox="0 0 46 46" fill="none" xmlns="http://www.w3.org/2000/svg">
<path d="M11.7108 10.7715L4.3125 18.074V28.0598L11.5 35.2281H41.6875V10.7715H11.7108ZM9.22875 20.8436C9.59686 20.8417 9.95725 20.9491 10.2642 21.1522C10.5712 21.3554 10.811 21.6451 10.9532 21.9846C11.0954 22.3241 11.1336 22.6983 11.0629 23.0595C10.9923 23.4208 10.816 23.753 10.5564 24.0139C10.2967 24.2749 9.96548 24.4529 9.60458 24.5254C9.24368 24.598 8.86937 24.5617 8.52909 24.4213C8.18882 24.2808 7.89789 24.0426 7.69317 23.7366C7.48846 23.4307 7.37917 23.0709 7.37917 22.7027C7.3779 22.459 7.42481 22.2175 7.5172 21.992C7.60958 21.7665 7.74562 21.5614 7.9175 21.3887C8.08937 21.2159 8.2937 21.0788 8.51872 20.9853C8.74375 20.8917 8.98505 20.8436 9.22875 20.8436Z" stroke="url(#paint0_linear_1068_2858)" stroke-linecap="round" stroke-linejoin="round"/>
<defs>
<linearGradient id="paint0_linear_1068_2858" x1="23" y1="10.7715" x2="23" y2="35.2281" gradientUnits="userSpaceOnUse">
<stop stop-color="#1C8CFF"/>
<stop offset="1" stop-color="#013E7D"/>
</linearGradient>
</defs>
</svg>
