<svg width="46" height="46" viewBox="0 0 46 46" fill="none" xmlns="http://www.w3.org/2000/svg">
<path d="M32.0553 16.9625L20.6339 28.384C20.5484 28.47 20.4467 28.5383 20.3347 28.5849C20.2227 28.6315 20.1026 28.6555 19.9813 28.6555C19.8599 28.6555 19.7398 28.6315 19.6278 28.5849C19.5158 28.5383 19.4141 28.47 19.3286 28.384L8.56079 17.6161C8.47459 17.5306 8.40618 17.4289 8.35949 17.3168C8.3128 17.2047 8.28876 17.0844 8.28876 16.963C8.28876 16.8416 8.3128 16.7214 8.35949 16.6093C8.40618 16.4972 8.47459 16.3954 8.56079 16.3099L19.3286 5.54304C19.4141 5.45698 19.5158 5.38869 19.6278 5.34208C19.7398 5.29548 19.8599 5.27148 19.9813 5.27148C20.1026 5.27148 20.2227 5.29548 20.3347 5.34208C20.4467 5.38869 20.5484 5.45698 20.6339 5.54304L37.4392 22.3484C37.5253 22.4339 37.5936 22.5356 37.6402 22.6476C37.6868 22.7596 37.7108 22.8797 37.7108 23.001C37.7108 23.1223 37.6868 23.2424 37.6402 23.3544C37.5936 23.4664 37.5253 23.5681 37.4392 23.6536L20.6339 40.458C20.5484 40.5441 20.4467 40.6124 20.3347 40.659C20.2227 40.7056 20.1026 40.7296 19.9813 40.7296C19.8599 40.7296 19.7398 40.7056 19.6278 40.659C19.5158 40.6124 19.4141 40.5441 19.3286 40.458L8.56079 29.6902C8.47474 29.6047 8.40644 29.503 8.35984 29.391C8.31323 29.279 8.28924 29.1589 8.28924 29.0375C8.28924 28.9162 8.31323 28.7961 8.35984 28.6841C8.40644 28.5721 8.47474 28.4704 8.56079 28.3849L19.3286 17.6161C19.4141 17.5301 19.5158 17.4618 19.6278 17.4152C19.7398 17.3686 19.8599 17.3446 19.9813 17.3446C20.1026 17.3446 20.2227 17.3686 20.3347 17.4152C20.4467 17.4618 20.5484 17.5301 20.6339 17.6161L32.0563 29.0375" stroke="url(#paint0_linear_1068_2854)" stroke-width="0.958333" stroke-linecap="round" stroke-linejoin="round"/>
<defs>
<linearGradient id="paint0_linear_1068_2854" x1="22.9998" y1="5.27148" x2="22.9998" y2="40.7296" gradientUnits="userSpaceOnUse">
<stop stop-color="#3A9CFF"/>
<stop offset="1" stop-color="#013E7D"/>
</linearGradient>
</defs>
</svg>
