<svg width="176" height="28" viewBox="0 0 176 28" fill="none" xmlns="http://www.w3.org/2000/svg">
<path d="M157.33 15.9281L153.708 6.62156C153.549 6.17438 153.274 6.11943 152.972 6.11943C152.393 6.10839 151.007 6.09293 150.265 6.11943C149.524 6.14592 149.561 6.6079 149.589 6.78454L149.859 7.44964C151.628 11.6061 155.016 19.9752 155.258 20.3991C155.501 20.823 155.359 21.3044 155.258 21.4921L155.228 21.5668C154.654 22.9684 153.332 26.1972 153.107 27.0038C152.878 27.8252 153.435 28 153.783 28H156.269C156.929 28 157.251 27.3707 157.33 27.0561L157.785 25.9135C160.048 20.0624 164.678 8.12511 165.096 7.18452C165.513 6.24393 164.922 6.00883 164.573 6.00886C163.748 6.00334 162.006 5.99561 161.642 6.00886C161.285 6.02187 161.151 6.39524 161.074 6.61031L161.07 6.62156C160.042 9.48086 157.947 15.3452 157.785 15.9281C157.623 16.511 157.414 16.171 157.33 15.9281Z" fill="#D60001"/>
<path d="M127.545 6.00856L125.231 5.98602C124.989 5.98602 124.9 6.30663 124.917 6.45567L124.917 9.04551C126.472 12.5617 129.405 19.7265 129.701 20.3492C129.997 20.9718 129.926 21.3703 129.853 21.4918C129.33 22.7558 128.009 25.8343 127.667 26.8704C127.351 27.8304 127.736 27.9832 128.421 27.9832H131.049C131.507 27.9832 131.756 27.5305 131.823 27.3042C134.339 20.9839 139.499 8.15159 139.757 7.30017C140.116 6.11911 140.116 6.00856 139.169 6.00856L136.321 6.00856C135.863 6.00856 135.689 6.38515 135.614 6.5881C134.58 9.38116 132.48 15.0931 132.346 15.5965C132.211 16.1 132.076 15.8063 132.026 15.5965C130.863 12.7373 128.485 6.90609 128.269 6.45567C128.085 6.06991 127.7 6.00855 127.545 6.00856Z" fill="#3E3E3E"/>
<path d="M69.6178 9.86782C66.4105 10.146 65.6761 12.7658 65.7098 14.0409C63.4458 13.8952 62.2959 12.1254 62.0039 11.2587C62.5542 9.48135 64.9013 5.78616 69.4831 5.71993C75.2104 5.63713 77.2148 10.1328 77.2991 10.2984C77.3664 10.4309 77.3271 10.4971 77.2991 10.5137C75.5741 12.1696 74.1322 12.9148 73.6269 13.0804C73.4191 11.9102 72.3265 9.62937 69.6178 9.86782Z" fill="#3E3E3E"/>
<path d="M67.1248 17.3692C64.6452 17.1043 62.6777 16.199 62.0039 15.7795C62.0982 16.2962 62.279 16.9331 62.3576 17.1871C63.0876 18.9865 65.5455 22.3928 70.295 22.2146C76.2521 21.9911 77.6528 16.3591 77.8381 15.6801C77.9863 15.137 78.1357 15.4538 78.1918 15.6801C78.1862 17.0932 78.1918 20.0863 78.1918 20.8136C78.1918 21.541 78.549 21.6582 78.7309 21.6582H81.7966C82.4301 21.6582 82.4143 21.0455 82.4031 20.7308V12.1364C82.4731 11.4399 83.5556 9.84363 85.7206 9.84363C87.5668 9.85687 88.8328 11.4399 88.922 12.2523C88.9164 15.0453 88.9086 20.7275 88.922 21.1117C88.9355 21.4959 89.287 21.625 89.4611 21.6416C90.191 21.6471 91.7958 21.6549 92.3752 21.6416C92.9547 21.6284 93.0322 21.0289 92.9985 20.7308V12.2523C92.9985 10.7748 91.1331 6.42948 86.6678 6.27426C83.8042 6.2577 82.4443 7.42466 82.2852 7.54935C82.0156 7.76047 82.0156 7.36719 82.0156 6.80417C82.0156 6.31852 81.7966 6.27426 81.2745 6.27426C80.6344 6.26322 79.2336 6.27426 78.7477 6.27426C78.1582 6.27426 78.1525 6.71585 78.1582 6.92008V11.6065H77.6528C76.1435 13.9116 74.4972 14.6645 73.8627 14.7528C73.7785 15.6636 73.0878 17.3692 70.9317 17.9654C69.2068 18.4423 67.675 17.7666 67.1248 17.3692Z" fill="#3E3E3E"/>
<path d="M39.4649 1.51102C39.4198 1.19611 39.536 0.559676 40.3616 0.533158L43.5027 0.53313C44.0435 0.53313 44.206 0.772017 44.3143 0.931127L44.3146 0.931583C44.4229 1.09069 48.4707 9.23437 50.5459 13.3944L55.9933 1.51102C56.14 1.18503 56.7498 0.533063 57.034 0.533063L60.5611 0.533051C60.8261 0.560745 61.3562 0.79511 61.3562 1.51102V7.79241C60.8881 8.06311 59.4107 9.31057 57.2452 12.1348H57.034V9.44496L52.0516 19.7587C51.9444 19.9632 51.6828 20.3753 51.4933 20.3886C51.3038 20.4018 50.1737 20.3941 49.6324 20.3886C49.4857 20.4272 49.1248 20.3819 48.8541 19.8913C48.5835 19.4007 45.3804 12.6486 43.8127 9.33378V20.8858C43.7958 21.1951 43.5894 21.8139 42.8992 21.8139H40.1755C39.9386 21.7918 39.4615 21.6216 39.448 21.1178C39.4345 20.614 39.4537 7.83668 39.4649 1.51102Z" fill="#3E3E3E"/>
<path d="M61.3562 15.4164V20.7863C61.3957 21.1289 61.3054 21.8139 60.6287 21.8139H57.8035C57.5384 21.836 57.0475 21.6538 57.034 20.8848C57.0205 20.1158 57.0284 15.257 57.034 12.9035V12.8206L57.1639 12.9135C57.1663 12.9148 57.1678 12.9161 57.1694 12.9174C57.914 13.5261 59.731 14.8506 61.3562 15.4164Z" fill="#3E3E3E"/>
<path d="M140.653 6.80365C138.524 8.38013 138.492 10.7753 139.036 12.2683C140.653 15.6971 144.847 15.5636 146.313 15.9776C147.485 16.3088 147.423 17.3833 147.29 17.6005C147.152 17.8254 146.786 18.3788 145.252 18.3788C143.093 18.3788 141.428 17.3355 140.67 17.054C140.063 16.8288 139.687 17.1478 139.575 17.3355C139.435 17.5508 139.083 18.1767 138.8 18.9584C138.517 19.74 139.098 20.2003 139.423 20.3328C142.051 21.7901 145.325 21.8894 146.633 21.7569C148.155 21.6245 151.225 20.4553 151.333 16.8387C151.467 12.3179 144.965 11.8212 143.803 11.4403C142.848 11.1272 142.759 10.6422 142.759 10.3308C142.759 9.94712 142.893 9.21467 144.847 9.18817C147.29 9.15505 147.896 10.099 148.587 10.3308C149.139 10.5163 149.469 10.2535 149.564 10.099C150.137 9.37033 150.474 8.59202 150.659 8.11179C150.807 7.72761 150.597 7.47701 150.474 7.39973L149.85 6.96924C148.042 5.99774 143.672 4.60453 140.653 6.80365Z" fill="#D60001"/>
<path d="M165.319 6.75924C163.19 8.33572 163.158 10.7309 163.702 12.2239C165.319 15.6526 169.513 15.5192 170.979 15.9332C172.151 16.2644 172.089 17.3389 171.956 17.5561C171.818 17.781 171.452 18.3344 169.918 18.3344C167.759 18.3344 166.094 17.2911 165.336 17.0096C164.729 16.7844 164.353 17.1034 164.241 17.2911C164.101 17.5064 163.749 18.1323 163.466 18.914C163.183 19.6956 163.764 20.1559 164.089 20.2884C166.717 21.7457 169.991 21.845 171.299 21.7125C172.821 21.5801 175.891 20.4109 175.999 16.7943C176.133 12.2735 169.631 11.7768 168.469 11.3959C167.514 11.0828 167.425 10.5978 167.425 10.2864C167.425 9.90272 167.559 9.17026 169.513 9.14377C171.956 9.11065 172.562 10.0545 173.253 10.2864C173.805 10.4719 174.135 10.2091 174.23 10.0545C174.803 9.32592 175.14 8.54762 175.325 8.06739C175.473 7.68321 175.263 7.4326 175.14 7.35533L174.516 6.92484C172.708 5.95334 168.338 4.56012 165.319 6.75924Z" fill="#D60001"/>
<path d="M108.141 0.0162201C108.421 0.0161804 108.983 0.191329 108.983 0.893173C108.983 1.5954 108.994 14.6492 108.994 21.0191C109.022 21.3172 108.875 21.7783 108.107 21.7916C107.339 21.8049 106.08 21.7971 105.547 21.7916C105.373 21.7806 105.024 21.6262 105.024 21.0963C105.024 20.5666 104.957 20.1695 104.654 20.4176C104.351 20.666 103.711 22.0073 100.46 21.9908C93.6277 21.8319 92.5259 15.974 92.8291 13.065C92.9021 11.2379 94.0961 7.30578 98.2871 6.19298C101.823 5.45556 103.964 6.84452 104.654 7.79942L104.637 0.893173C104.642 0.611529 104.796 0.0427983 105.361 0.0162201C105.927 -0.0102721 107.45 0.0051806 108.141 0.0162201ZM100.813 9.86876C98.5807 9.86876 96.7705 11.7453 96.7705 14.0592C96.7707 16.3729 98.5808 18.2486 100.813 18.2486C103.046 18.2485 104.856 16.3728 104.856 14.0592C104.856 11.7454 103.046 9.8689 100.813 9.86876Z" fill="#3E3E3E"/>
<path d="M112.297 6.77844C116.248 4.50186 119.66 6.15933 120.857 7.29211C120.858 6.21701 121.45 6.01009 121.678 6.00793C122.302 6.00235 123.55 5.99454 124.149 6.00793C124.749 6.02152 124.932 6.43823 124.949 6.64465C124.944 11.0805 124.936 20.1417 124.949 20.9073C124.963 21.67 124.415 21.6816 124.269 21.7111C123.638 21.7222 121.936 21.7378 121.404 21.7111C120.74 21.6775 120.959 20.8403 120.857 20.4718C120.776 20.1772 120.635 20.2885 120.556 20.3722C120.045 20.9805 118.358 22.004 116.069 21.8165C112.585 21.6733 110.586 19.9113 109.631 17.9708C108.123 15.1473 108.811 11.7135 109.44 10.172H109.452C110.149 8.52408 111.423 7.40695 112.297 6.77844ZM116.304 9.56946C114.046 9.56946 112.217 11.4666 112.217 13.8058C112.217 16.1448 114.047 18.0411 116.304 18.0411C118.561 18.041 120.39 16.1446 120.391 13.8058C120.391 11.4667 118.561 9.56964 116.304 9.56946Z" fill="#3E3E3E"/>
<ellipse cx="27.6909" cy="2.85183" rx="2.63723" ry="2.85183" fill="#3E3E3E"/>
<path d="M19.7559 0.0546722L19.7598 0.0488129L23.627 6.15916L23.6162 6.17577L30.21 16.6308C30.5559 17.1192 30.7539 17.729 30.7539 18.4248C30.7537 20.253 29.2655 21.7359 27.4297 21.7363C25.5936 21.7363 24.1047 20.2532 24.1045 18.4248C24.1243 17.9988 24.222 17.6055 24.3828 17.2529C24.4957 16.9501 24.6673 16.6937 24.876 16.4717C25.4059 15.713 25.7693 14.8944 25.7695 14.2197C25.7695 12.4143 24.318 10.9502 22.5273 10.9502C21.4839 10.9502 20.6104 11.3662 20.0312 12.1181L20.0303 12.1172L20.0195 12.1338C19.8908 12.3032 19.7794 12.4912 19.6816 12.6933L15.2188 20.0898C15.1969 20.121 15.1698 20.1519 15.1436 20.1846C14.6034 21.1121 13.5948 21.7391 12.4365 21.7392C10.7102 21.7391 9.31022 20.3514 9.30957 18.6406C9.30959 18.2038 9.40227 17.7877 9.56738 17.4111L9.6416 17.2539L9.6543 17.2314C9.70261 17.1382 9.75622 17.0474 9.81348 16.9599L19.752 0.0478363L19.7559 0.0546722Z" fill="#3E3E3E"/>
<path d="M10.6572 0.159622L14.4629 6.12251L5.96973 20.0825C5.94667 20.1151 5.91856 20.1469 5.89062 20.1811C5.34445 21.109 4.32714 21.7358 3.1582 21.7358C1.41395 21.7356 0 20.3451 0 18.6303C3.98299e-06 18.1293 0.122482 17.6568 0.336914 17.2377L0.333008 17.2417L0.349609 17.2124C0.407182 17.1024 0.469016 16.9949 0.539062 16.893L10.5566 0.000442505L10.6572 0.159622Z" fill="#D60001"/>
</svg>
