<svg width="70" height="56" viewBox="0 0 70 56" fill="none" xmlns="http://www.w3.org/2000/svg">
<path d="M33.6069 48C33.3838 48 33.1606 47.9372 32.9588 47.8326L30.9188 46.6403C30.6106 46.4729 30.7594 46.4101 30.8656 46.3788C31.2694 46.2428 31.3544 46.2114 31.79 45.9604C31.8325 45.9395 31.8963 45.9499 31.9388 45.9708L33.5112 46.8913C33.5644 46.9227 33.6494 46.9227 33.7025 46.8913L39.8438 43.3978C39.8969 43.3664 39.9394 43.3037 39.9394 43.2304V36.2539C39.9394 36.1807 39.9075 36.1179 39.8438 36.0865L33.7025 32.6035C33.6494 32.5721 33.575 32.5721 33.5112 32.6035L27.37 36.0865C27.3063 36.1179 27.2744 36.1911 27.2744 36.2539V43.2304C27.2744 43.2932 27.3169 43.3559 27.37 43.3873L29.0487 44.3391C29.9625 44.7889 30.5256 44.2555 30.5256 43.7325V36.8396C30.5256 36.7455 30.6 36.6618 30.7063 36.6618H31.4819C31.5775 36.6618 31.6625 36.735 31.6625 36.8396V43.7325C31.6625 44.9353 31.0037 45.6152 29.8456 45.6152C29.495 45.6152 29.2081 45.6152 28.4325 45.2387L26.8175 44.3287C26.4244 44.0986 26.1694 43.6802 26.1694 43.2304V36.2539C26.1694 35.8041 26.4137 35.3753 26.8175 35.1556L32.9588 31.6621C33.3519 31.4425 33.8619 31.4425 34.2444 31.6621L40.3856 35.1556C40.7788 35.3858 41.0338 35.8041 41.0338 36.2539V43.2304C41.0338 43.6802 40.7894 44.109 40.3856 44.3287L34.2444 47.8222C34.0638 47.9372 33.8406 48 33.6069 48ZM38.5688 41.1176C38.5688 39.8102 37.6763 39.465 35.785 39.214C33.8725 38.9629 33.6813 38.8374 33.6813 38.3981C33.6813 38.032 33.8406 37.5509 35.2537 37.5509C36.5181 37.5509 36.9856 37.8228 37.1769 38.6596C37.1981 38.7433 37.2619 38.7956 37.3469 38.7956H38.1437C38.1969 38.7956 38.2394 38.7747 38.2713 38.7433C38.3031 38.7014 38.3244 38.6596 38.3138 38.6073C38.1863 37.1639 37.2194 36.4945 35.2537 36.4945C33.5006 36.4945 32.4594 37.2266 32.4594 38.44C32.4594 39.7683 33.5006 40.1239 35.1794 40.2913C37.1875 40.49 37.3469 40.7724 37.3469 41.1594C37.3469 41.8393 36.7944 42.1217 35.4981 42.1217C33.8725 42.1217 33.5112 41.7243 33.3944 40.9293C33.3838 40.8457 33.3094 40.7829 33.2138 40.7829H32.4169C32.3213 40.7829 32.2363 40.8561 32.2363 40.9607C32.2363 41.9753 32.7994 43.1886 35.4875 43.1886C37.4531 43.1886 38.5688 42.4355 38.5688 41.1176ZM44.3594 35.8774C44.3594 36.5154 43.8281 37.0384 43.18 37.0384C42.5319 37.0384 42.0006 36.5154 42.0006 35.8774C42.0006 35.2184 42.5531 34.7163 43.18 34.7163C43.8175 34.7059 44.3594 35.2184 44.3594 35.8774ZM44.1681 35.8774C44.1681 35.3335 43.7219 34.9046 43.1694 34.9046C42.6275 34.9046 42.1813 35.3335 42.1813 35.8774C42.1813 36.4213 42.6275 36.8606 43.1694 36.8606C43.7219 36.8501 44.1681 36.4108 44.1681 35.8774ZM43.69 36.5258H43.4138C43.4031 36.4631 43.3606 36.1284 43.3606 36.1179C43.3394 36.0447 43.3181 36.0029 43.2225 36.0029H42.9888V36.5258H42.7338V35.2184H43.1906C43.35 35.2184 43.6581 35.2184 43.6581 35.5636C43.6581 35.8041 43.4988 35.8564 43.4031 35.8878C43.5838 35.8983 43.5944 36.0133 43.6263 36.1807C43.6369 36.2853 43.6581 36.4631 43.69 36.5258ZM43.3925 35.6054C43.3925 35.4276 43.265 35.4276 43.2013 35.4276H42.9888V35.7937H43.1906C43.3606 35.7937 43.3925 35.6786 43.3925 35.6054ZM14.5881 20.7005C14.5881 20.4181 14.4394 20.1671 14.195 20.0311L7.68188 16.3389C7.57563 16.2761 7.44813 16.2447 7.32063 16.2343H7.25688C7.12938 16.2343 7.0125 16.2761 6.89563 16.3389L0.393125 20.0311C0.14875 20.1671 0 20.4286 0 20.7005L0.010625 30.6371C0.010625 30.7731 0.085 30.8986 0.201875 30.9718C0.31875 31.045 0.4675 31.045 0.595 30.9718L4.4625 28.7858C4.70688 28.6393 4.85563 28.3883 4.85563 28.1164V23.4723C4.85563 23.2004 5.00438 22.9389 5.24875 22.8029L6.89563 21.872C7.02313 21.7988 7.15063 21.7674 7.28875 21.7674C7.42688 21.7674 7.565 21.7988 7.68188 21.872L9.32875 22.8029C9.57313 22.9389 9.72188 23.2004 9.72188 23.4723V28.1164C9.72188 28.3883 9.87062 28.6498 10.115 28.7858L13.9825 30.9718C14.0994 31.045 14.2588 31.045 14.3756 30.9718C14.4925 30.9091 14.5669 30.7731 14.5669 30.6371L14.5881 20.7005ZM50.2031 9.85394V28.3046C50.2031 28.5766 50.0544 28.8381 49.81 28.974L43.2969 32.6767C43.0525 32.8127 42.755 32.8127 42.5106 32.6767L35.9975 28.974C35.7531 28.8381 35.6044 28.5766 35.6044 28.3046V20.8993C35.6044 20.6273 35.7531 20.3658 35.9975 20.2298L42.5106 16.5272C42.755 16.3912 43.0525 16.3912 43.2969 16.5272L44.9225 17.4476C45.1031 17.5522 45.3369 17.4162 45.3369 17.2175V7.38549C45.3369 7.09262 45.6556 6.90434 45.9213 7.05078L49.7994 9.18453C50.0438 9.31005 50.2031 9.57154 50.2031 9.85394ZM45.3156 23.3363C45.3156 23.2631 45.2731 23.2004 45.22 23.169L42.9888 21.8929C42.925 21.8615 42.8506 21.8615 42.7869 21.8929L40.5556 23.169C40.4919 23.2004 40.46 23.2631 40.46 23.3363V25.878C40.46 25.9512 40.5025 26.014 40.5556 26.0454L42.7869 27.311C42.8506 27.3423 42.925 27.3423 42.9781 27.311L45.2094 26.0454C45.2731 26.014 45.305 25.9512 45.305 25.878V23.3363H45.3156ZM67.6069 23.2631C67.8512 23.1271 68 22.8657 68 22.5937V20.8051C68 20.5332 67.8512 20.2717 67.6069 20.1357L61.1363 16.433C60.8919 16.297 60.5944 16.297 60.35 16.433L53.8369 20.1357C53.5925 20.2717 53.4438 20.5332 53.4438 20.8051V28.2105C53.4438 28.4929 53.5925 28.7439 53.8369 28.8799L60.3075 32.5094C60.5412 32.6453 60.8388 32.6453 61.0831 32.5094L64.9931 30.3652C65.2588 30.2187 65.2588 29.8422 64.9931 29.6958L58.4375 25.9931C58.31 25.9198 58.2356 25.7943 58.2356 25.6584V23.3363C58.2356 23.2004 58.31 23.0748 58.4375 23.0016L60.4775 21.8406C60.5944 21.7674 60.7538 21.7674 60.8706 21.8406L62.9106 23.0016C63.0275 23.0748 63.1125 23.2004 63.1125 23.3363V25.1563C63.1125 25.4492 63.4419 25.6374 63.7075 25.491L67.6069 23.2631ZM59.3938 23.6292C59.3513 23.6606 59.3194 23.7024 59.3194 23.7547V25.1772C59.3194 25.2295 59.3513 25.2818 59.3938 25.3027L60.6475 26.014C60.69 26.0454 60.7538 26.0454 60.7963 26.014L62.05 25.3027C62.0925 25.2714 62.1244 25.2295 62.1244 25.1772V23.7547C62.1244 23.7024 62.0925 23.6501 62.05 23.6292L60.7963 22.9179C60.7538 22.8866 60.69 22.8866 60.6475 22.9179L59.3938 23.6292ZM32.385 28.1791V20.8156C32.385 20.5436 32.215 20.2821 31.9706 20.1462L25.4788 16.4644C25.2556 16.3389 24.9475 16.318 24.6925 16.4644L18.2006 20.1462C17.9563 20.2821 17.7862 20.5332 17.7862 20.8156V28.1791C17.7862 28.472 17.9881 28.723 18.2113 28.8485L24.7138 32.5303C24.9688 32.6767 25.2663 32.6663 25.5 32.5303L31.9813 28.8485C32.1725 28.7439 32.3106 28.5661 32.3638 28.3569C32.3744 28.3046 32.385 28.2419 32.385 28.1791ZM24.4906 15.1151L24.4056 15.1674H24.5225L24.4906 15.1151ZM32.5869 28.7335L32.5444 28.6603V28.7544L32.5869 28.7335Z" fill="black"/>
</svg>
