<svg width="45" height="45" viewBox="0 0 45 45" fill="none" xmlns="http://www.w3.org/2000/svg">
<g clip-path="url(#clip0_1915_4018)">
<path d="M22.5 45C34.9264 45 45 34.9264 45 22.5C45 10.0736 34.9264 0 22.5 0C10.0736 0 0 10.0736 0 22.5C0 34.9264 10.0736 45 22.5 45Z" fill="#663399"/>
<path d="M9.96427 35.0358C6.58927 31.6608 4.82141 27.1608 4.82141 22.8215L22.3393 40.1787C17.8393 40.018 13.3393 38.4108 9.96427 35.0358ZM26.3571 39.6965L5.30355 18.643C7.07141 10.768 14.1428 4.82153 22.5 4.82153C28.4464 4.82153 33.5893 7.71439 36.8036 12.0537L34.3928 14.143C31.6607 10.4465 27.3214 8.03582 22.5 8.03582C16.2321 8.03582 10.9286 12.0537 8.83927 17.6787L27.3214 36.1608C31.9821 34.5537 35.5178 30.5358 36.6428 25.7144H28.9286V22.5001H40.1786C40.1786 30.8572 34.2321 37.9287 26.3571 39.6965Z" fill="white"/>
</g>
<defs>
<clipPath id="clip0_1915_4018">
<rect width="45" height="45" fill="white"/>
</clipPath>
</defs>
</svg>
