<svg width="110" height="38" viewBox="0 0 110 38" fill="none" xmlns="http://www.w3.org/2000/svg">
<g clip-path="url(#clip0_1915_4013)">
<path d="M109.655 28.1989L107.069 28.5428C107.069 28.5428 106.897 27.5111 106.034 26.8234C105.172 26.1356 102.241 26.3075 102.241 28.027C102.241 29.5744 103.448 29.4025 105.862 29.9183C108.103 30.4342 110 31.1219 110 34.2169C110 35.9363 108.793 37.9997 105 37.9997C98.7931 37.9997 99.3103 33.3572 99.3103 33.3572H102.069C102.069 33.3572 102.241 34.9047 103.276 35.2486C104.483 35.7644 106.552 35.5925 106.897 34.5608C107.241 33.5291 107.241 32.3255 103.966 31.9817C100.69 31.4658 99.3103 30.0903 99.3103 27.855C99.4828 25.7917 100.69 24.0723 105 24.0723C109.31 24.2442 109.655 28.1989 109.655 28.1989ZM97.7586 28.1989L95.1724 28.5428C95.1724 28.5428 95 27.5111 94.1379 26.8234C93.2759 26.1356 90.3448 26.3075 90.3448 28.027C90.3448 29.5744 91.5517 29.4025 93.9655 29.9183C96.2069 30.4342 98.1034 31.1219 98.1034 34.2169C98.1034 35.9363 96.8966 37.9997 93.1034 37.9997C86.8966 37.9997 87.4138 33.3572 87.4138 33.3572H90.3448C90.3448 33.3572 90.5172 34.9047 91.5517 35.2486C92.7586 35.7644 94.8276 35.5925 95.1724 34.5608C95.5172 33.5291 95.5172 32.3255 92.2414 31.9817C89.3103 31.6378 87.7586 30.4342 87.7586 28.5428V27.855C87.931 25.7917 89.1379 24.0723 93.2759 24.0723C97.2414 24.2442 97.7586 28.1989 97.7586 28.1989ZM83.1034 33.0133H86.0345V33.1853C85.8621 34.2169 85.3448 37.8277 80.3448 37.8277C75.8621 37.8277 74.3103 34.3889 74.3103 30.7781C74.3103 26.9953 76.5517 24.2442 80.6897 24.2442C85.3448 24.2442 85.6897 28.7147 85.6897 28.7147L82.931 29.0586C82.931 29.0586 82.7586 26.6514 80.3448 26.6514C77.931 26.6514 77.069 28.5428 77.069 30.7781C77.069 33.0133 77.7586 35.5925 80.1724 35.5925C82.5862 35.5925 83.1034 33.0133 83.1034 33.0133ZM68.4483 24.5881V37.6558H66.0345V36.4522C66.0345 36.4522 65.1724 37.9997 63.1034 37.9997C60.8621 37.9997 59.3103 36.968 59.1379 33.0133C59.1379 28.8867 61.7241 27.855 63.4483 27.855C65 27.855 66.0345 29.0586 66.0345 29.0586V24.5881H68.4483ZM66.0345 32.8414C66.0345 31.4658 65.8621 29.9183 63.7931 29.9183C61.7241 29.9183 61.7241 32.3255 61.7241 33.0133C61.7241 33.873 61.8965 35.7644 63.7931 35.7644C65.6897 35.7644 66.0345 34.2169 66.0345 32.8414ZM57.2414 31.1219V37.4838H54.6552V31.2939C54.6552 30.4342 54.1379 29.7464 53.1034 29.7464C52.069 29.7464 51.0345 30.6061 51.0345 31.4658V37.4838H48.4483V27.855H51.0345V29.2306C51.0345 29.2306 51.8966 27.5111 54.4828 27.6831C57.4138 28.027 57.2414 30.7781 57.2414 31.1219ZM43.7931 28.027H46.3793V37.6558H43.7931V28.027ZM43.7931 24.5881H46.3793V26.8234H43.7931V24.5881ZM42.7586 28.027L40 37.6558H37.4138L35.6897 31.2939L33.9655 37.6558H31.5517L28.7931 28.027H31.5517L32.931 34.2169L34.8276 28.027H37.069L38.6207 34.3889L40 28.027H42.7586ZM25 24.4162H27.5862V37.4838H25V24.4162ZM20.3448 28.027H22.931V37.6558H20.3448V28.027ZM20.3448 24.5881H22.931V26.8234H20.3448V24.5881ZM18.2759 31.4658V37.4838H15.8621V36.2802C15.8621 36.2802 15.1724 37.1399 14.1379 37.4838C12.5862 37.9997 10.3448 37.6558 9.65517 35.9363C9.13793 34.5608 9.65517 33.0133 11.0345 32.3255C12.7586 31.4658 15.6897 31.6378 15.6897 31.6378C15.6897 31.6378 15.8621 30.95 15.5172 30.4342C15.3448 29.9183 14.8276 29.7464 14.1379 29.7464C12.4138 29.7464 12.4138 30.95 12.4138 30.95L10 30.7781C10 30.7781 10 29.5745 11.2069 28.7147C11.8966 28.1989 12.7586 28.027 14.3103 28.027C16.2069 28.027 18.2759 28.7147 18.2759 31.4658ZM14.3103 35.7644C16.0345 35.4205 15.8621 33.3572 15.8621 33.3572H15.1724C14.6552 33.3572 13.9655 33.3572 13.4483 33.5291C12.5862 33.7011 12.2414 34.045 12.069 34.3889C11.8966 34.9047 12.069 35.4205 12.5862 35.7644C12.931 35.9363 13.4483 35.9363 14.3103 35.7644ZM10.6897 24.4162V26.9953H6.72414V37.6558H3.7931V26.8234H0V24.4162H10.6897Z" fill="#252A2F"/>
<path d="M74.3104 3.95494C74.3104 3.95494 71.8966 7.56575 67.7586 6.87797C63.6207 6.1902 62.9311 0.000244141 55.5173 0.000244141C46.3793 0.000244141 45.3448 7.73769 45.3448 7.73769C45.3448 7.73769 47.9311 3.95494 51.8966 4.64271C55.8621 5.33048 57.4138 11.5204 65.5173 11.5204C73.6207 11.5204 74.3104 3.95494 74.3104 3.95494Z" fill="url(#paint0_linear_1915_4013)"/>
<path d="M64.6552 15.4752C64.6552 15.4752 62.2414 19.086 58.1035 18.3982C53.9656 17.7105 53.2759 11.5205 45.8621 11.5205C36.7242 11.5205 35.6897 19.258 35.6897 19.258C35.6897 19.258 38.2759 15.4752 42.2414 16.163C46.0345 16.8507 47.7587 23.0407 55.8621 23.0407C63.9656 23.0407 64.6552 15.4752 64.6552 15.4752Z" fill="url(#paint1_linear_1915_4013)"/>
</g>
<defs>
<linearGradient id="paint0_linear_1915_4013" x1="45.2638" y1="5.76034" x2="74.2948" y2="5.76034" gradientUnits="userSpaceOnUse">
<stop stop-color="#45A9B3"/>
<stop offset="0.389" stop-color="#3FAEB0"/>
<stop offset="1" stop-color="#2CBBAB"/>
</linearGradient>
<linearGradient id="paint1_linear_1915_4013" x1="35.5552" y1="17.2806" x2="64.5845" y2="17.2806" gradientUnits="userSpaceOnUse">
<stop stop-color="#45A9B3"/>
<stop offset="0.389" stop-color="#3FAEB0"/>
<stop offset="1" stop-color="#2CBBAB"/>
</linearGradient>
<clipPath id="clip0_1915_4013">
<rect width="110" height="38" fill="white"/>
</clipPath>
</defs>
</svg>
