<svg width="50" height="45" viewBox="0 0 50 45" fill="none" xmlns="http://www.w3.org/2000/svg">
<path d="M41.11 14.5705C40.5913 14.39 40.0539 14.2193 39.5005 14.0579C39.5914 13.6828 39.6749 13.3125 39.7491 12.9485C40.9675 6.97202 40.1709 2.15729 37.4506 0.572071C34.8423 -0.94794 30.5764 0.636915 26.2682 4.42575C25.8539 4.79008 25.4384 5.17581 25.0231 5.58008C24.7464 5.31261 24.4702 5.05413 24.1946 4.80689C19.6794 0.755631 15.1536 -0.951628 12.4361 0.638174C9.83015 2.16259 9.05844 6.6889 10.1552 12.3529C10.2611 12.9 10.3849 13.4587 10.5249 14.0267C9.88435 14.2104 9.26599 14.4063 8.67432 14.6147C3.38073 16.4797 0 19.4026 0 22.4345C0 25.5658 3.62921 28.7065 9.1429 30.6109C9.57802 30.7612 10.0295 30.9033 10.4948 31.0382C10.3438 31.6526 10.2124 32.2546 10.1021 32.8418C9.05639 38.4075 9.87305 42.8269 12.472 44.3417C15.1565 45.906 19.6618 44.298 24.0489 40.4229C24.3956 40.1166 24.7436 39.7917 25.0922 39.4512C25.5441 39.8909 25.9952 40.307 26.4439 40.6974C30.6933 44.3926 34.8902 45.8847 37.4868 44.3657C40.1686 42.7968 41.0402 38.0494 39.9086 32.2733C39.8222 31.8322 39.7216 31.3815 39.6087 30.9228C39.9251 30.8283 40.2357 30.7307 40.5386 30.6293C46.2706 28.7101 50 25.6076 50 22.4345C50 19.3917 46.5102 16.449 41.11 14.5705ZM39.8668 28.5804C39.5934 28.6719 39.3129 28.7603 39.027 28.846C38.3942 26.8216 37.5402 24.669 36.4951 22.445C37.4924 20.2739 38.3134 18.1488 38.9285 16.1376C39.44 16.2872 39.9364 16.4449 40.4148 16.6114C45.0417 18.221 47.864 20.6008 47.864 22.4345C47.864 24.3877 44.816 26.9233 39.8668 28.5804ZM37.8132 32.6925C38.3136 35.2466 38.3851 37.5558 38.0536 39.361C37.7558 40.9831 37.157 42.0646 36.4165 42.4977C34.8407 43.4194 31.4711 42.2213 27.8369 39.0611C27.4203 38.6989 27.0007 38.3121 26.5797 37.9027C27.9886 36.3456 29.3967 34.5355 30.7709 32.5251C33.188 32.3084 35.4717 31.954 37.5426 31.4703C37.6446 31.886 37.7352 32.2938 37.8132 32.6925ZM17.0461 42.3384C15.5066 42.8878 14.2805 42.9036 13.5393 42.4717C11.9621 41.5525 11.3065 38.0041 12.2008 33.2443C12.3033 32.6992 12.4252 32.1393 12.5657 31.5669C14.614 32.0246 16.8809 32.354 19.3038 32.5525C20.6873 34.5196 22.136 36.3278 23.5959 37.911C23.277 38.2222 22.9592 38.5185 22.6433 38.7976C20.7034 40.5112 18.7594 41.7269 17.0461 42.3384ZM9.83371 28.5685C7.39567 27.7264 5.38223 26.632 4.00212 25.4377C2.76201 24.3645 2.13589 23.299 2.13589 22.4345C2.13589 20.5946 4.85029 18.2479 9.37741 16.6529C9.92672 16.4594 10.5017 16.277 11.0985 16.1057C11.7241 18.1623 12.5449 20.3126 13.5354 22.487C12.5321 24.6937 11.6997 26.8782 11.0679 28.959C10.6425 28.8354 10.2303 28.7054 9.83371 28.5685ZM12.2514 11.9384C11.3117 7.08561 11.9358 3.42485 13.5062 2.50624C15.1789 1.52764 18.8778 2.92291 22.7764 6.42098C23.0256 6.64456 23.2757 6.87857 23.5266 7.12068C22.0739 8.69699 20.6384 10.4916 19.2672 12.4472C16.9157 12.6674 14.6647 13.0212 12.5951 13.495C12.465 12.9661 12.3497 12.4464 12.2514 11.9384ZM33.8191 17.3201C33.3244 16.4565 32.8165 15.6134 32.2987 14.7932C33.894 14.997 35.4224 15.2675 36.8578 15.5986C36.4269 16.9942 35.8898 18.4534 35.2575 19.9494C34.804 19.0792 34.3243 18.2019 33.8191 17.3201ZM25.0239 8.66327C26.0091 9.74187 26.9957 10.9461 27.9662 12.2527C26.9882 12.206 25.9982 12.1817 25 12.1817C24.0112 12.1817 23.0285 12.2055 22.0566 12.2514C23.028 10.9569 24.0232 9.75428 25.0239 8.66327ZM16.1722 17.335C15.678 18.201 15.2072 19.0736 14.7608 19.9477C14.1388 18.457 13.6067 16.9912 13.172 15.5758C14.5986 15.2532 16.1198 14.9894 17.705 14.7894C17.1799 15.6171 16.6678 16.4667 16.1722 17.335ZM17.7506 30.2335C16.1129 30.0488 14.5687 29.7986 13.1425 29.4849C13.5841 28.0442 14.128 26.5471 14.7632 25.0243C15.2108 25.8978 15.6835 26.7707 16.1807 27.6386C16.6872 28.5228 17.212 29.3889 17.7506 30.2335ZM25.0829 36.3578C24.0706 35.2541 23.0608 34.0331 22.0746 32.7197C23.032 32.7577 24.008 32.7771 25 32.7771C26.0191 32.7771 27.0266 32.7539 28.0182 32.7093C27.0446 34.0463 26.0615 35.2692 25.0829 36.3578ZM35.2779 24.9467C35.9462 26.4859 36.5096 27.9753 36.9569 29.3914C35.5072 29.7256 33.9419 29.9948 32.2928 30.1948C32.8118 29.3636 33.3242 28.506 33.8277 27.6238C34.337 26.7313 34.8206 25.8374 35.2779 24.9467ZM31.9775 26.5455C31.1959 27.9149 30.3934 29.2222 29.5788 30.4562C28.0951 30.5634 26.5623 30.6187 25 30.6187C23.444 30.6187 21.9305 30.5698 20.473 30.4742C19.6256 29.224 18.8057 27.9128 18.0291 26.5572C17.2546 25.2053 16.5419 23.842 15.8959 22.4863C16.5417 21.1274 17.2527 19.7626 18.0228 18.4131L18.0226 18.4133C18.7948 17.0602 19.6074 15.7555 20.4471 14.5131C21.9341 14.3995 23.4589 14.3402 24.9999 14.3402C26.5479 14.3402 28.0747 14.3999 29.5613 14.5145C30.3881 15.7478 31.1952 17.0484 31.9704 18.4016C32.7544 19.7701 33.4746 21.1259 34.1259 22.4556C33.4766 23.8082 32.758 25.1776 31.9775 26.5455ZM36.3837 2.44202C38.0581 3.41774 38.7092 7.35281 37.6572 12.5129C37.5901 12.8422 37.5146 13.1775 37.4325 13.5174C35.3581 13.0337 33.1055 12.6738 30.7471 12.4502C29.3732 10.4731 27.9495 8.67577 26.5205 7.11969C26.9047 6.74619 27.2884 6.39004 27.6704 6.05395C31.3618 2.8077 34.8118 1.52602 36.3837 2.44202ZM25 17.9226C27.4658 17.9226 29.4648 19.9426 29.4648 22.4345C29.4648 24.9262 27.4658 26.9463 25 26.9463C22.5342 26.9463 20.5352 24.9262 20.5352 22.4345C20.5352 19.9426 22.5342 17.9226 25 17.9226Z" fill="#257BC2"/>
</svg>
