<svg width="48" height="48" viewBox="0 0 48 48" fill="none" xmlns="http://www.w3.org/2000/svg">
<g clip-path="url(#clip0_1915_4006)">
<path d="M12.0716 36.7324C11.9309 36.7322 11.7933 36.7734 11.676 36.8509C11.5563 36.93 11.4468 37.0665 11.4468 37.2413C11.4468 37.2645 11.4333 37.3163 11.4783 37.4063L11.4667 37.3778L13.8705 45.1767C13.9136 45.3229 14.0167 45.4347 14.133 45.4992C14.2492 45.5637 14.376 45.5873 14.4997 45.5873C14.7622 45.5873 15.051 45.462 15.1391 45.1793V45.1785L17.5406 37.3504V37.3219C17.5406 37.3617 17.5522 37.3388 17.5522 37.2533C17.5522 37.0752 17.4386 36.9443 17.3171 36.8622C17.1955 36.7786 17.0517 36.7334 16.9042 36.7324C16.7205 36.7324 16.5097 36.8438 16.4392 37.056L16.4377 37.0583L14.499 43.5285L12.5527 37.0699C12.5238 36.9544 12.4462 36.858 12.3558 36.804C12.2655 36.75 12.1668 36.7324 12.0716 36.7324ZM31.2172 37.1344C30.8347 37.1344 30.5122 37.4277 30.5122 37.7944C30.5122 38.1612 30.8295 38.4645 31.2172 38.4645C31.5975 38.4645 31.8997 38.1555 31.8997 37.7944C31.8997 37.4333 31.5922 37.1344 31.2172 37.1344ZM25.5813 39.6312C24.2733 39.6312 23.196 40.6782 23.196 41.9363V43.2255C23.196 43.9302 23.4765 44.5343 23.9535 44.9509C24.4297 45.3679 25.095 45.5985 25.8573 45.5985C26.4206 45.5985 26.88 45.4722 27.2081 45.3012C27.3723 45.2153 27.5043 45.1193 27.6015 45.0147C27.699 44.9097 27.7702 44.7953 27.7702 44.652C27.7702 44.5208 27.72 44.4068 27.6378 44.3044C27.5561 44.202 27.4271 44.1079 27.2606 44.1079C27.1406 44.1079 27.0483 44.1585 26.9685 44.2077C26.8886 44.2564 26.8136 44.3108 26.7232 44.3629C26.5425 44.4668 26.3032 44.568 25.8802 44.568C25.4092 44.568 25.017 44.4338 24.7462 44.208C24.4762 43.983 24.3187 43.6699 24.3187 43.2597V43.0212H26.7318C26.9895 43.0212 27.2756 43.0212 27.5231 42.8637C27.7706 42.7054 27.9206 42.3912 27.9206 41.9138C27.9206 40.59 26.8166 39.6312 25.5813 39.6312ZM34.6511 39.6312C33.9558 39.6312 33.4443 39.8562 33.1158 40.1944C32.7873 40.5327 32.6456 40.9729 32.6456 41.3839C32.6456 41.9082 32.8575 42.2839 33.1605 42.5243C33.4638 42.7654 33.8411 42.8865 34.2 42.9945C34.5588 43.1029 34.9023 43.1989 35.133 43.341C35.3636 43.4835 35.4873 43.6369 35.4873 43.9613C35.4873 44.1357 35.4348 44.2744 35.2935 44.3877C35.1517 44.5013 34.8997 44.5905 34.4898 44.5905C34.005 44.5905 33.7338 44.4709 33.5362 44.349C33.4376 44.2879 33.3581 44.2245 33.2763 44.1679C33.1946 44.1113 33.1016 44.0502 32.9715 44.0502C32.8151 44.0502 32.6996 44.1465 32.6295 44.2463C32.5584 44.3441 32.5197 44.4618 32.5188 44.5827C32.5188 44.7345 32.5931 44.868 32.6977 44.9839C32.8027 45.0998 32.9441 45.2029 33.1181 45.2929C33.4657 45.4729 33.9446 45.5985 34.5131 45.5985C35.1307 45.5985 35.6385 45.4478 35.9981 45.1553C36.3573 44.8628 36.5531 44.4282 36.5531 43.9272C36.5531 43.3609 36.3472 42.954 36.0442 42.6848C35.7408 42.4159 35.358 42.2772 34.9938 42.1654C34.6297 42.054 34.2791 41.967 34.0447 41.8448C33.81 41.7225 33.6997 41.6097 33.6997 41.3498C33.6997 41.2092 33.756 41.0322 33.8988 40.8923C34.0417 40.7532 34.275 40.6399 34.6627 40.6399C34.9725 40.6399 35.2027 40.7112 35.3872 40.7862C35.4795 40.824 35.5597 40.8634 35.6355 40.8964C35.7116 40.929 35.7817 40.9613 35.8822 40.9613C36.0641 40.9613 36.189 40.8413 36.2632 40.7299C36.3375 40.6185 36.3802 40.5087 36.3802 40.3827C36.3802 40.2252 36.2823 40.1134 36.174 40.0302C36.0656 39.9469 35.9291 39.8794 35.7716 39.8217C35.4566 39.7062 35.0546 39.6312 34.6511 39.6312ZM18.2047 39.7009C17.9006 39.7009 17.6377 39.8918 17.6377 40.1757V43.248C17.6377 44.4945 18.6975 45.5985 20.0115 45.5985C21.3037 45.5985 22.3852 44.5073 22.3852 43.248V40.1644C22.3852 40.0227 22.3072 39.8993 22.2045 39.8209C22.1017 39.7429 21.9712 39.7009 21.8295 39.7009C21.6877 39.7009 21.5565 39.7422 21.4515 39.819C21.3465 39.8955 21.2625 40.0178 21.2625 40.1644V43.248C21.2625 43.9013 20.6932 44.5335 20.0115 44.5335C19.3188 44.5335 18.7608 43.89 18.7608 43.248V40.1757C18.7608 40.0283 18.6802 39.915 18.5808 39.8344C18.4815 39.7538 18.3502 39.7009 18.2047 39.7009ZM31.2176 39.7009C31.0751 39.7009 30.9438 39.7377 30.8388 39.8168C30.7338 39.8955 30.6626 40.026 30.6626 40.1644V45.8254C30.6626 46.2503 30.6326 46.6065 30.5392 46.8225C30.4462 47.0382 30.336 47.1338 30.0217 47.1338C29.7438 47.1338 29.5117 47.3764 29.5117 47.667C29.5117 47.7874 29.5507 47.9202 29.6493 48.0233C29.748 48.1264 29.9013 48.1875 30.0787 48.1875C30.6765 48.1875 31.134 47.9224 31.4062 47.4919C31.6792 47.061 31.785 46.485 31.785 45.8254V40.1644C31.785 40.017 31.701 39.8888 31.5937 39.813C31.483 39.7376 31.3516 39.6984 31.2176 39.7009ZM25.5697 40.6283C26.3163 40.6283 26.8207 41.2534 26.8207 41.8902C26.8207 41.9595 26.8132 42.0049 26.8057 42.0255C26.799 42.0462 26.7997 42.0435 26.7892 42.0507C26.7686 42.0642 26.6531 42.0938 26.4326 42.0938H24.3187V41.844C24.3187 41.1777 24.8756 40.6283 25.5697 40.6283ZM29.1367 44.142C28.7287 44.142 28.4197 44.4795 28.4197 44.8703C28.4197 45.2453 28.7242 45.5873 29.1367 45.5873C29.5275 45.5873 29.8417 45.2558 29.8417 44.8703C29.8417 44.4702 29.5222 44.142 29.1367 44.142Z" fill="#35495E"/>
<path d="M11.7765 0.147705L19.1749 0.149955L24.0109 8.17758L28.83 0.15108L36.222 0.149205L24.048 21.2662L11.7765 0.147705Z" fill="#35495E"/>
<path d="M3.70764 0.20392L11.7701 0.14917L24.0409 21.2673L36.2156 0.150295L44.292 0.15892L24.0394 34.9154L3.70764 0.20392Z" fill="#41B883"/>
</g>
<defs>
<clipPath id="clip0_1915_4006">
<rect width="48" height="48" fill="white"/>
</clipPath>
</defs>
</svg>
