<svg width="100" height="41" viewBox="0 0 100 41" fill="none" xmlns="http://www.w3.org/2000/svg">
<g clip-path="url(#clip0_1915_4021)">
<path d="M99.9454 28.1807C99.7026 25.8328 97.9727 24.7859 96.3491 24.7859C95.6055 24.7859 95.0137 24.9953 94.7861 25.085L94.4674 25.2196L94.1943 25.414C93.8149 25.6982 93.1472 26.087 92.5554 26.2964C92.5251 25.8178 92.5403 25.2047 92.6161 24.6962L92.6313 24.6065C93.0714 20.4789 92.1912 18.0711 90.0213 17.4579C89.6571 17.3533 89.2777 17.3084 88.8984 17.3084C87.5782 17.3084 86.4097 17.9365 85.651 18.4749C85.0137 17.6823 83.9515 17.2336 82.6161 17.2336C80.6283 17.2336 79.0349 18.1459 78.4583 19.6115C78.3976 19.761 78.3217 19.9853 78.2307 20.2845C77.0623 17.7421 74.6799 16.77 72.4644 16.77C70.3703 16.77 68.3369 17.5776 67.5782 18.1459C67.5478 18.1758 67.5023 18.1907 67.4568 18.2356C65.4689 19.6264 63.9211 21.3762 62.8286 23.4848C62.2975 21.6603 61.129 19.9554 59.0349 18.6693L59.0046 18.6394C58.9439 18.6095 58.8984 18.5796 58.8377 18.5497C60.8862 14.9604 62.7072 10.2047 61.6146 5.67334C60.4613 0.842844 57.5782 0.125 55.9545 0.125C55.2868 0.125 54.604 0.244641 53.906 0.483922L53.8604 0.498877L53.8149 0.513832C50.7648 1.69528 49.4295 3.47494 49.1412 3.89368C48.8377 4.34233 45.4993 9.33733 44.695 16.6504C44.604 17.4579 44.5129 18.2954 44.4219 19.1329C43.9515 18.4749 43.1776 17.8767 41.9484 17.5028C41.5691 17.3832 41.1745 17.3383 40.78 17.3383C39.0956 17.3383 37.7299 18.3552 37.0016 19.0282L36.9864 19.0133C36.3491 18.0861 35.3324 17.5327 34.2094 17.4879H33.9363C32.1457 17.4879 30.7193 18.2655 29.6723 19.1479C29.0046 17.9963 27.7755 17.2785 26.3339 17.2785C26.2125 17.2785 26.1063 17.2785 26 17.2934H25.7572C23.7694 17.2934 22.2064 18.2206 21.5691 19.761C21.5236 19.8807 21.4629 20.0302 21.4022 20.2246C19.8392 18.3104 17.8513 17.4131 15.1806 17.4131H14.9227C13.2535 17.443 9.09564 18.1309 6.54632 23.7839C6.15179 24.6513 5.84829 25.5337 5.62068 26.4011C5.05922 26.1468 4.54329 26.087 4.16392 26.087C2.82857 26.087 1.82705 26.8348 1.34147 27.5377C0.946929 28.106 -0.312555 30.1249 0.3096 32.099C0.643439 33.1608 1.41734 33.9683 2.5099 34.3871C3.4659 34.761 4.67986 35.1199 5.59033 35.3741C6.15178 36.6304 7.1533 38.081 8.92872 39.412C10.1882 40.3542 11.7967 40.8327 13.6935 40.8327C16.8802 40.8327 19.9606 39.4718 20.2944 39.3223L20.4158 39.2625L20.4462 39.2325C21.0532 39.8607 21.8574 40.3093 22.8741 40.5037C23.1776 40.5635 23.5721 40.6084 24.0274 40.6084C25.7572 40.6084 26.956 39.741 28.0638 38.1109C28.9742 39.5167 30.6283 40.3093 32.5858 40.3093H32.601C32.7072 40.3093 32.8134 40.3841 32.9348 40.3841C33.9667 40.3841 35.2565 40.0252 36.3339 38.3203C37.2292 39.9055 38.868 40.8178 40.8104 40.8178C42.5403 40.8178 44.0425 40.1149 44.3157 39.9803L44.3764 39.9504C44.953 39.6513 45.4386 39.3821 45.8179 39.1727C47.1078 39.8457 49.0653 40.5935 51.4629 40.5935C51.8726 40.5935 52.2823 40.5785 52.692 40.5336L52.7982 40.5187L52.9044 40.5037C57.9879 39.5167 61.2959 38.3203 63.2686 37.408C64.6495 38.9334 66.8498 40.399 69.9909 40.6234C70.34 40.6533 70.7041 40.6682 71.0531 40.6682C73.6328 40.6682 75.6965 39.9504 77.214 39.1578C77.6996 39.6662 78.3066 40.1298 79.0956 40.4439C79.566 40.6383 80.0516 40.728 80.5524 40.728C83.7087 40.728 85.1806 37.0192 85.5903 35.763L86.3491 33.759C87.0167 34.4619 87.8665 35.0302 88.9439 35.3293C89.5357 35.4938 90.173 35.5835 90.8255 35.5835C94.3005 35.5835 97.6389 33.1608 98.17 32.757C99.126 31.9793 100.173 30.3791 99.9454 28.1807Z" fill="white"/>
<path d="M68.1108 29.1942C68.1108 29.1942 67.6708 27.6688 69.3096 24.7226C70.9333 21.7914 72.208 23.3916 72.208 23.3916C72.208 23.3916 73.604 24.8871 72.0107 27.1154C70.4174 29.3587 68.1108 29.1942 68.1108 29.1942ZM55.5919 31.3178C53.7254 36.1333 49.1882 34.1742 49.1882 34.1742C49.1882 34.1742 48.6723 32.4544 50.1442 27.6239C51.6162 22.8084 55.0759 24.6927 55.0759 24.6927C55.0759 24.6927 57.4583 26.5023 55.5919 31.3178ZM52.208 11.1434C52.208 11.1434 55.0304 3.89018 55.7133 7.41958C56.3961 10.949 49.7952 21.4474 49.7952 21.4474C49.8559 19.0845 52.208 11.1434 52.208 11.1434ZM11.8438 29.1942C11.9652 24.5282 15.0608 22.4943 16.1382 23.5112C17.2155 24.5282 16.821 26.7266 14.7876 28.1025C12.7694 29.4783 11.8438 29.1942 11.8438 29.1942ZM97.3673 28.4315C97.2155 26.8612 95.774 27.4444 95.774 27.4444C95.774 27.4444 93.4674 29.2091 91.4341 29.0147C89.4158 28.8053 90.0532 24.3487 90.0532 24.3487C90.0532 24.3487 90.4932 20.251 89.2945 19.9071C88.0957 19.5631 86.6237 20.9689 86.6237 20.9689C86.6237 20.9689 84.7876 22.9729 83.9227 25.5152L83.6799 25.59C83.6799 25.59 83.953 21.1184 83.6344 20.1015C83.3916 19.593 81.2064 19.6379 80.8574 20.5352C80.4932 21.4325 78.7482 27.6987 78.6268 30.3308C78.6268 30.3308 75.2125 33.1872 72.2231 33.6657C69.2338 34.1294 68.5206 32.2899 68.5206 32.2899C68.5206 32.2899 76.6389 30.0616 76.3506 23.6758C76.0775 17.2899 69.8104 19.6528 69.0972 20.1763C68.4143 20.6847 64.7573 22.8532 63.6799 28.8801C63.6495 29.0895 63.5737 29.9868 63.5737 29.9868C63.5737 29.9868 60.4325 32.0656 58.6875 32.6189C58.6875 32.6189 63.5737 24.5132 57.6101 20.8193C54.909 19.2191 52.7542 22.584 52.7542 22.584C52.7542 22.584 60.8271 13.7306 59.0365 6.23813C58.1867 2.67882 56.381 2.28999 54.7118 2.87323C52.1928 3.86027 51.2368 5.29596 51.2368 5.29596C51.2368 5.29596 47.9743 9.96194 47.2155 16.9011C46.4568 23.8403 45.3491 32.2151 45.3491 32.2151C45.3491 32.2151 43.8013 33.7106 42.3749 33.7854C40.9485 33.8602 41.5858 29.598 41.5858 29.598C41.5858 29.598 42.6935 23.0925 42.6177 22.0008C42.5418 20.9091 42.4659 20.3109 41.1457 19.922C39.8407 19.5332 38.3992 21.1783 38.3992 21.1783C38.3992 21.1783 34.6207 26.8163 34.302 27.6837L34.1048 28.0426L33.9075 27.8034C33.9075 27.8034 36.5782 20.1164 34.0289 20.0118C31.4796 19.8921 29.8104 22.7485 29.8104 22.7485C29.8104 22.7485 26.9121 27.5342 26.7907 28.0725L26.5934 27.8333C26.5934 27.8333 27.7922 22.27 27.5494 20.8941C27.3066 19.5182 26.0016 19.8024 26.0016 19.8024C26.0016 19.8024 24.3324 19.608 23.8923 20.6698C23.4523 21.7316 21.8589 28.7455 21.6617 30.9738C21.6617 30.9738 17.4887 33.92 14.7421 33.9499C11.9955 33.9948 12.2838 32.2301 12.2838 32.2301C12.2838 32.2301 22.3445 28.8353 19.5979 22.1354C18.3688 20.4155 16.9272 19.8772 14.909 19.9071C12.8756 19.9519 10.4932 21.1633 8.85439 24.7675C8.08049 26.4873 7.76183 28.1174 7.76183 29.3587C7.76183 29.3587 5.88019 29.7176 4.9242 28.925C3.9682 28.1473 3.42192 28.925 3.42192 28.925C3.42192 28.925 1.75273 31.2729 3.3764 31.901C5.00007 32.5292 7.51904 33.1124 7.51904 33.1124C7.74666 34.1294 8.42951 35.7894 10.4174 37.2699C13.3916 39.4982 19.1275 36.926 19.1275 36.926L21.4796 35.5501C21.4796 35.5501 21.5555 37.6288 23.2702 37.9429C24.9849 38.257 25.6981 37.913 28.6723 30.7944C30.4174 27.1453 30.5388 27.3398 30.5388 27.3398L30.736 27.2949C30.736 27.2949 29.3855 34.264 29.9014 36.1483C30.4174 38.0326 32.6784 37.8382 32.6784 37.8382C32.6784 37.8382 33.9075 38.2719 34.909 34.8173C35.9105 31.3627 37.8074 27.7585 37.8074 27.7585H38.0501C38.0501 27.7585 37.2155 34.6977 38.4902 36.9708C39.7649 39.244 43.0577 37.6438 43.0577 37.6438C43.0577 37.6438 45.3643 36.4474 45.7284 36.0885C45.7284 36.0885 48.4599 38.3616 52.3294 37.9429C60.9637 36.2679 64.0289 33.9948 64.0289 33.9948C64.0289 33.9948 65.516 37.6887 70.0987 38.0326C75.3491 38.4215 78.2171 35.1613 78.2171 35.1613C78.2171 35.1613 78.1715 37.2699 80.0077 38.0177C81.8438 38.7654 83.0729 34.8173 83.0729 34.8173L86.1382 26.7266H86.4113C86.4113 26.7266 86.563 31.9011 89.5979 32.7684C92.648 33.6209 96.5782 30.6299 96.5782 30.6299C96.5782 30.6299 97.5342 30.0018 97.3673 28.4315Z" fill="#E24B31"/>
</g>
<defs>
<clipPath id="clip0_1915_4021">
<rect width="100" height="41" fill="white"/>
</clipPath>
</defs>
</svg>
