<?xml version="1.0" standalone="no"?>
<!DOCTYPE svg PUBLIC "-//W3C//DTD SVG 1.1//EN" "http://www.w3.org/Graphics/SVG/1.1/DTD/svg11.dtd" >
<svg xmlns="http://www.w3.org/2000/svg" xmlns:xlink="http://www.w3.org/1999/xlink" version="1.1">
<metadata>
Created by FontForge 20201107 at Fri Oct  3 17:14:32 2025
 By 
Copyright (c) 2020 CoType Foundry. All Rights Reserved.
</metadata>
<defs>
<font id="AeonikPro-Light" horiz-adv-x="1083" >
  <font-face 
    font-family="Aeonik Pro Light"
    font-weight="300"
    font-stretch="normal"
    units-per-em="2048"
    panose-1="2 11 4 3 3 3 0 0 0 0"
    ascent="1536"
    descent="-512"
    x-height="1038"
    cap-height="1434"
    bbox="-721 -422 4450 1835"
    underline-thickness="77"
    underline-position="-408"
    unicode-range="U+000D-1F10C"
  />
<missing-glyph horiz-adv-x="1269" 
d="M123 -223v1698h1024v-1698h-1024zM444 1294q-84 0 -129 -49t-45 -135t45 -135t129 -49q66 0 106.5 38t45.5 99h-94q-13 -59 -62 -59q-71 0 -71 106q0 107 71 107q48 0 62 -62h94q-5 63 -45.5 101t-106.5 38zM807 1294q-81 0 -129.5 -52t-48.5 -132q0 -81 48 -132.5
t130 -51.5q81 0 129.5 51.5t48.5 132.5q0 80 -49 132t-129 52zM807 1004q-39 0 -59.5 29.5t-20.5 76.5q0 48 21 77.5t59 29.5t59 -29.5t21 -77.5q0 -47 -20.5 -76.5t-59.5 -29.5zM590 819h-299v-82h100v-282h96v282h103v82zM854 455v135l131 229h-106l-72 -133l-68 133h-112
l131 -229v-135h96zM416 94h57q62 0 99.5 34t37.5 91q0 58 -37.5 92.5t-99.5 34.5h-151v-364h94v112zM692 -18h256v81h-160v64h123v76h-123v61h154v82h-250v-364zM416 268h49q22 0 35.5 -13t13.5 -36q0 -22 -13.5 -34.5t-35.5 -12.5h-49v96z" />
    <glyph glyph-name="fi" unicode="fi" horiz-adv-x="976" 
d="M305 1038h549v-1038h-104v942h-445v-942h-104v942h-197v96h197v154q0 126 57 184t186 58h154v-97h-149q-78 0 -111 -33t-33 -110v-156zM803 1405q32 0 53 -21t21 -53t-21 -53t-53 -21q-31 0 -52.5 21t-21.5 53t21.5 53t52.5 21z" />
    <glyph glyph-name="f_f.liga" unicode="ff" horiz-adv-x="1171" 
d="M1167 1337h-170q-78 0 -110.5 -33t-32.5 -110v-156h311v-96h-311v-942h-104v942h-445v-942h-104v942h-197v96h197v154q0 126 57 184t186 58h154v-97h-149q-78 0 -111 -33t-33 -110v-156h445v154q0 126 56.5 184t184.5 58h176v-97z" />
    <glyph glyph-name="f_f_i.liga" unicode="ffi" horiz-adv-x="1533" 
d="M862 1038h549v-1038h-104v942h-445v-942h-104v942h-453v-942h-104v942h-197v96h197v154q0 126 57 184t186 58h154v-97h-149q-78 0 -111 -33t-33 -110v-156h453v154q0 126 56.5 184t184.5 58h156v-97h-149q-78 0 -111 -33t-33 -110v-156zM1360 1405q31 0 52.5 -21
t21.5 -53t-21.5 -53t-52.5 -21t-52.5 21t-21.5 53t21.5 53t52.5 21z" />
    <glyph glyph-name="f_f_t.liga" unicode="fft" horiz-adv-x="1742" 
d="M1552 96h152v-96h-156q-130 0 -186.5 58t-56.5 184v700h-443v-942h-104v942h-453v-942h-104v942h-197v96h197v154q0 126 57 184t186 58h154v-97h-149q-78 0 -111 -33t-33 -110v-156h453v154q0 126 56.5 184t184.5 58h150v-97h-143q-78 0 -111 -33t-33 -110v-156h443v291
h104v-291h277v-96h-277v-698q0 -80 32.5 -114t110.5 -34z" />
    <glyph glyph-name="f_t.liga" unicode="ft" horiz-adv-x="1185" 
d="M997 96h152v-96h-158q-130 0 -186.5 58t-56.5 184v700h-443v-942h-104v942h-197v96h197v154q0 126 57 184t186 58h148v-97h-143q-78 0 -111 -33t-33 -110v-156h443v291h104v-291h276v-96h-276v-698q0 -80 33.5 -114t111.5 -34z" />
    <glyph glyph-name="t_t.liga" unicode="tt" horiz-adv-x="1191" 
d="M1001 96h152v-96h-158q-130 0 -185.5 57.5t-55.5 184.5v700h-449v-698q0 -80 33 -114t111 -34h124v-96h-129q-130 0 -186.5 58t-56.5 184v700h-197v96h197v291h104v-291h449v291h104v-291h277v-96h-277v-698q0 -80 32.5 -114t110.5 -34z" />
    <glyph glyph-name=".notdef" horiz-adv-x="1269" 
d="M123 -223v1698h1024v-1698h-1024zM444 1294q-84 0 -129 -49t-45 -135t45 -135t129 -49q66 0 106.5 38t45.5 99h-94q-13 -59 -62 -59q-71 0 -71 106q0 107 71 107q48 0 62 -62h94q-5 63 -45.5 101t-106.5 38zM807 1294q-81 0 -129.5 -52t-48.5 -132q0 -81 48 -132.5
t130 -51.5q81 0 129.5 51.5t48.5 132.5q0 80 -49 132t-129 52zM807 1004q-39 0 -59.5 29.5t-20.5 76.5q0 48 21 77.5t59 29.5t59 -29.5t21 -77.5q0 -47 -20.5 -76.5t-59.5 -29.5zM590 819h-299v-82h100v-282h96v282h103v82zM854 455v135l131 229h-106l-72 -133l-68 133h-112
l131 -229v-135h96zM416 94h57q62 0 99.5 34t37.5 91q0 58 -37.5 92.5t-99.5 34.5h-151v-364h94v112zM692 -18h256v81h-160v64h123v76h-123v61h154v82h-250v-364zM416 268h49q22 0 35.5 -13t13.5 -36q0 -22 -13.5 -34.5t-35.5 -12.5h-49v96z" />
    <glyph glyph-name=".null" horiz-adv-x="1228" 
 />
    <glyph glyph-name="nonmarkingreturn" horiz-adv-x="682" 
 />
    <glyph glyph-name="CR" unicode="&#xd;" horiz-adv-x="1228" 
 />
    <glyph glyph-name="space" unicode=" " horiz-adv-x="552" 
 />
    <glyph glyph-name="exclam" unicode="!" horiz-adv-x="452" 
d="M268 418h-82l-16 1016h113zM147 68q0 35 22 55t56 20q36 0 58 -20t22 -55t-22.5 -56.5t-57.5 -21.5q-34 0 -56 21.5t-22 56.5z" />
    <glyph glyph-name="quotedbl" unicode="&#x22;" horiz-adv-x="665" 
d="M217 979h-82l-20 387q-2 33 14.5 53.5t46.5 20.5q33 0 49 -20.5t13 -53.5zM530 979h-81l-21 387q-3 33 13 53.5t48 20.5q33 0 48.5 -20t13.5 -54z" />
    <glyph glyph-name="numbersign" unicode="#" horiz-adv-x="1202" 
d="M393 864l60 377h86l-58 -377h310l59 377h88l-59 -377h227v-88h-240l-45 -311h238v-88h-252l-57 -377h-88l57 377h-309l-58 -377h-88l58 377h-226v88h238l47 311h-240v88h252zM778 776h-309l-47 -311h311z" />
    <glyph glyph-name="dollar" unicode="$" horiz-adv-x="1222" 
d="M1126 393q0 -170 -123 -280.5t-327 -122.5v-209h-98v209q-217 12 -345 133.5t-139 316.5h115q11 -160 125 -256t295 -96q175 0 281 79t106 216q0 44 -12.5 80t-32 62.5t-53 48.5t-65.5 36t-81 27.5t-87 21t-95 17.5q-56 10 -98 19t-93 24.5t-88 34t-73.5 47t-59.5 62.5
t-37 81.5t-14 104.5q0 176 122 282.5t329 114.5v209h98v-211q189 -19 303.5 -127.5t128.5 -278.5h-113q-19 141 -123 224.5t-264 83.5q-171 0 -270.5 -76.5t-99.5 -214.5q0 -43 12 -78t30 -60t51 -46t62 -34t78 -25.5t83.5 -19t92.5 -16.5q68 -12 119 -24t110 -32.5
t100.5 -48.5t77.5 -66.5t54 -92t18 -119.5z" />
    <glyph glyph-name="percent" unicode="%" horiz-adv-x="1802" 
d="M127 1102q0 148 98 246t246 98q149 0 247.5 -98t98.5 -246t-98.5 -245t-247.5 -97q-148 0 -246 97t-98 245zM471 0h-102l964 1434h105zM723 1102q0 111 -71.5 184.5t-180.5 73.5q-107 0 -178.5 -74t-71.5 -184t71.5 -183t178.5 -73q109 0 180.5 73t71.5 183zM985 330
q0 148 98.5 246t247.5 98q148 0 246 -98t98 -246t-98 -245t-246 -97q-149 0 -247.5 97t-98.5 245zM1581 330q0 110 -71.5 184t-178.5 74q-109 0 -180.5 -73.5t-71.5 -184.5q0 -110 71.5 -183t180.5 -73q107 0 178.5 73t71.5 183z" />
    <glyph glyph-name="ampersand" unicode="&#x26;" horiz-adv-x="1460" 
d="M1243 94h129v-94h-143q-130 0 -195 78l-100 119q-178 -209 -416 -209q-182 0 -301 96.5t-119 267.5q0 267 351 416q-87 106 -121.5 179.5t-34.5 168.5q0 141 106 235.5t265 94.5q135 0 224 -84.5t89 -212.5q0 -125 -87 -223.5t-286 -182.5l12 -14l320 -375l278 420h111
l-326 -495l103 -119q31 -38 63 -52t78 -14zM655 1356q-112 0 -183 -67.5t-71 -170.5q0 -81 32.5 -145t115.5 -164q169 74 245 154t76 184q0 91 -60 150t-155 59zM520 82q204 0 352 186l-340 402l-30 35q-161 -77 -229 -155t-68 -190q0 -129 88 -203.5t227 -74.5z" />
    <glyph glyph-name="quotesingle" unicode="'" horiz-adv-x="352" 
d="M217 979h-82l-20 387q-2 33 14.5 53.5t46.5 20.5q33 0 49 -20.5t13 -53.5z" />
    <glyph glyph-name="parenleft" unicode="(" horiz-adv-x="575" 
d="M532 -266h-112q-159 212 -231 423.5t-72 456.5q0 242 72.5 455t230.5 426h112q-168 -231 -240.5 -436t-72.5 -445q0 -242 72.5 -446t240.5 -434z" />
    <glyph glyph-name="parenright" unicode=")" horiz-adv-x="575" 
d="M43 1495h115q158 -213 230.5 -425t72.5 -456q0 -242 -72.5 -454.5t-230.5 -425.5h-115q168 231 240.5 435.5t72.5 444.5q0 243 -72 448t-241 433z" />
    <glyph glyph-name="asterisk" unicode="*" horiz-adv-x="819" 
d="M698 1266l29 -74l-260 -100l178 -213l-57 -52l-180 224l-181 -224l-55 52l180 215l-262 100l31 72l254 -111l-4 281h75l-4 -281z" />
    <glyph glyph-name="plus" unicode="+" 
d="M492 633v375h96v-375h358v-88h-358v-375h-96v375h-357v88h357z" />
    <glyph glyph-name="comma" unicode="," horiz-adv-x="376" 
d="M166 143q55 0 91 -49.5t36 -120.5q0 -102 -62.5 -166.5t-167.5 -68.5v61q73 3 113.5 50.5t40.5 111.5q0 35 -18 53q-15 -24 -52 -24q-31 0 -51 19t-20 54q0 34 25 57t65 23z" />
    <glyph glyph-name="hyphen" unicode="-" horiz-adv-x="903" 
d="M782 539h-661v88h661v-88z" />
    <glyph glyph-name="period" unicode="." horiz-adv-x="376" 
d="M111 68q0 35 21.5 55t55.5 20t56 -20t22 -55t-22 -56.5t-56 -21.5t-55.5 21.5t-21.5 56.5z" />
    <glyph glyph-name="slash" unicode="/" horiz-adv-x="700" 
d="M137 -266h-104l579 1761h105z" />
    <glyph glyph-name="zero" unicode="0" horiz-adv-x="1230" 
d="M98 684v66q0 202 64 360.5t182.5 247t271.5 88.5q151 0 269 -88.5t183 -247t65 -360.5v-66q0 -314 -143 -505t-374 -191q-154 0 -271.5 86t-182 244t-64.5 366zM1024 688v57q0 273 -111.5 438t-296.5 165q-186 0 -297.5 -164.5t-111.5 -438.5v-57q0 -274 111.5 -438
t297.5 -164q185 0 296.5 164.5t111.5 437.5z" />
    <glyph glyph-name="one" unicode="1" horiz-adv-x="600" 
d="M344 1251v183h105v-1434h-107v1079q-27 -35 -92 -35h-246v97h246q46 0 70 29.5t24 80.5z" />
    <glyph glyph-name="two" unicode="2" horiz-adv-x="1064" 
d="M43 0v92l557 506q54 49 82 75.5t70.5 75t64 86t38.5 88.5t17 103q0 151 -96 237.5t-260 86.5q-162 0 -257 -97t-95 -264v-28h-107v34q0 203 125.5 327t333.5 124q217 0 341 -112t124 -302q0 -63 -18 -122.5t-42.5 -104t-72 -99t-82.5 -88t-98 -90.5l-478 -430h809v-98
h-956z" />
    <glyph glyph-name="three" unicode="3" horiz-adv-x="1148" 
d="M752 743q136 -21 221.5 -107t85.5 -243q0 -179 -138.5 -292t-361.5 -113q-226 0 -361 115.5t-135 316.5h107q0 -156 109.5 -246t285.5 -90q167 0 276 88t109 227q0 138 -101.5 212.5t-289.5 74.5h-119v92h113q173 0 265.5 82t92.5 213q0 124 -95 200.5t-249 76.5
q-160 0 -261.5 -84t-102.5 -224h-107q1 121 62 213.5t167.5 141.5t241.5 49q207 0 330 -101.5t123 -267.5q0 -136 -71.5 -222.5t-196.5 -111.5z" />
    <glyph glyph-name="four" unicode="4" horiz-adv-x="1157" 
d="M29 377v96l753 961h119v-959h236v-98h-236v-377h-106v377h-766zM795 1300l-645 -825h645v825z" />
    <glyph glyph-name="five" unicode="5" horiz-adv-x="1136" 
d="M600 950q208 0 336.5 -133t128.5 -344q0 -115 -39.5 -208t-107.5 -152t-155 -91t-185 -32q-218 0 -348.5 125t-143.5 313h107q13 -147 115 -244.5t270 -97.5q75 0 142.5 25t120.5 72t84 121.5t31 166.5q0 169 -100.5 276t-269.5 107q-52 0 -104.5 -12t-104 -37t-93 -70.5
t-63.5 -105.5l-102 4l51 801h807v-99h-711l-39 -559q124 174 373 174z" />
    <glyph glyph-name="six" unicode="6" horiz-adv-x="1196" 
d="M203 231q-105 202 -105 486q0 217 58.5 380t178.5 256t288 93q186 0 304.5 -104.5t145.5 -276.5h-106q-28 131 -116 209t-233 78q-105 0 -187 -46.5t-133.5 -129.5t-78 -195t-26.5 -246q0 -94 20 -184q-3 22 4 55q28 151 142.5 242.5t281.5 91.5q211 0 338 -130t127 -345
q0 -209 -132.5 -343t-344.5 -134q-146 0 -254 63t-172 180zM999 465q0 170 -98.5 275.5t-265.5 105.5q-170 0 -275.5 -107t-105.5 -276t103 -275t270 -106q168 0 270 106.5t102 276.5z" />
    <glyph glyph-name="seven" unicode="7" horiz-adv-x="1017" 
d="M12 1335v99h983v-78l-727 -1356h-116l727 1335h-867z" />
    <glyph glyph-name="eight" unicode="8" horiz-adv-x="1196" 
d="M772 739q147 -26 238.5 -122.5t91.5 -241.5q0 -171 -138 -279t-366 -108t-366 108t-138 279q0 144 91.5 240.5t238.5 123.5q-127 22 -207 113t-80 221q0 165 126.5 269t334.5 104t334.5 -104t126.5 -269q0 -129 -80.5 -220.5t-206.5 -113.5zM246 1073q0 -125 97.5 -202.5
t254.5 -77.5t254.5 77.5t97.5 202.5t-97 203t-255 78t-255 -78t-97 -203zM598 80q173 0 283 84.5t110 218.5q0 132 -110 217.5t-283 85.5q-174 0 -283.5 -85t-109.5 -218q0 -134 110 -218.5t283 -84.5z" />
    <glyph glyph-name="nine" unicode="9" horiz-adv-x="1196" 
d="M571 -12q-187 0 -306 104.5t-146 276.5h106q28 -131 116 -209t234 -78q140 0 238.5 81t144.5 217.5t46 317.5q0 90 -21 185q4 -30 -4 -56q-28 -151 -142.5 -242t-281.5 -91q-211 0 -338 130t-127 345q0 209 132.5 343t344.5 134q146 0 253.5 -63.5t172.5 -180.5
q105 -202 105 -485q0 -217 -59 -380t-179.5 -256t-288.5 -93zM561 588q170 0 275.5 107t105.5 276t-103 275t-270 106q-168 0 -270 -106.5t-102 -276.5t98.5 -275.5t265.5 -105.5z" />
    <glyph glyph-name="colon" unicode=":" horiz-adv-x="376" 
d="M111 870q0 35 21.5 56.5t55.5 21.5t56 -21.5t22 -56.5q0 -33 -22 -54t-56 -21t-55.5 20.5t-21.5 54.5zM111 68q0 35 21.5 55t55.5 20t56 -20t22 -55t-22 -56.5t-56 -21.5t-55.5 21.5t-21.5 56.5z" />
    <glyph glyph-name="semicolon" unicode=";" horiz-adv-x="376" 
d="M106 870q0 35 22 56.5t56 21.5q35 0 57.5 -21.5t22.5 -56.5q0 -34 -22.5 -54.5t-57.5 -20.5q-34 0 -56 21t-22 54zM166 143q55 0 91 -49.5t36 -120.5q0 -102 -62.5 -166.5t-167.5 -68.5v61q73 3 113.5 50.5t40.5 111.5q0 35 -18 53q-15 -24 -52 -24q-31 0 -51 19t-20 54
q0 34 25 57t65 23z" />
    <glyph glyph-name="less" unicode="&#x3c;" 
d="M922 176l-760 354v103l760 354v-102l-643 -303l643 -301v-105z" />
    <glyph glyph-name="equal" unicode="=" 
d="M926 727h-770v90h770v-90zM926 307h-770v88h770v-88z" />
    <glyph glyph-name="greater" unicode="&#x3e;" 
d="M162 987l760 -354v-103l-760 -354v105l643 301l-643 303v102z" />
    <glyph glyph-name="question" unicode="?" horiz-adv-x="1028" 
d="M190 995h-106q0 196 120.5 323.5t319.5 127.5q185 0 298.5 -98.5t113.5 -249.5q0 -118 -49.5 -196.5t-138.5 -145.5q-8 -6 -33.5 -25t-34 -25.5t-30 -24t-29.5 -26.5t-23.5 -26t-22 -30t-14.5 -31t-11 -36.5t-3 -39.5v-72h-98v82q0 24 3.5 46t8 39.5t15.5 36.5t18.5 32
t24 30t25 26.5t29.5 26.5t30 23.5t33 24.5l32 24q78 59 118.5 122t40.5 154q0 113 -84 187t-217 74q-152 0 -244 -97.5t-92 -255.5zM422 68q0 35 22 55t56 20t56 -20t22 -55t-22 -56.5t-56 -21.5t-56 21.5t-22 56.5z" />
    <glyph glyph-name="at" unicode="@" horiz-adv-x="2013" 
d="M113 508q0 185 74 349.5t199.5 281.5t299 185.5t365.5 68.5q247 0 441 -95t301.5 -264t107.5 -383q0 -156 -54 -282t-148.5 -196.5t-211.5 -70.5q-93 0 -147 51.5t-54 137.5v51q-36 -109 -132 -173.5t-216 -64.5q-158 0 -261.5 109.5t-103.5 278.5q0 127 60 236.5
t160 173t215 63.5q122 0 203 -57t102 -150l28 188h82l-59 -592q-9 -86 27.5 -129t109.5 -43q124 0 211.5 136t87.5 335q0 190 -94 338.5t-265 231t-390 82.5q-238 0 -430.5 -105.5t-300 -287t-107.5 -402.5q0 -341 215 -542t586 -201q137 0 262 35t219 98l-2 -95
q-83 -58 -213.5 -92.5t-273.5 -34.5q-195 0 -361 60t-283 167.5t-183 262.5t-66 340zM1294 604q0 130 -73.5 206.5t-194.5 76.5q-146 0 -250 -116t-104 -275q0 -137 77 -225.5t203 -88.5q149 0 245.5 118t96.5 304z" />
    <glyph glyph-name="A" unicode="A" horiz-adv-x="1306" 
d="M150 0h-115l555 1434h129l553 -1434h-119l-172 438h-659zM651 1311l-297 -770h594z" />
    <glyph glyph-name="B" unicode="B" horiz-adv-x="1241" 
d="M147 0v1434h490q214 0 331 -98.5t117 -270.5q0 -128 -67.5 -210.5t-190.5 -113.5q150 -23 237 -108.5t87 -233.5q0 -189 -129.5 -294t-376.5 -105h-498zM641 1333h-383v-551h383q159 0 246.5 73.5t87.5 203.5q0 129 -87 201.5t-247 72.5zM645 682h-387v-582h387
q190 0 290.5 78t100.5 215q0 140 -102 214.5t-289 74.5z" />
    <glyph glyph-name="C" unicode="C" horiz-adv-x="1429" 
d="M754 -12q-299 0 -478.5 201t-179.5 528q0 324 183 526.5t483 202.5q226 0 380 -119t201 -334h-116q-47 169 -169 259.5t-302 90.5q-163 0 -287.5 -80t-191 -221.5t-66.5 -324.5q0 -278 147.5 -452.5t393.5 -174.5q183 0 304 90t167 262h116q-46 -216 -200 -335t-385 -119
z" />
    <glyph glyph-name="D" unicode="D" horiz-adv-x="1384" 
d="M565 0h-418v1434h418q338 0 529.5 -193.5t191.5 -523.5q0 -329 -191.5 -523t-529.5 -194zM258 1331v-1229h307q290 0 449.5 165t159.5 450q0 286 -159.5 450t-449.5 164h-307z" />
    <glyph glyph-name="E" unicode="E" horiz-adv-x="1118" 
d="M147 0v1434h883v-103h-772v-547h647v-102h-647v-580h799v-102h-910z" />
    <glyph glyph-name="F" unicode="F" horiz-adv-x="1046" 
d="M147 0v1434h852v-103h-741v-567h619v-102h-619v-662h-111z" />
    <glyph glyph-name="G" unicode="G" horiz-adv-x="1513" 
d="M743 -12q-287 0 -467 202.5t-180 526.5q0 214 80.5 379t232 257.5t351.5 92.5q227 0 383 -119.5t200 -333.5h-118q-44 169 -165.5 259.5t-303.5 90.5q-163 0 -287.5 -80t-191 -221.5t-66.5 -324.5q0 -278 147 -452.5t387 -174.5q233 0 372.5 139.5t139.5 354.5v61h-471
v103h578v-748h-96l-6 317q-50 -141 -183.5 -235t-335.5 -94z" />
    <glyph glyph-name="H" unicode="H" horiz-adv-x="1345" 
d="M147 0v1434h111v-652h829v652h111v-1434h-111v680h-829v-680h-111z" />
    <glyph glyph-name="I" unicode="I" horiz-adv-x="405" 
d="M147 0v1434h111v-1434h-111z" />
    <glyph glyph-name="J" unicode="J" horiz-adv-x="694" 
d="M436 307v1127h111v-1135q0 -299 -299 -299h-191v102h176q107 0 155 49.5t48 155.5z" />
    <glyph glyph-name="K" unicode="K" horiz-adv-x="1249" 
d="M147 0v1434h111v-904l793 904h135l-520 -603l567 -831h-133l-516 748l-326 -373v-375h-111z" />
    <glyph glyph-name="L" unicode="L" horiz-adv-x="985" 
d="M944 0h-797v1434h111v-1332h686v-102z" />
    <glyph glyph-name="M" unicode="M" horiz-adv-x="1685" 
d="M147 0v1434h142l557 -1284l553 1284h139v-1434h-108v1247l-537 -1247h-100l-537 1247v-1247h-109z" />
    <glyph glyph-name="N" unicode="N" horiz-adv-x="1355" 
d="M256 0h-109v1434h105l848 -1233v1233h108v-1434h-104l-848 1233v-1233z" />
    <glyph glyph-name="O" unicode="O" horiz-adv-x="1533" 
d="M1436 717q0 -210 -84.5 -376t-237.5 -259.5t-348 -93.5q-194 0 -347 93.5t-238 259.5t-85 376t85 376t238 259.5t347 93.5q195 0 348 -93.5t237.5 -259.5t84.5 -376zM211 717q0 -276 155 -451.5t400 -175.5q163 0 290 80t197 222.5t70 324.5q0 276 -155 451t-402 175
q-162 0 -288.5 -79.5t-196.5 -222t-70 -324.5z" />
    <glyph glyph-name="P" unicode="P" horiz-adv-x="1179" 
d="M147 0v1434h533q203 0 325.5 -115t122.5 -303t-123 -303t-325 -115h-422v-598h-111zM672 1331h-414v-631h412q157 0 251.5 87.5t94.5 228.5q0 142 -93.5 228.5t-250.5 86.5z" />
    <glyph glyph-name="Q" unicode="Q" horiz-adv-x="1538" 
d="M1395 102h102v-102h-115q-75 0 -118 20t-82 76l-15 21q-171 -129 -401 -129q-194 0 -347 93.5t-238 259.5t-85 376t85 376t238 259.5t347 93.5q195 0 348 -93.5t237.5 -259.5t84.5 -376q0 -159 -50.5 -296t-142.5 -235l4 -6q33 -46 64 -62t84 -16zM766 90q197 0 340 115
l-74 104q-32 44 -61.5 61t-71.5 17h-123v102h139q64 0 103 -21t80 -77l80 -112q145 172 145 438q0 276 -155 451t-402 175q-162 0 -288.5 -79.5t-196.5 -222t-70 -324.5q0 -276 155 -451.5t400 -175.5z" />
    <glyph glyph-name="R" unicode="R" horiz-adv-x="1218" 
d="M147 0v1434h531q204 0 327 -114t123 -304q0 -158 -93 -265.5t-251 -132.5l349 -618h-125l-338 598h-412v-598h-111zM672 1331h-414v-631h412q158 0 252 86.5t94 229.5q0 145 -93 230t-251 85z" />
    <glyph glyph-name="S" unicode="S" horiz-adv-x="1222" 
d="M94 440h115q11 -160 125 -256t295 -96q175 0 281 79t106 216q0 44 -12.5 80t-32 62.5t-53 48.5t-65.5 36t-81 27.5t-87 21t-95 17.5q-56 10 -98 19t-93 24.5t-88 34t-73.5 47t-59.5 62.5t-37 81.5t-14 104.5q0 182 131 289.5t350 107.5q218 0 351.5 -111t148.5 -297h-113
q-19 141 -123 224.5t-264 83.5q-171 0 -270.5 -76.5t-99.5 -214.5q0 -43 12 -78t30 -60t51 -46t62 -34t78 -25.5t83.5 -19t92.5 -16.5q68 -12 119 -24t110 -32.5t100.5 -48.5t77.5 -66.5t54 -92t18 -119.5q0 -182 -137 -293.5t-362 -111.5q-238 0 -380 123.5t-153 328.5z
" />
    <glyph glyph-name="T" unicode="T" horiz-adv-x="1175" 
d="M41 1331v103h1094v-103h-492v-1331h-111v1331h-491z" />
    <glyph glyph-name="U" unicode="U" horiz-adv-x="1331" 
d="M141 592v842h111v-848q0 -250 100 -373t312 -123q214 0 314.5 123t100.5 373v848h111v-842q0 -604 -526 -604q-523 0 -523 604z" />
    <glyph glyph-name="V" unicode="V" horiz-adv-x="1251" 
d="M555 0l-537 1434h119l486 -1301l485 1301h115l-535 -1434h-133z" />
    <glyph glyph-name="W" unicode="W" horiz-adv-x="1968" 
d="M481 0l-436 1434h117l383 -1289l387 1289h112l377 -1289l387 1289h115l-438 -1434h-131l-371 1251l-371 -1251h-131z" />
    <glyph glyph-name="X" unicode="X" horiz-adv-x="1218" 
d="M39 0l502 733l-471 701h131l409 -611l410 611h129l-469 -693l500 -741h-131l-443 649l-438 -649h-129z" />
    <glyph glyph-name="Y" unicode="Y" horiz-adv-x="1265" 
d="M578 528l-549 906h129l475 -785l479 785h125l-549 -906v-528h-110v528z" />
    <glyph glyph-name="Z" unicode="Z" horiz-adv-x="1204" 
d="M80 1331v103h1055v-82l-936 -1250h954v-102h-1102v82l934 1249h-905z" />
    <glyph glyph-name="bracketleft" unicode="[" horiz-adv-x="575" 
d="M135 -266v1761h397v-92h-294v-1577h294v-92h-397z" />
    <glyph glyph-name="backslash" unicode="\" horiz-adv-x="811" 
d="M199 1495l579 -1761h-104l-580 1761h105z" />
    <glyph glyph-name="bracketright" unicode="]" horiz-adv-x="575" 
d="M440 1495v-1761h-399v92h297v1577h-297v92h399z" />
    <glyph glyph-name="asciicircum" unicode="^" horiz-adv-x="1040" 
d="M193 795h-95l377 639h88l379 -639h-98l-328 546z" />
    <glyph glyph-name="underscore" unicode="_" horiz-adv-x="1030" 
d="M899 -117h-768v105h768v-105z" />
    <glyph glyph-name="grave" unicode="`" horiz-adv-x="819" 
d="M365 1163l-222 271h123l185 -271h-86z" />
    <glyph glyph-name="a" unicode="a" horiz-adv-x="1091" 
d="M1036 96h39v-96h-61q-92 0 -132.5 42t-37.5 134v37q-51 -104 -150.5 -164.5t-249.5 -60.5q-167 0 -266.5 80t-99.5 217q0 147 105.5 228t303.5 81h353v90q0 130 -79.5 202t-225.5 72q-130 0 -211.5 -56.5t-102.5 -153.5h-104q20 141 132 222t290 81q195 0 300 -96
t105 -275v-483q0 -58 22 -79.5t70 -21.5zM840 420v84h-361q-144 0 -219.5 -55t-75.5 -158q0 -97 72.5 -155t196.5 -58q181 0 284 94.5t103 247.5z" />
    <glyph glyph-name="b" unicode="b" horiz-adv-x="1198" 
d="M625 1051q216 0 352.5 -144.5t136.5 -386.5q0 -235 -137 -383.5t-352 -148.5q-143 0 -246 66.5t-150 181.5l-16 -236h-90v1434h104v-637q52 115 154.5 184.5t243.5 69.5zM616 82q173 0 282.5 122t109.5 316q0 192 -109.5 315t-282.5 123t-282 -122.5t-109 -313.5
q0 -195 109 -317.5t282 -122.5z" />
    <glyph glyph-name="c" unicode="c" horiz-adv-x="1097" 
d="M575 -12q-220 0 -355.5 145.5t-135.5 384.5q0 236 137 384.5t357 148.5q176 0 292 -92t148 -254h-109q-28 118 -116 185.5t-218 67.5q-171 0 -278 -123t-107 -317q0 -193 107.5 -314.5t277.5 -121.5q128 0 217 68t115 184h111q-31 -159 -149 -252.5t-294 -93.5z" />
    <glyph glyph-name="d" unicode="d" horiz-adv-x="1198" 
d="M971 805v629h104v-1434h-90l-16 238q-52 -114 -153.5 -182t-242.5 -68q-217 0 -353 144.5t-136 387.5q0 234 137.5 382.5t351.5 148.5q143 0 246 -66.5t152 -179.5zM582 82q173 0 282 122t109 314q0 194 -109 317t-282 123t-282.5 -123t-109.5 -315q0 -194 109.5 -316
t282.5 -122z" />
    <glyph glyph-name="e" unicode="e" horiz-adv-x="1126" 
d="M582 -12q-222 0 -360 147.5t-138 390.5q0 231 133 378t346 147q212 0 342 -130.5t137 -359.5q0 -6 -1 -21t-1 -22h-847v-18q3 -185 106 -301.5t274 -116.5q128 0 223 70.5t126 191.5h106q-34 -159 -156 -257.5t-290 -98.5zM201 606h729q-12 167 -111 259.5t-254 92.5
q-145 0 -248.5 -98t-115.5 -254z" />
    <glyph glyph-name="f" unicode="f" horiz-adv-x="620" 
d="M4 942v96h197v154q0 126 57 184t186 58h174v-97h-169q-78 0 -111 -33t-33 -110v-156h311v-96h-311v-942h-104v942h-197z" />
    <glyph glyph-name="g" unicode="g" horiz-adv-x="1198" 
d="M969 797l16 241h90v-975q0 -245 -121 -365t-372 -120q-192 0 -315.5 88.5t-147.5 251.5h108q25 -118 120.5 -182t242.5 -64q190 0 285.5 96t95.5 300v184q-51 -124 -153 -194t-245 -70q-217 0 -353 144.5t-136 387.5q0 235 137 383t352 148q142 0 245 -68t151 -186z
M582 82q173 0 282 122t109 314q0 195 -109 317.5t-282 122.5t-282.5 -122t-109.5 -316t109.5 -316t282.5 -122z" />
    <glyph glyph-name="h" unicode="h" horiz-adv-x="1122" 
d="M602 1051q187 0 298.5 -116.5t111.5 -352.5v-582h-105v578q0 182 -85 279t-236 97q-165 0 -262 -119.5t-97 -322.5v-512h-104v1434h104v-641q47 119 141 188.5t234 69.5z" />
    <glyph glyph-name="i" unicode="i" horiz-adv-x="350" 
d="M176 1257q-31 0 -52.5 21t-21.5 53t21.5 53t52.5 21t52.5 -21t21.5 -53t-21.5 -53t-52.5 -21zM123 0v1038h104v-1038h-104z" />
    <glyph glyph-name="j" unicode="j" horiz-adv-x="362" 
d="M186 1257q-31 0 -52 21t-21 53t21 53t52 21t52.5 -21t21.5 -53t-21.5 -53t-52.5 -21zM-131 -410v97h123q78 0 110.5 33t32.5 110v1208h105v-1206q0 -126 -57.5 -184t-186.5 -58h-127z" />
    <glyph glyph-name="k" unicode="k" horiz-adv-x="1007" 
d="M123 0v1434h104v-1018l604 622h130l-418 -432l452 -606h-127l-397 530l-244 -249v-281h-104z" />
    <glyph glyph-name="l" unicode="l" horiz-adv-x="350" 
d="M123 0v1434h104v-1434h-104z" />
    <glyph glyph-name="m" unicode="m" horiz-adv-x="1773" 
d="M1282 1051q172 0 277.5 -112t105.5 -337v-602h-106v598q0 174 -76 265t-213 91q-146 0 -232.5 -105t-91.5 -284v-565h-104v588q0 177 -78 271.5t-215 94.5q-148 0 -235 -117t-87 -309v-528h-104v1038h90l16 -221q43 105 127.5 169.5t210.5 64.5q125 0 215.5 -66.5
t126.5 -193.5q46 121 140.5 190.5t232.5 69.5z" />
    <glyph glyph-name="n" unicode="n" horiz-adv-x="1120" 
d="M602 1051q187 0 298.5 -116.5t111.5 -352.5v-582h-105v578q0 183 -84.5 279.5t-236.5 96.5q-165 0 -262 -119.5t-97 -322.5v-512h-104v1038h90l16 -221q47 107 141.5 170.5t231.5 63.5z" />
    <glyph glyph-name="o" unicode="o" horiz-adv-x="1165" 
d="M582 -12q-220 0 -359 148t-139 384q0 235 139 383t359 148t359.5 -148t139.5 -383q0 -236 -139.5 -384t-359.5 -148zM582 82q173 0 282 122t109 316q0 192 -109 315t-282 123t-282.5 -123t-109.5 -315q0 -194 109.5 -316t282.5 -122z" />
    <glyph glyph-name="p" unicode="p" horiz-adv-x="1198" 
d="M625 1051q216 0 352.5 -144.5t136.5 -386.5q0 -235 -137 -383.5t-352 -148.5q-145 0 -249 68t-149 184v-650h-104v1448h90l16 -237q52 114 153.5 182t242.5 68zM616 82q173 0 282.5 122t109.5 316q0 192 -109.5 315t-282.5 123t-282 -122.5t-109 -313.5
q0 -195 109 -317.5t282 -122.5z" />
    <glyph glyph-name="q" unicode="q" horiz-adv-x="1202" 
d="M973 809l16 229h90v-1448h-104v650q-52 -114 -154 -183t-243 -69q-217 0 -353.5 144.5t-136.5 387.5q0 234 138 382.5t352 148.5q141 0 243.5 -65.5t151.5 -176.5zM586 82q173 0 282 122t109 314q0 194 -109 317t-282 123t-282 -123t-109 -315q0 -194 109 -316t282 -122z
" />
    <glyph glyph-name="r" unicode="r" horiz-adv-x="634" 
d="M547 1038h55v-100h-76q-299 0 -299 -412v-526h-104v1038h90l16 -207q36 97 110 152t208 55z" />
    <glyph glyph-name="s" unicode="s" horiz-adv-x="997" 
d="M76 319h106q6 -112 96 -176.5t240 -64.5q130 0 214.5 55t84.5 146q0 28 -5.5 51.5t-19.5 41.5t-28 31.5t-40 24t-45 17.5t-55 14t-58 10.5t-64 9.5q-53 7 -90 13.5t-83 17.5t-77 24.5t-63 34t-50.5 46t-30.5 61.5t-12 80q0 133 112 215t286 80q174 0 285 -79t124 -227
h-106q-13 100 -95.5 158t-207.5 58q-132 0 -212.5 -54t-80.5 -143q0 -24 6 -44t13 -35t24.5 -28.5t29.5 -22t39 -17t41.5 -13t48.5 -10.5t49 -8t54 -8q65 -9 109.5 -17.5t97 -23.5t86.5 -35.5t64 -50t44.5 -71.5t14.5 -95q0 -135 -116 -216t-288 -81q-199 0 -317.5 86
t-124.5 245z" />
    <glyph glyph-name="t" unicode="t" horiz-adv-x="632" 
d="M201 242v700h-197v96h197v291h104v-291h281v-96h-281v-698q0 -80 33.5 -114t114.5 -34h143v-96h-152q-130 0 -186.5 58t-56.5 184z" />
    <glyph glyph-name="u" unicode="u" horiz-adv-x="1103" 
d="M877 528v510h104v-1038h-92l-15 219q-47 -105 -139.5 -168t-224.5 -63q-181 0 -290 117t-109 352v581h104v-575q0 -184 82 -281.5t229 -97.5q161 0 256 120t95 324z" />
    <glyph glyph-name="v" unicode="v" horiz-adv-x="974" 
d="M424 0l-406 1038h113l358 -917l357 917h108l-405 -1038h-125z" />
    <glyph glyph-name="w" unicode="w" horiz-adv-x="1591" 
d="M375 0l-352 1038h110l303 -913l314 913h96l297 -913l319 913h107l-369 -1038h-113l-292 872l-308 -872h-112z" />
    <glyph glyph-name="x" unicode="x" horiz-adv-x="960" 
d="M12 0l404 530l-383 508h125l323 -430l328 430h119l-383 -508l403 -530h-127l-344 457l-344 -457h-121z" />
    <glyph glyph-name="y" unicode="y" horiz-adv-x="976" 
d="M434 0l-416 1038h113l361 -903l354 903h112l-497 -1231q-28 -69 -46 -104.5t-45 -64.5t-61 -38.5t-86 -9.5h-160v97h132q76 0 105.5 27t66.5 118z" />
    <glyph glyph-name="z" unicode="z" horiz-adv-x="954" 
d="M74 942v96h807v-80l-699 -862h727v-96h-864v82l696 860h-667z" />
    <glyph glyph-name="braceleft" unicode="{" horiz-adv-x="657" 
d="M616 1403h-57q-116 0 -176.5 -53t-60.5 -154q0 -41 8 -80l41 -194q12 -66 12 -91q0 -87 -45.5 -142.5t-132.5 -70.5q85 -13 131.5 -70.5t46.5 -146.5q0 -41 -12 -94l-41 -194q-8 -39 -8 -80q0 -101 60.5 -154t176.5 -53h57v-92h-55q-161 0 -251.5 73.5t-90.5 206.5
q0 36 10 88l39 203q11 57 11 86q0 83 -55.5 129t-160.5 51v86q105 4 160.5 51t55.5 130q0 29 -11 86l-39 202q-10 52 -10 91q0 131 91 204.5t251 73.5h55v-92z" />
    <glyph glyph-name="bar" unicode="|" horiz-adv-x="399" 
d="M147 -266v1761h105v-1761h-105z" />
    <glyph glyph-name="braceright" unicode="}" horiz-adv-x="657" 
d="M596 657v-86q-106 -4 -160.5 -50.5t-54.5 -129.5q0 -34 10 -86l39 -203q8 -41 8 -88q0 -133 -90.5 -206.5t-251.5 -73.5h-55v92h59q114 0 175 53t61 154q0 41 -8 80l-41 194q-11 48 -11 94q0 89 47 146.5t132 70.5q-87 15 -133 70.5t-46 142.5q0 31 11 91l41 194
q8 39 8 80q0 101 -61 154t-175 53h-59v92h55q160 0 251 -73.5t91 -204.5q0 -50 -8 -91l-39 -202q-12 -62 -12 -86q0 -83 55.5 -130t161.5 -51z" />
    <glyph glyph-name="asciitilde" unicode="~" 
d="M238 449h-91q0 119 60.5 187.5t159.5 68.5q49 0 90.5 -16t71 -39t56 -46t58.5 -39t66 -16q69 0 104 44.5t35 115.5h88q0 -117 -59.5 -185.5t-159.5 -68.5q-49 0 -91 16t-71 38.5t-56 45.5t-58.5 39t-65.5 16q-68 1 -102.5 -43t-34.5 -118z" />
    <glyph glyph-name="uni00A0" unicode="&#xa0;" horiz-adv-x="552" 
 />
    <glyph glyph-name="exclamdown" unicode="&#xa1;" horiz-adv-x="452" 
d="M225 1444q35 0 57.5 -21.5t22.5 -56.5t-22 -55.5t-58 -20.5q-34 0 -56 20.5t-22 55.5t22 56.5t56 21.5zM170 0l16 1016h82l15 -1016h-113z" />
    <glyph glyph-name="cent" unicode="&#xa2;" horiz-adv-x="1097" 
d="M575 268q128 0 217 68t115 186h111q-28 -145 -127 -235t-248 -107v-180h-98v176q-208 11 -334.5 155.5t-126.5 373.5q0 228 127.5 375t333.5 159v195h98v-199q150 -17 248 -107t127 -237h-109q-28 119 -116 186.5t-218 67.5q-171 0 -278 -123t-107 -317
q0 -193 107.5 -315t277.5 -122z" />
    <glyph glyph-name="sterling" unicode="&#xa3;" horiz-adv-x="1247" 
d="M102 635v90h181q-5 27 -21 90t-23.5 110.5t-7.5 98.5q0 181 130 301.5t315 120.5q205 0 325 -107.5t146 -310.5h-107q-55 318 -360 318q-147 0 -244.5 -94t-97.5 -236q0 -43 8 -90.5t22.5 -107.5t20.5 -93h461v-90h-449q50 -290 -161 -531l903 -2v-102h-1022v96
q217 247 172 539h-191z" />
    <glyph glyph-name="currency" unicode="&#xa4;" horiz-adv-x="1249" 
d="M111 1157l73 72l160 -158q125 98 281 98q155 0 280 -98l158 160l76 -74l-158 -158q111 -120 111 -299q0 -160 -95 -282l142 -142l-74 -71l-141 139q-126 -113 -299 -113t-299 113l-142 -139l-73 74l141 141q-94 121 -94 280q0 176 110 299zM252 700q0 -161 106 -267.5
t267 -106.5t266.5 106.5t105.5 267.5q0 162 -105.5 268.5t-266.5 106.5t-267 -107t-106 -268z" />
    <glyph glyph-name="yen" unicode="&#xa5;" horiz-adv-x="1292" 
d="M1116 1434h125l-510 -840h369v-88h-408v-213h408v-88h-408v-205h-110v205h-408v88h408v213h-408v88h369l-512 840h131l475 -785z" />
    <glyph glyph-name="brokenbar" unicode="&#xa6;" horiz-adv-x="399" 
d="M147 735v760h105v-760h-105zM147 -266v758h105v-758h-105z" />
    <glyph glyph-name="section" unicode="&#xa7;" horiz-adv-x="1165" 
d="M1028 602q0 -105 -65 -175.5t-179 -107.5q78 -37 121 -94.5t43 -148.5q0 -131 -100.5 -212t-263.5 -81q-158 0 -262 78.5t-111 212.5h104q6 -98 80.5 -151.5t188.5 -53.5q118 0 190 54.5t72 144.5q0 54 -19 92t-67 65t-79 38t-105 32q-9 3 -13 4q-45 13 -72.5 21
t-69 21.5t-67 24.5t-58.5 27.5t-54 33t-43 38.5t-34 46t-20 54t-8 64q0 105 64 176t176 106q-162 78 -162 244q0 129 104.5 210t272.5 81q153 0 253.5 -78t106.5 -213h-104q-4 99 -75.5 152t-180.5 53q-122 0 -197.5 -54t-75.5 -143q0 -33 9 -60.5t20.5 -46.5t36.5 -37.5
t42.5 -28.5t55 -23t56.5 -19t63 -18q51 -14 82 -23.5t76.5 -24.5t73.5 -28.5t62.5 -33t55 -41t40 -48t28 -59t8.5 -70.5zM680 360q110 22 176 81t66 157q0 43 -17.5 77t-44.5 56.5t-71 42.5t-86.5 33t-102.5 30l-12 3l-103 28q-110 -22 -175.5 -80t-65.5 -155q0 -23 3.5 -43
t14 -37t19 -30.5t28.5 -27.5t31.5 -22.5t40 -20t42 -17t49 -16.5t49 -15t54.5 -15q17 -5 52 -14.5t53 -14.5z" />
    <glyph glyph-name="dieresis" unicode="&#xa8;" horiz-adv-x="819" 
d="M166 1315q0 31 20.5 51t51.5 20q32 0 52.5 -20t20.5 -51t-20.5 -51.5t-52.5 -20.5q-31 0 -51.5 20.5t-20.5 51.5zM508 1315q0 30 21.5 50.5t52.5 20.5t51 -20t20 -51t-20 -51.5t-51 -20.5t-52.5 20.5t-21.5 51.5z" />
    <glyph glyph-name="copyright" unicode="&#xa9;" horiz-adv-x="1685" 
d="M104 717q0 151 57 286.5t155.5 232.5t235.5 153.5t290 56.5q122 0 235.5 -36t204 -103t158 -156t104.5 -201t37 -233t-37 -233t-104.5 -201t-158 -156t-204 -103t-235.5 -36q-153 0 -290 56.5t-235.5 153.5t-155.5 232.5t-57 286.5zM1501 717q0 183 -87 333.5t-238 237
t-334 86.5q-136 0 -258 -51t-209.5 -138t-139 -209t-51.5 -259q0 -183 87 -334t238 -237.5t333 -86.5q183 0 334 86.5t238 237.5t87 334zM1118 594h86q-28 -137 -123.5 -217t-238.5 -80q-122 0 -213.5 59t-137 154.5t-45.5 210.5q0 178 107 300t289 122q141 0 238.5 -81
t123.5 -218h-88q-24 100 -95.5 160.5t-176.5 60.5q-145 0 -227 -99t-82 -245q0 -94 34.5 -171.5t106 -126t168.5 -48.5q104 0 175.5 59.5t98.5 159.5z" />
    <glyph glyph-name="ordfeminine" unicode="&#xaa;" horiz-adv-x="878" 
d="M131 963q0 92 68 143t194 51h211v55q0 79 -48 122.5t-138 43.5q-77 0 -126.5 -39t-58.5 -104h-81q11 97 82.5 154t185.5 57q126 0 195 -61.5t69 -174.5v-290q0 -64 61 -64h31v-68h-53q-53 0 -80 28t-27 79v51q-27 -72 -91.5 -120t-159.5 -48q-107 0 -170.5 49t-63.5 136z
M604 1073v25h-213q-83 0 -128.5 -35.5t-45.5 -95.5q0 -59 41.5 -92t114.5 -33q105 0 168 68t63 163zM121 520v76h655v-76h-655z" />
    <glyph glyph-name="guillemotleft" unicode="&#xab;" horiz-adv-x="1017" 
d="M414 1038h106l-330 -518l330 -520h-106l-334 520zM829 1036h107l-330 -518l330 -520h-107l-333 520z" />
    <glyph glyph-name="logicalnot" unicode="&#xac;" 
d="M135 598v90h723v-434h-94v344h-629z" />
    <glyph glyph-name="uni00AD" unicode="&#xad;" horiz-adv-x="903" 
d="M782 539h-661v88h661v-88z" />
    <glyph glyph-name="registered" unicode="&#xae;" horiz-adv-x="1017" 
d="M98 1036q0 175 118.5 293.5t291.5 118.5q177 0 295.5 -118t118.5 -292q0 -173 -118.5 -289t-295.5 -116q-174 0 -292 116t-118 287zM860 1038q0 152 -100.5 253.5t-251.5 101.5q-150 0 -250 -102t-100 -255q0 -149 100.5 -249.5t249.5 -100.5q151 0 251.5 100.5
t100.5 251.5zM356 805v467h172q75 0 118.5 -38t43.5 -101q0 -51 -31 -85.5t-84 -43.5l115 -199h-65l-109 186h-100v-186h-60zM524 1221h-108v-179h108q44 0 74.5 25t30.5 66q0 43 -29.5 65.5t-75.5 22.5z" />
    <glyph glyph-name="macron" unicode="&#xaf;" horiz-adv-x="819" 
d="M672 1282h-525v80h525v-80z" />
    <glyph glyph-name="degree" unicode="&#xb0;" horiz-adv-x="851" 
d="M104 1122q0 134 93 225t229 91t229 -91t93 -225q0 -130 -93.5 -220.5t-228.5 -90.5t-228.5 90.5t-93.5 220.5zM672 1122q0 104 -71 176t-175 72t-175 -72t-71 -176q0 -101 71 -171t175 -70t175 70t71 171z" />
    <glyph glyph-name="plusminus" unicode="&#xb1;" 
d="M492 655v373h96v-373h358v-90h-358v-375h-96v375h-357v90h357zM946 0h-811v90h811v-90z" />
    <glyph glyph-name="uni00B2" unicode="&#xb2;" horiz-adv-x="634" 
d="M137 1393h-74v16q0 110 71.5 176t180.5 66q115 0 184.5 -61t69.5 -160q0 -76 -38.5 -131.5t-112.5 -118.5l-252 -215h412v-72h-523v70l307 256q65 56 97.5 102t32.5 106q0 68 -49 110t-126 42q-82 0 -131 -45.5t-49 -128.5v-12z" />
    <glyph glyph-name="uni00B3" unicode="&#xb3;" horiz-adv-x="653" 
d="M145 1434h-75q1 103 70.5 162t183.5 59q113 0 183.5 -56.5t70.5 -146.5q0 -65 -41.5 -108t-106.5 -56q75 -12 120.5 -59.5t45.5 -120.5q0 -100 -74.5 -161.5t-197.5 -61.5q-128 0 -200.5 61.5t-72.5 173.5h74q1 -80 55.5 -123t145.5 -43q85 0 138.5 41.5t53.5 110.5
t-54.5 108t-144.5 39h-51v56h47q83 0 134 37.5t51 99.5q0 61 -48.5 100t-123.5 39q-84 0 -133.5 -40.5t-49.5 -110.5z" />
    <glyph glyph-name="acute" unicode="&#xb4;" horiz-adv-x="819" 
d="M455 1163h-84l186 271h123z" />
    <glyph glyph-name="uni00B5" unicode="&#xb5;" horiz-adv-x="1157" 
d="M1085 96h45v-96h-69q-95 0 -133 42t-35 128l2 84q-38 -125 -134 -195.5t-229 -70.5q-109 0 -193 52.5t-112 139.5v-590h-104v1448h104v-565q0 -187 83.5 -288t230.5 -101q157 0 252.5 124t95.5 331v499h104v-845q0 -54 20 -75.5t72 -21.5z" />
    <glyph glyph-name="paragraph" unicode="&#xb6;" horiz-adv-x="1292" 
d="M891 0h-100v483h-236q-225 0 -361.5 131.5t-136.5 343.5q0 211 136 343.5t360 132.5h338v-1434zM1047 0v1434h100v-1434h-100z" />
    <glyph glyph-name="periodcentered" unicode="&#xb7;" horiz-adv-x="376" 
d="M111 586q0 35 21.5 55.5t55.5 20.5t56 -20.5t22 -55.5t-22 -56.5t-56 -21.5t-55.5 21.5t-21.5 56.5z" />
    <glyph glyph-name="cedilla" unicode="&#xb8;" horiz-adv-x="819" 
d="M340 -164l45 184h66l-29 -120h29q74 0 122 -39.5t48 -108.5q0 -73 -49 -117.5t-126 -44.5h-167v66h155q49 0 77 24.5t28 67.5q0 42 -28 65t-75 23h-96z" />
    <glyph glyph-name="uni00B9" unicode="&#xb9;" horiz-adv-x="393" 
d="M201 1522v118h71v-745h-73v526q-9 -18 -37 -18h-142v72h142q17 0 28 14t11 33z" />
    <glyph glyph-name="ordmasculine" unicode="&#xba;" horiz-adv-x="851" 
d="M733 1112q0 -149 -85.5 -241.5t-223.5 -92.5q-137 0 -223 92.5t-86 241.5t86 241.5t223 92.5q138 0 223.5 -92.5t85.5 -241.5zM201 1112q0 -116 62 -188t161 -72q100 0 162.5 71.5t62.5 188.5t-62.5 188.5t-162.5 71.5t-161.5 -71.5t-61.5 -188.5zM113 520v76h626v-76
h-626z" />
    <glyph glyph-name="guillemotright" unicode="&#xbb;" horiz-adv-x="1017" 
d="M827 520l-329 518h106l334 -518l-334 -520h-106zM412 518l-330 518h106l334 -518l-334 -520h-106z" />
    <glyph glyph-name="onequarter" unicode="&#xbc;" horiz-adv-x="1382" 
d="M201 1317v119h71v-746h-73v527q-9 -19 -37 -19h-142v72h142q17 0 28 14t11 33zM168 0h-88l909 1434h88zM745 266l377 479h90v-479h127v-69h-127v-197h-73v197h-394v69zM1139 266v398l-312 -398h312z" />
    <glyph glyph-name="onehalf" unicode="&#xbd;" horiz-adv-x="1398" 
d="M201 1317v119h71v-746h-73v527q-9 -19 -37 -19h-142v72h142q17 0 28 14t11 33zM168 0h-88l909 1434h88zM901 500h-74v16q0 110 71.5 176t180.5 66q115 0 184.5 -61t69.5 -160q0 -76 -38.5 -131.5t-112.5 -118.5l-252 -215h411v-72h-522v70l307 256q65 55 97 101.5
t32 107.5q0 68 -48.5 109.5t-125.5 41.5q-82 0 -131 -45.5t-49 -128.5v-12z" />
    <glyph glyph-name="threequarters" unicode="&#xbe;" horiz-adv-x="1642" 
d="M145 1229h-75q1 103 70.5 162t183.5 59q113 0 183.5 -56.5t70.5 -146.5q0 -65 -41.5 -108t-106.5 -56q75 -12 120.5 -59.5t45.5 -120.5q0 -100 -74.5 -161.5t-197.5 -61.5q-128 0 -200.5 61.5t-72.5 173.5h74q1 -80 55.5 -122.5t145.5 -42.5q85 0 138.5 41.5t53.5 109.5
q0 69 -55 108.5t-144 39.5h-51v55h47q83 0 134 37.5t51 99.5q0 61 -48.5 100t-123.5 39q-84 0 -133.5 -40.5t-49.5 -110.5zM428 0h-88l909 1434h88zM1006 266l376 479h91v-479h126v-69h-126v-197h-74v197h-393v69zM1399 266v398l-312 -398h312z" />
    <glyph glyph-name="questiondown" unicode="&#xbf;" horiz-adv-x="1026" 
d="M606 1366q0 -35 -22 -55.5t-56 -20.5t-55.5 20.5t-21.5 55.5t21.5 56.5t55.5 21.5t56 -21.5t22 -56.5zM838 438h106q0 -196 -121 -323t-321 -127q-184 0 -297 98.5t-113 249.5q0 62 14.5 114.5t43 93.5t59 71.5t72.5 62.5q7 5 33.5 25t34 26t30 23.5t29.5 26.5t23 26
t22 30t14 31t11 36.5t3 39.5v72h99v-82q0 -24 -3.5 -46t-8 -39.5t-16 -36.5t-18.5 -31.5t-24 -30.5t-25.5 -26.5t-30.5 -26t-30 -24t-33.5 -25t-32.5 -23.5q-77 -59 -117 -122.5t-40 -154.5q0 -113 84 -186.5t217 -73.5q152 0 244 97.5t92 254.5z" />
    <glyph glyph-name="Agrave" unicode="&#xc0;" horiz-adv-x="1306" 
d="M608 1565l-221 270h123l184 -270h-86zM150 0h-115l555 1434h129l553 -1434h-119l-172 438h-659zM651 1311l-297 -770h594z" />
    <glyph glyph-name="Aacute" unicode="&#xc1;" horiz-adv-x="1306" 
d="M698 1565h-84l187 270h123zM150 0h-115l555 1434h129l553 -1434h-119l-172 438h-659zM651 1311l-297 -770h594z" />
    <glyph glyph-name="Acircumflex" unicode="&#xc2;" horiz-adv-x="1306" 
d="M860 1563l-207 202l-209 -202h-102l260 272h103l260 -272h-105zM150 0h-115l555 1434h129l553 -1434h-119l-172 438h-659zM651 1311l-297 -770h594z" />
    <glyph glyph-name="Atilde" unicode="&#xc3;" horiz-adv-x="1306" 
d="M541 1741q-40 0 -60 -31.5t-20 -75.5h-74v15q0 71 41.5 119.5t110.5 48.5q36 0 64.5 -11.5t46 -28.5t34 -33.5t37 -28t45.5 -11.5q40 0 60 30.5t20 75.5h74v-14q0 -72 -41.5 -120t-110.5 -48q-37 0 -65.5 11.5t-46 28t-33.5 33.5t-36.5 28.5t-45.5 11.5zM150 0h-115
l555 1434h129l553 -1434h-119l-172 438h-659zM651 1311l-297 -770h594z" />
    <glyph glyph-name="Adieresis" unicode="&#xc4;" horiz-adv-x="1306" 
d="M410 1716q0 31 20 51.5t51 20.5q32 0 53 -20.5t21 -51.5t-21 -51t-53 -20q-31 0 -51 20t-20 51zM752 1716q0 31 21 51.5t52 20.5t51.5 -20.5t20.5 -51.5t-20.5 -51t-51.5 -20t-52 20t-21 51zM150 0h-115l555 1434h129l553 -1434h-119l-172 438h-659zM651 1311l-297 -770
h594z" />
    <glyph glyph-name="Aring" unicode="&#xc5;" horiz-adv-x="1306" 
d="M731 1405l541 -1405h-119l-172 438h-659l-172 -438h-115l543 1403q-64 24 -104 79.5t-40 123.5q0 88 63.5 150.5t155.5 62.5t155.5 -62.5t63.5 -150.5q0 -68 -39 -122.5t-102 -78.5zM504 1606q0 -64 43 -108t106 -44t106.5 44t43.5 108t-43.5 107.5t-106.5 43.5
t-106 -43.5t-43 -107.5zM651 1311l-297 -770h594z" />
    <glyph glyph-name="AE" unicode="&#xc6;" horiz-adv-x="1918" 
d="M1059 682v-580h799v-102h-910v399h-567l-250 -399h-117l881 1434h936v-103h-772v-547h647v-102h-647zM948 1337l-514 -839h514v839z" />
    <glyph glyph-name="Ccedilla" unicode="&#xc7;" horiz-adv-x="1429" 
d="M752 90q183 0 304 90t167 262h116q-44 -210 -191 -328t-368 -126l-20 -88h28q74 0 122 -39.5t48 -108.5q0 -73 -48.5 -117.5t-125.5 -44.5h-168v66h156q49 0 77 24.5t28 67.5q0 42 -28 65t-75 23h-96l37 152q-187 9 -328 102.5t-216 255.5t-75 371q0 324 183 526.5
t483 202.5q226 0 380 -119t201 -334h-116q-47 169 -169 259.5t-302 90.5q-163 0 -287.5 -80t-191 -221.5t-66.5 -324.5q0 -278 147.5 -452.5t393.5 -174.5z" />
    <glyph glyph-name="Egrave" unicode="&#xc8;" horiz-adv-x="1118" 
d="M549 1565l-221 270h123l184 -270h-86zM147 0v1434h883v-103h-772v-547h647v-102h-647v-580h799v-102h-910z" />
    <glyph glyph-name="Eacute" unicode="&#xc9;" horiz-adv-x="1118" 
d="M639 1565h-84l186 270h123zM147 0v1434h883v-103h-772v-547h647v-102h-647v-580h799v-102h-910z" />
    <glyph glyph-name="Ecircumflex" unicode="&#xca;" horiz-adv-x="1118" 
d="M801 1563l-207 202l-209 -202h-102l260 272h102l260 -272h-104zM147 0v1434h883v-103h-772v-547h647v-102h-647v-580h799v-102h-910z" />
    <glyph glyph-name="Edieresis" unicode="&#xcb;" horiz-adv-x="1118" 
d="M350 1716q0 31 20.5 51.5t51.5 20.5q32 0 53 -20.5t21 -51.5t-21 -51t-53 -20q-31 0 -51.5 20t-20.5 51zM692 1716q0 31 21.5 51.5t52.5 20.5t51.5 -20.5t20.5 -51.5t-20.5 -51t-51.5 -20t-52.5 20.5t-21.5 50.5zM147 0v1434h883v-103h-772v-547h647v-102h-647v-580h799
v-102h-910z" />
    <glyph glyph-name="Igrave" unicode="&#xcc;" horiz-adv-x="405" 
d="M158 1565l-221 270h122l185 -270h-86zM147 0v1434h111v-1434h-111z" />
    <glyph glyph-name="Iacute" unicode="&#xcd;" horiz-adv-x="405" 
d="M248 1565h-84l186 270h123zM147 0v1434h111v-1434h-111z" />
    <glyph glyph-name="Icircumflex" unicode="&#xce;" horiz-adv-x="405" 
d="M410 1563l-207 202l-209 -202h-103l261 272h102l260 -272h-104zM147 0v1434h111v-1434h-111z" />
    <glyph glyph-name="Idieresis" unicode="&#xcf;" horiz-adv-x="405" 
d="M-41 1716q0 31 20.5 51.5t51.5 20.5q32 0 52.5 -20.5t20.5 -51.5t-20.5 -51t-52.5 -20q-31 0 -51.5 20t-20.5 51zM301 1716q0 31 21.5 51.5t52.5 20.5t51 -20.5t20 -51.5t-20 -51t-51 -20t-52.5 20.5t-21.5 50.5zM147 0v1434h111v-1434h-111z" />
    <glyph glyph-name="Eth" unicode="&#xd0;" horiz-adv-x="1435" 
d="M199 1434h417q338 0 529.5 -193.5t191.5 -523.5q0 -329 -191.5 -523t-529.5 -194h-417v684h-185v94h185v656zM309 102h307q290 0 449.5 165t159.5 450q0 286 -159.5 450t-449.5 164h-307v-553h322v-94h-322v-582z" />
    <glyph glyph-name="Ntilde" unicode="&#xd1;" horiz-adv-x="1355" 
d="M559 1741q-40 0 -60 -31.5t-20 -75.5h-73v15q0 71 41 119.5t110 48.5q36 0 64.5 -11.5t46 -28.5t34 -33.5t37 -28t45.5 -11.5q40 0 60 30.5t20 75.5h74v-14q0 -72 -41.5 -120t-110.5 -48q-37 0 -65.5 11.5t-46 28t-33.5 33.5t-36.5 28.5t-45.5 11.5zM256 0h-109v1434h105
l848 -1233v1233h108v-1434h-104l-848 1233v-1233z" />
    <glyph glyph-name="Ograve" unicode="&#xd2;" horiz-adv-x="1533" 
d="M723 1565l-221 270h123l184 -270h-86zM1436 717q0 -210 -84.5 -376t-237.5 -259.5t-348 -93.5q-194 0 -347 93.5t-238 259.5t-85 376t85 376t238 259.5t347 93.5q195 0 348 -93.5t237.5 -259.5t84.5 -376zM211 717q0 -276 155 -451.5t400 -175.5q163 0 290 80t197 222.5
t70 324.5q0 276 -155 451t-402 175q-162 0 -288.5 -79.5t-196.5 -222t-70 -324.5z" />
    <glyph glyph-name="Oacute" unicode="&#xd3;" horiz-adv-x="1533" 
d="M813 1565h-84l186 270h123zM1436 717q0 -210 -84.5 -376t-237.5 -259.5t-348 -93.5q-194 0 -347 93.5t-238 259.5t-85 376t85 376t238 259.5t347 93.5q195 0 348 -93.5t237.5 -259.5t84.5 -376zM211 717q0 -276 155 -451.5t400 -175.5q163 0 290 80t197 222.5t70 324.5
q0 276 -155 451t-402 175q-162 0 -288.5 -79.5t-196.5 -222t-70 -324.5z" />
    <glyph glyph-name="Ocircumflex" unicode="&#xd4;" horiz-adv-x="1533" 
d="M975 1563l-207 202l-209 -202h-102l260 272h102l260 -272h-104zM1436 717q0 -210 -84.5 -376t-237.5 -259.5t-348 -93.5q-194 0 -347 93.5t-238 259.5t-85 376t85 376t238 259.5t347 93.5q195 0 348 -93.5t237.5 -259.5t84.5 -376zM211 717q0 -276 155 -451.5t400 -175.5
q163 0 290 80t197 222.5t70 324.5q0 276 -155 451t-402 175q-162 0 -288.5 -79.5t-196.5 -222t-70 -324.5z" />
    <glyph glyph-name="Otilde" unicode="&#xd5;" horiz-adv-x="1533" 
d="M655 1741q-40 0 -60 -31.5t-20 -75.5h-73v15q0 71 41 119.5t110 48.5q36 0 64.5 -11.5t46.5 -28.5t34 -33.5t37 -28t46 -11.5q40 0 60 30.5t20 75.5h73v-14q0 -72 -41 -120t-110 -48q-37 0 -65.5 11.5t-46.5 28t-34 33.5t-36.5 28.5t-45.5 11.5zM1436 717
q0 -210 -84.5 -376t-237.5 -259.5t-348 -93.5q-194 0 -347 93.5t-238 259.5t-85 376t85 376t238 259.5t347 93.5q195 0 348 -93.5t237.5 -259.5t84.5 -376zM211 717q0 -276 155 -451.5t400 -175.5q163 0 290 80t197 222.5t70 324.5q0 276 -155 451t-402 175
q-162 0 -288.5 -79.5t-196.5 -222t-70 -324.5z" />
    <glyph glyph-name="Odieresis" unicode="&#xd6;" horiz-adv-x="1533" 
d="M524 1716q0 31 20.5 51.5t51.5 20.5q32 0 53 -20.5t21 -51.5t-21 -51t-53 -20q-31 0 -51.5 20t-20.5 51zM866 1716q0 31 21.5 51.5t52.5 20.5t51.5 -20.5t20.5 -51.5t-20.5 -51t-51.5 -20t-52.5 20.5t-21.5 50.5zM1436 717q0 -210 -84.5 -376t-237.5 -259.5t-348 -93.5
q-194 0 -347 93.5t-238 259.5t-85 376t85 376t238 259.5t347 93.5q195 0 348 -93.5t237.5 -259.5t84.5 -376zM211 717q0 -276 155 -451.5t400 -175.5q163 0 290 80t197 222.5t70 324.5q0 276 -155 451t-402 175q-162 0 -288.5 -79.5t-196.5 -222t-70 -324.5z" />
    <glyph glyph-name="multiply" unicode="&#xd7;" 
d="M164 895l67 66l314 -314l309 314l64 -64l-312 -311l314 -312l-68 -67l-313 311l-310 -309l-63 61l311 312z" />
    <glyph glyph-name="Oslash" unicode="&#xd8;" horiz-adv-x="1533" 
d="M1374 1446l62 -62l-162 -178q162 -199 162 -489q0 -210 -84.5 -376t-237.5 -259.5t-348 -93.5q-266 0 -449 174l-157 -174l-64 61l162 176q-162 202 -162 492q0 210 85 376t238 259.5t347 93.5q265 0 448 -174zM211 717q0 -248 121 -412l813 891q-150 147 -379 147
q-162 -1 -288.5 -80.5t-196.5 -222t-70 -323.5zM1323 717q0 247 -121 411l-813 -890q148 -148 377 -148q163 0 290 80t197 222.5t70 324.5z" />
    <glyph glyph-name="Ugrave" unicode="&#xd9;" horiz-adv-x="1331" 
d="M621 1565l-222 270h123l185 -270h-86zM141 592v842h111v-848q0 -250 100 -373t312 -123q214 0 314.5 123t100.5 373v848h111v-842q0 -604 -526 -604q-523 0 -523 604z" />
    <glyph glyph-name="Uacute" unicode="&#xda;" horiz-adv-x="1331" 
d="M711 1565h-84l186 270h123zM141 592v842h111v-848q0 -250 100 -373t312 -123q214 0 314.5 123t100.5 373v848h111v-842q0 -604 -526 -604q-523 0 -523 604z" />
    <glyph glyph-name="Ucircumflex" unicode="&#xdb;" horiz-adv-x="1331" 
d="M872 1563l-206 202l-209 -202h-103l260 272h103l260 -272h-105zM141 592v842h111v-848q0 -250 100 -373t312 -123q214 0 314.5 123t100.5 373v848h111v-842q0 -604 -526 -604q-523 0 -523 604z" />
    <glyph glyph-name="Udieresis" unicode="&#xdc;" horiz-adv-x="1331" 
d="M422 1716q0 31 20.5 51.5t51.5 20.5q32 0 52.5 -20.5t20.5 -51.5t-20.5 -51t-52.5 -20q-31 0 -51.5 20t-20.5 51zM764 1716q0 31 21.5 51.5t52.5 20.5t51 -20.5t20 -51.5t-20 -51t-51 -20t-52.5 20.5t-21.5 50.5zM141 592v842h111v-848q0 -250 100 -373t312 -123
q214 0 314.5 123t100.5 373v848h111v-842q0 -604 -526 -604q-523 0 -523 604z" />
    <glyph glyph-name="Yacute" unicode="&#xdd;" horiz-adv-x="1265" 
d="M674 1565h-84l186 270h123zM578 528l-549 906h129l475 -785l479 785h125l-549 -906v-528h-110v528z" />
    <glyph glyph-name="Thorn" unicode="&#xde;" horiz-adv-x="1163" 
d="M147 0v1434h111v-267h371q233 0 358 -109t125 -315q0 -210 -128.5 -315.5t-356.5 -105.5h-369v-322h-111zM627 1065h-369v-641h367q181 0 277.5 80t96.5 239q0 162 -95.5 242t-276.5 80z" />
    <glyph glyph-name="germandbls" unicode="&#xdf;" horiz-adv-x="1171" 
d="M668 -12q-112 0 -219 39v94q97 -39 213 -39q146 0 238.5 84t92.5 217q0 157 -118 237t-316 80q-33 0 -53 -2v93q184 1 280.5 83t96.5 209q0 122 -84.5 195.5t-220.5 73.5q-146 0 -236 -89.5t-90 -246.5v-1016h-105v1010q0 207 120.5 321.5t310.5 114.5q183 0 297.5 -97
t113.5 -255q-1 -130 -78.5 -218.5t-201.5 -113.5q182 -19 286.5 -117.5t104.5 -263.5q0 -175 -121.5 -284t-310.5 -109z" />
    <glyph glyph-name="agrave" unicode="&#xe0;" horiz-adv-x="1091" 
d="M393 1440l185 -271h-86l-222 271h123zM1036 96h39v-96h-61q-92 0 -132.5 42t-37.5 134v37q-51 -104 -150.5 -164.5t-249.5 -60.5q-167 0 -266.5 80t-99.5 217q0 147 105.5 228t303.5 81h353v90q0 130 -79.5 202t-225.5 72q-130 0 -211.5 -56.5t-102.5 -153.5h-104
q20 141 132 222t290 81q195 0 300 -96t105 -275v-483q0 -58 22 -79.5t70 -21.5zM840 420v84h-361q-144 0 -219.5 -55t-75.5 -158q0 -97 72.5 -155t196.5 -58q181 0 284 94.5t103 247.5z" />
    <glyph glyph-name="aacute" unicode="&#xe1;" horiz-adv-x="1091" 
d="M684 1440h123l-225 -271h-84zM1036 96h39v-96h-61q-92 0 -132.5 42t-37.5 134v37q-51 -104 -150.5 -164.5t-249.5 -60.5q-167 0 -266.5 80t-99.5 217q0 147 105.5 228t303.5 81h353v90q0 130 -79.5 202t-225.5 72q-130 0 -211.5 -56.5t-102.5 -153.5h-104q20 141 132 222
t290 81q195 0 300 -96t105 -275v-483q0 -58 22 -79.5t70 -21.5zM840 420v84h-361q-144 0 -219.5 -55t-75.5 -158q0 -97 72.5 -155t196.5 -58q181 0 284 94.5t103 247.5z" />
    <glyph glyph-name="acircumflex" unicode="&#xe2;" horiz-adv-x="1091" 
d="M743 1167l-206 203l-209 -203h-103l260 273h103l260 -273h-105zM1036 96h39v-96h-61q-92 0 -132.5 42t-37.5 134v37q-51 -104 -150.5 -164.5t-249.5 -60.5q-167 0 -266.5 80t-99.5 217q0 147 105.5 228t303.5 81h353v90q0 130 -79.5 202t-225.5 72q-130 0 -211.5 -56.5
t-102.5 -153.5h-104q20 141 132 222t290 81q195 0 300 -96t105 -275v-483q0 -58 22 -79.5t70 -21.5zM840 420v84h-361q-144 0 -219.5 -55t-75.5 -158q0 -97 72.5 -155t196.5 -58q181 0 284 94.5t103 247.5z" />
    <glyph glyph-name="atilde" unicode="&#xe3;" horiz-adv-x="1091" 
d="M424 1346q-40 0 -60 -31.5t-20 -75.5h-74v14q0 71 41.5 119.5t110.5 48.5q36 0 64.5 -11.5t46 -28t34 -33t37 -28t45.5 -11.5q40 0 60 30.5t20 75.5h74v-14q0 -72 -41.5 -120t-110.5 -48q-37 0 -65.5 11.5t-46 28.5t-33.5 33.5t-36.5 28t-45.5 11.5zM1036 96h39v-96h-61
q-92 0 -132.5 42t-37.5 134v37q-51 -104 -150.5 -164.5t-249.5 -60.5q-167 0 -266.5 80t-99.5 217q0 147 105.5 228t303.5 81h353v90q0 130 -79.5 202t-225.5 72q-130 0 -211.5 -56.5t-102.5 -153.5h-104q20 141 132 222t290 81q195 0 300 -96t105 -275v-483q0 -58 22 -79.5
t70 -21.5zM840 420v84h-361q-144 0 -219.5 -55t-75.5 -158q0 -97 72.5 -155t196.5 -58q181 0 284 94.5t103 247.5z" />
    <glyph glyph-name="adieresis" unicode="&#xe4;" horiz-adv-x="1091" 
d="M365 1249q-31 0 -51.5 20.5t-20.5 51.5t20.5 51.5t51.5 20.5q32 0 52.5 -20.5t20.5 -51.5t-20.5 -51.5t-52.5 -20.5zM709 1249q-31 0 -52.5 20.5t-21.5 51.5t21.5 51.5t52.5 20.5t51 -20.5t20 -51.5t-20 -51.5t-51 -20.5zM1036 96h39v-96h-61q-92 0 -132.5 42t-37.5 134
v37q-51 -104 -150.5 -164.5t-249.5 -60.5q-167 0 -266.5 80t-99.5 217q0 147 105.5 228t303.5 81h353v90q0 130 -79.5 202t-225.5 72q-130 0 -211.5 -56.5t-102.5 -153.5h-104q20 141 132 222t290 81q195 0 300 -96t105 -275v-483q0 -58 22 -79.5t70 -21.5zM840 420v84h-361
q-144 0 -219.5 -55t-75.5 -158q0 -97 72.5 -155t196.5 -58q181 0 284 94.5t103 247.5z" />
    <glyph glyph-name="aring" unicode="&#xe5;" horiz-adv-x="1091" 
d="M537 1143q-91 0 -155.5 63t-64.5 152t64 151t156 62t155.5 -62t63.5 -151t-64 -152t-155 -63zM537 1509q-63 0 -106.5 -43.5t-43.5 -107.5t43.5 -108t106.5 -44t106 44t43 108t-43 107.5t-106 43.5zM1036 96h39v-96h-61q-92 0 -132.5 42t-37.5 134v37
q-51 -104 -150.5 -164.5t-249.5 -60.5q-167 0 -266.5 80t-99.5 217q0 147 105.5 228t303.5 81h353v90q0 130 -79.5 202t-225.5 72q-130 0 -211.5 -56.5t-102.5 -153.5h-104q20 141 132 222t290 81q195 0 300 -96t105 -275v-483q0 -58 22 -79.5t70 -21.5zM840 420v84h-361
q-144 0 -219.5 -55t-75.5 -158q0 -97 72.5 -155t196.5 -58q181 0 284 94.5t103 247.5z" />
    <glyph glyph-name="ae" unicode="&#xe6;" horiz-adv-x="1867" 
d="M1782 516h-846v-22q1 -183 107.5 -297.5t273.5 -114.5q127 0 221.5 70.5t126.5 191.5h104q-34 -159 -156 -257.5t-290 -98.5q-148 0 -260 74t-170 204q-47 -125 -163.5 -201.5t-272.5 -76.5q-174 0 -276.5 80.5t-102.5 220.5q0 147 105 228t304 81h353v86
q0 129 -81.5 201.5t-226.5 72.5q-128 0 -209 -56.5t-102 -153.5h-104q20 142 131 222.5t289 80.5q149 0 245 -60t131 -174q59 110 161.5 172t232.5 62q212 0 341 -130.5t136 -361.5q0 -29 -2 -43zM1307 958q-145 0 -248.5 -98.5t-116.5 -257.5h729q-12 169 -110.5 262.5
t-253.5 93.5zM840 420v88h-363q-142 0 -217.5 -55.5t-75.5 -157.5q0 -100 73 -158.5t200 -58.5q170 0 276.5 96t106.5 246z" />
    <glyph glyph-name="ccedilla" unicode="&#xe7;" horiz-adv-x="1097" 
d="M575 82q128 0 217 68t115 184h111q-29 -152 -139 -244.5t-273 -101.5l-20 -88h28q74 0 122 -39.5t48 -108.5q0 -73 -48.5 -117.5t-125.5 -44.5h-168v66h156q49 0 76.5 24.5t27.5 67.5q0 42 -27.5 65t-74.5 23h-96l37 152q-206 12 -331.5 156.5t-125.5 373.5
q0 236 137 384.5t357 148.5q176 0 292 -92t148 -254h-109q-28 118 -116 185.5t-218 67.5q-171 0 -278 -123t-107 -317q0 -193 107.5 -314.5t277.5 -121.5z" />
    <glyph glyph-name="egrave" unicode="&#xe8;" horiz-adv-x="1126" 
d="M514 1169l-221 271h123l184 -271h-86zM582 -12q-222 0 -360 147.5t-138 390.5q0 231 133 378t346 147q212 0 342 -130.5t137 -359.5q0 -6 -1 -21t-1 -22h-847v-18q3 -185 106 -301.5t274 -116.5q128 0 223 70.5t126 191.5h106q-34 -159 -156 -257.5t-290 -98.5zM201 606
h729q-12 167 -111 259.5t-254 92.5q-145 0 -248.5 -98t-115.5 -254z" />
    <glyph glyph-name="eacute" unicode="&#xe9;" horiz-adv-x="1126" 
d="M604 1169h-84l187 271h122zM582 -12q-222 0 -360 147.5t-138 390.5q0 231 133 378t346 147q212 0 342 -130.5t137 -359.5q0 -6 -1 -21t-1 -22h-847v-18q3 -185 106 -301.5t274 -116.5q128 0 223 70.5t126 191.5h106q-34 -159 -156 -257.5t-290 -98.5zM201 606h729
q-12 167 -111 259.5t-254 92.5q-145 0 -248.5 -98t-115.5 -254z" />
    <glyph glyph-name="ecircumflex" unicode="&#xea;" horiz-adv-x="1126" 
d="M766 1167l-207 203l-209 -203h-102l260 273h102l260 -273h-104zM582 -12q-222 0 -360 147.5t-138 390.5q0 231 133 378t346 147q212 0 342 -130.5t137 -359.5q0 -6 -1 -21t-1 -22h-847v-18q3 -185 106 -301.5t274 -116.5q128 0 223 70.5t126 191.5h106
q-34 -159 -156 -257.5t-290 -98.5zM201 606h729q-12 167 -111 259.5t-254 92.5q-145 0 -248.5 -98t-115.5 -254z" />
    <glyph glyph-name="edieresis" unicode="&#xeb;" horiz-adv-x="1126" 
d="M315 1321q0 31 20.5 51.5t51.5 20.5q32 0 53 -20.5t21 -51.5t-21 -51.5t-53 -20.5q-31 0 -51.5 20.5t-20.5 51.5zM657 1321q0 31 21.5 51.5t52.5 20.5t51.5 -20.5t20.5 -51.5t-20.5 -51.5t-51.5 -20.5t-52.5 20.5t-21.5 51.5zM582 -12q-222 0 -360 147.5t-138 390.5
q0 231 133 378t346 147q212 0 342 -130.5t137 -359.5q0 -6 -1 -21t-1 -22h-847v-18q3 -185 106 -301.5t274 -116.5q128 0 223 70.5t126 191.5h106q-34 -159 -156 -257.5t-290 -98.5zM201 606h729q-12 167 -111 259.5t-254 92.5q-145 0 -248.5 -98t-115.5 -254z" />
    <glyph glyph-name="igrave" unicode="&#xec;" horiz-adv-x="350" 
d="M131 1169l-221 271h123l184 -271h-86zM123 0v1038h104v-1038h-104z" />
    <glyph glyph-name="iacute" unicode="&#xed;" horiz-adv-x="350" 
d="M221 1169h-84l187 271h122zM123 0v1038h104v-1038h-104z" />
    <glyph glyph-name="icircumflex" unicode="&#xee;" horiz-adv-x="350" 
d="M383 1167l-207 203l-209 -203h-102l260 273h102l260 -273h-104zM123 0v1038h104v-1038h-104z" />
    <glyph glyph-name="idieresis" unicode="&#xef;" horiz-adv-x="350" 
d="M-68 1321q0 31 20.5 51.5t51.5 20.5q32 0 53 -20.5t21 -51.5t-21 -51.5t-53 -20.5q-31 0 -51.5 20.5t-20.5 51.5zM274 1321q0 31 21.5 51.5t52.5 20.5t51.5 -20.5t20.5 -51.5t-20.5 -51.5t-51.5 -20.5t-52.5 20.5t-21.5 51.5zM123 0v1038h104v-1038h-104z" />
    <glyph glyph-name="eth" unicode="&#xf0;" horiz-adv-x="1183" 
d="M948 1378l-219 -139q159 -144 254 -328t96 -387q-2 -240 -134.5 -388t-364.5 -148q-220 0 -358 135t-138 348q0 142 65 253t174 169.5t242 58.5q122 1 217 -47.5t158 -138.5q-76 227 -293 420l-250 -160l-41 72l224 143q-101 79 -218 141l62 64q124 -62 240 -152l243 158
zM580 80q178 0 285.5 115.5t107.5 304.5q-3 114 -58.5 198.5t-142.5 126t-192 41.5q-171 0 -280.5 -112t-109.5 -283q0 -173 109 -282t281 -109z" />
    <glyph glyph-name="ntilde" unicode="&#xf1;" horiz-adv-x="1120" 
d="M481 1346q-40 0 -60 -31.5t-20 -75.5h-73v14q0 71 41 119.5t110 48.5q36 0 64.5 -11.5t46.5 -28t34 -33t37 -28t46 -11.5q40 0 59.5 30.5t19.5 75.5h74v-14q0 -72 -41 -120t-110 -48q-37 0 -65.5 11.5t-46.5 28.5t-34 33.5t-36.5 28t-45.5 11.5zM602 1051
q187 0 298.5 -116.5t111.5 -352.5v-582h-105v578q0 183 -84.5 279.5t-236.5 96.5q-165 0 -262 -119.5t-97 -322.5v-512h-104v1038h90l16 -221q47 107 141.5 170.5t231.5 63.5z" />
    <glyph glyph-name="ograve" unicode="&#xf2;" horiz-adv-x="1165" 
d="M537 1169l-222 271h123l185 -271h-86zM582 -12q-220 0 -359 148t-139 384q0 235 139 383t359 148t359.5 -148t139.5 -383q0 -236 -139.5 -384t-359.5 -148zM582 82q173 0 282 122t109 316q0 192 -109 315t-282 123t-282.5 -123t-109.5 -315q0 -194 109.5 -316t282.5 -122
z" />
    <glyph glyph-name="oacute" unicode="&#xf3;" horiz-adv-x="1165" 
d="M627 1169h-84l186 271h123zM582 -12q-220 0 -359 148t-139 384q0 235 139 383t359 148t359.5 -148t139.5 -383q0 -236 -139.5 -384t-359.5 -148zM582 82q173 0 282 122t109 316q0 192 -109 315t-282 123t-282.5 -123t-109.5 -315q0 -194 109.5 -316t282.5 -122z" />
    <glyph glyph-name="ocircumflex" unicode="&#xf4;" horiz-adv-x="1165" 
d="M788 1167l-206 203l-209 -203h-103l260 273h103l260 -273h-105zM582 -12q-220 0 -359 148t-139 384q0 235 139 383t359 148t359.5 -148t139.5 -383q0 -236 -139.5 -384t-359.5 -148zM582 82q173 0 282 122t109 316q0 192 -109 315t-282 123t-282.5 -123t-109.5 -315
q0 -194 109.5 -316t282.5 -122z" />
    <glyph glyph-name="otilde" unicode="&#xf5;" horiz-adv-x="1165" 
d="M469 1346q-40 0 -60 -31.5t-20 -75.5h-74v14q0 71 41.5 119.5t110.5 48.5q36 0 64.5 -11.5t46 -28t34 -33t37 -28t45.5 -11.5q40 0 60 30.5t20 75.5h74v-14q0 -72 -41.5 -120t-110.5 -48q-37 0 -65.5 11.5t-46 28.5t-33.5 33.5t-36.5 28t-45.5 11.5zM582 -12
q-220 0 -359 148t-139 384q0 235 139 383t359 148t359.5 -148t139.5 -383q0 -236 -139.5 -384t-359.5 -148zM582 82q173 0 282 122t109 316q0 192 -109 315t-282 123t-282.5 -123t-109.5 -315q0 -194 109.5 -316t282.5 -122z" />
    <glyph glyph-name="odieresis" unicode="&#xf6;" horiz-adv-x="1165" 
d="M338 1321q0 31 20.5 51.5t51.5 20.5q32 0 52.5 -20.5t20.5 -51.5t-20.5 -51.5t-52.5 -20.5q-31 0 -51.5 20.5t-20.5 51.5zM680 1321q0 31 21.5 51.5t52.5 20.5t51 -20.5t20 -51.5t-20 -51.5t-51 -20.5t-52.5 20.5t-21.5 51.5zM582 -12q-220 0 -359 148t-139 384
q0 235 139 383t359 148t359.5 -148t139.5 -383q0 -236 -139.5 -384t-359.5 -148zM582 82q173 0 282 122t109 316q0 192 -109 315t-282 123t-282.5 -123t-109.5 -315q0 -194 109.5 -316t282.5 -122z" />
    <glyph glyph-name="divide" unicode="&#xf7;" 
d="M465 954q0 33 21.5 54.5t54.5 21.5q34 0 55.5 -21t21.5 -55q0 -35 -21.5 -55t-55.5 -20q-33 0 -54.5 20.5t-21.5 54.5zM946 545h-811v88h811v-88zM465 225q0 33 21.5 54.5t54.5 21.5q34 0 55.5 -21t21.5 -55q0 -35 -21.5 -56.5t-55.5 -21.5q-33 0 -54.5 21.5t-21.5 56.5z
" />
    <glyph glyph-name="oslash" unicode="&#xf8;" horiz-adv-x="1165" 
d="M1024 1051l59 -54l-114 -125q112 -140 112 -352q0 -236 -138.5 -384t-358.5 -148q-200 0 -330 118l-113 -118l-57 55l115 123q-115 140 -115 354q0 234 140 382.5t360 148.5q194 0 329 -119zM193 520q0 -162 77 -278l576 616q-108 100 -262 100q-173 0 -282 -123
t-109 -315zM975 520q0 162 -78 277l-575 -617q109 -98 262 -98q173 0 282 122t109 316z" />
    <glyph glyph-name="ugrave" unicode="&#xf9;" horiz-adv-x="1103" 
d="M403 1440l185 -271h-86l-221 271h122zM877 528v510h104v-1038h-92l-15 219q-47 -105 -139.5 -168t-224.5 -63q-181 0 -290 117t-109 352v581h104v-575q0 -184 82 -281.5t229 -97.5q161 0 256 120t95 324z" />
    <glyph glyph-name="uacute" unicode="&#xfa;" horiz-adv-x="1103" 
d="M694 1440h123l-225 -271h-84zM877 528v510h104v-1038h-92l-15 219q-47 -105 -139.5 -168t-224.5 -63q-181 0 -290 117t-109 352v581h104v-575q0 -184 82 -281.5t229 -97.5q161 0 256 120t95 324z" />
    <glyph glyph-name="ucircumflex" unicode="&#xfb;" horiz-adv-x="1103" 
d="M754 1167l-207 203l-209 -203h-102l260 273h102l260 -273h-104zM877 528v510h104v-1038h-92l-15 219q-47 -105 -139.5 -168t-224.5 -63q-181 0 -290 117t-109 352v581h104v-575q0 -184 82 -281.5t229 -97.5q161 0 256 120t95 324z" />
    <glyph glyph-name="udieresis" unicode="&#xfc;" horiz-adv-x="1103" 
d="M375 1249q-31 0 -51.5 20.5t-20.5 51.5t20.5 51.5t51.5 20.5q32 0 53 -20.5t21 -51.5t-21 -51.5t-53 -20.5zM719 1249q-31 0 -52.5 20.5t-21.5 51.5t21.5 51.5t52.5 20.5t51.5 -20.5t20.5 -51.5t-20.5 -51.5t-51.5 -20.5zM877 528v510h104v-1038h-92l-15 219
q-47 -105 -139.5 -168t-224.5 -63q-181 0 -290 117t-109 352v581h104v-575q0 -184 82 -281.5t229 -97.5q161 0 256 120t95 324z" />
    <glyph glyph-name="yacute" unicode="&#xfd;" horiz-adv-x="976" 
d="M530 1169h-84l187 271h123zM434 0l-416 1038h113l361 -903l354 903h112l-497 -1231q-28 -69 -46 -104.5t-45 -64.5t-61 -38.5t-86 -9.5h-160v97h132q76 0 105.5 27t66.5 118z" />
    <glyph glyph-name="thorn" unicode="&#xfe;" horiz-adv-x="1198" 
d="M123 -410v1844h104v-650q48 121 151 194t247 73q216 0 352.5 -144.5t136.5 -386.5q0 -235 -137 -383.5t-352 -148.5q-146 0 -250 71t-148 191v-660h-104zM1008 520q0 192 -109.5 315t-282.5 123t-282 -122.5t-109 -313.5q0 -195 109 -317.5t282 -122.5t282.5 122
t109.5 316z" />
    <glyph glyph-name="ydieresis" unicode="&#xff;" horiz-adv-x="976" 
d="M242 1321q0 31 20 51.5t51 20.5q32 0 53 -20.5t21 -51.5t-21 -51.5t-53 -20.5q-31 0 -51 20.5t-20 51.5zM584 1321q0 31 21 51.5t52 20.5t51.5 -20.5t20.5 -51.5t-20.5 -51.5t-51.5 -20.5t-52 20.5t-21 51.5zM434 0l-416 1038h113l361 -903l354 903h112l-497 -1231
q-28 -69 -46 -104.5t-45 -64.5t-61 -38.5t-86 -9.5h-160v97h132q76 0 105.5 27t66.5 118z" />
    <glyph glyph-name="Amacron" unicode="&#x100;" horiz-adv-x="1306" 
d="M915 1683h-524v80h524v-80zM150 0h-115l555 1434h129l553 -1434h-119l-172 438h-659zM651 1311l-297 -770h594z" />
    <glyph glyph-name="amacron" unicode="&#x101;" horiz-adv-x="1091" 
d="M274 1368h525v-80h-525v80zM1036 96h39v-96h-61q-92 0 -132.5 42t-37.5 134v37q-51 -104 -150.5 -164.5t-249.5 -60.5q-167 0 -266.5 80t-99.5 217q0 147 105.5 228t303.5 81h353v90q0 130 -79.5 202t-225.5 72q-130 0 -211.5 -56.5t-102.5 -153.5h-104q20 141 132 222
t290 81q195 0 300 -96t105 -275v-483q0 -58 22 -79.5t70 -21.5zM840 420v84h-361q-144 0 -219.5 -55t-75.5 -158q0 -97 72.5 -155t196.5 -58q181 0 284 94.5t103 247.5z" />
    <glyph glyph-name="Abreve" unicode="&#x102;" horiz-adv-x="1306" 
d="M395 1835h84q0 -78 48 -128t124 -50q77 0 126.5 50t49.5 128h84q-1 -118 -74 -189t-188 -71q-113 0 -183 71t-71 189zM150 0h-115l555 1434h129l553 -1434h-119l-172 438h-659zM651 1311l-297 -770h594z" />
    <glyph glyph-name="abreve" unicode="&#x103;" horiz-adv-x="1091" 
d="M532 1180q-113 0 -182.5 71t-70.5 189h83q0 -78 48.5 -128t124.5 -50q77 0 126.5 50t49.5 128h84q-1 -117 -74.5 -188.5t-188.5 -71.5zM1036 96h39v-96h-61q-92 0 -132.5 42t-37.5 134v37q-51 -104 -150.5 -164.5t-249.5 -60.5q-167 0 -266.5 80t-99.5 217
q0 147 105.5 228t303.5 81h353v90q0 130 -79.5 202t-225.5 72q-130 0 -211.5 -56.5t-102.5 -153.5h-104q20 141 132 222t290 81q195 0 300 -96t105 -275v-483q0 -58 22 -79.5t70 -21.5zM840 420v84h-361q-144 0 -219.5 -55t-75.5 -158q0 -97 72.5 -155t196.5 -58
q181 0 284 94.5t103 247.5z" />
    <glyph glyph-name="Aogonek" unicode="&#x104;" horiz-adv-x="1306" 
d="M1163 -332h125v-78h-141q-85 0 -135.5 43t-50.5 117q0 70 49.5 129.5t140.5 124.5l-170 434h-659l-172 -438h-115l555 1434h129l553 -1434q-111 -69 -167 -122t-56 -114q0 -46 30 -71t84 -25zM651 1311l-297 -770h594z" />
    <glyph glyph-name="aogonek" unicode="&#x105;" horiz-adv-x="1091" 
d="M967 -332h125v-78h-142q-85 0 -135.5 43t-50.5 117q0 70 50 130t142 124q-61 12 -88 53.5t-24 118.5v37q-51 -104 -150.5 -164.5t-249.5 -60.5q-167 0 -266.5 80t-99.5 217q0 147 105.5 228t303.5 81h353v90q0 130 -79.5 202t-225.5 72q-130 0 -211.5 -56.5
t-102.5 -153.5h-104q20 141 132 222t290 81q195 0 300 -96t105 -275v-483q0 -58 22 -79.5t70 -21.5h39v-96q-111 -69 -167 -122t-56 -114q0 -46 30.5 -71t84.5 -25zM840 420v84h-361q-144 0 -219.5 -55t-75.5 -158q0 -97 72.5 -155t196.5 -58q181 0 284 94.5t103 247.5z" />
    <glyph glyph-name="Cacute" unicode="&#x106;" horiz-adv-x="1429" 
d="M797 1565h-84l186 270h123zM754 -12q-299 0 -478.5 201t-179.5 528q0 324 183 526.5t483 202.5q226 0 380 -119t201 -334h-116q-47 169 -169 259.5t-302 90.5q-163 0 -287.5 -80t-191 -221.5t-66.5 -324.5q0 -278 147.5 -452.5t393.5 -174.5q183 0 304 90t167 262h116
q-46 -216 -200 -335t-385 -119z" />
    <glyph glyph-name="cacute" unicode="&#x107;" horiz-adv-x="1097" 
d="M625 1169h-84l186 271h123zM575 -12q-220 0 -355.5 145.5t-135.5 384.5q0 236 137 384.5t357 148.5q176 0 292 -92t148 -254h-109q-28 118 -116 185.5t-218 67.5q-171 0 -278 -123t-107 -317q0 -193 107.5 -314.5t277.5 -121.5q128 0 217 68t115 184h111
q-31 -159 -149 -252.5t-294 -93.5z" />
    <glyph glyph-name="Ccircumflex" unicode="&#x108;" horiz-adv-x="1429" 
d="M958 1563l-206 202l-209 -202h-103l260 272h103l260 -272h-105zM754 -12q-299 0 -478.5 201t-179.5 528q0 324 183 526.5t483 202.5q226 0 380 -119t201 -334h-116q-47 169 -169 259.5t-302 90.5q-163 0 -287.5 -80t-191 -221.5t-66.5 -324.5q0 -278 147.5 -452.5
t393.5 -174.5q183 0 304 90t167 262h116q-46 -216 -200 -335t-385 -119z" />
    <glyph glyph-name="ccircumflex" unicode="&#x109;" horiz-adv-x="1097" 
d="M786 1167l-206 203l-209 -203h-103l260 273h103l260 -273h-105zM575 -12q-220 0 -355.5 145.5t-135.5 384.5q0 236 137 384.5t357 148.5q176 0 292 -92t148 -254h-109q-28 118 -116 185.5t-218 67.5q-171 0 -278 -123t-107 -317q0 -193 107.5 -314.5t277.5 -121.5
q128 0 217 68t115 184h111q-31 -159 -149 -252.5t-294 -93.5z" />
    <glyph glyph-name="Cdotaccent" unicode="&#x10a;" horiz-adv-x="1429" 
d="M752 1653q-31 0 -52.5 20.5t-21.5 52.5t21.5 53t52.5 21t52 -21t21 -53t-21 -52.5t-52 -20.5zM754 -12q-299 0 -478.5 201t-179.5 528q0 324 183 526.5t483 202.5q226 0 380 -119t201 -334h-116q-47 169 -169 259.5t-302 90.5q-163 0 -287.5 -80t-191 -221.5
t-66.5 -324.5q0 -278 147.5 -452.5t393.5 -174.5q183 0 304 90t167 262h116q-46 -216 -200 -335t-385 -119z" />
    <glyph glyph-name="cdotaccent" unicode="&#x10b;" horiz-adv-x="1097" 
d="M580 1257q-31 0 -52.5 21t-21.5 53t21.5 53t52.5 21t52 -21t21 -53t-21 -53t-52 -21zM575 -12q-220 0 -355.5 145.5t-135.5 384.5q0 236 137 384.5t357 148.5q176 0 292 -92t148 -254h-109q-28 118 -116 185.5t-218 67.5q-171 0 -278 -123t-107 -317q0 -193 107.5 -314.5
t277.5 -121.5q128 0 217 68t115 184h111q-31 -159 -149 -252.5t-294 -93.5z" />
    <glyph glyph-name="Ccaron" unicode="&#x10c;" horiz-adv-x="1429" 
d="M545 1835l207 -201l209 201h102l-262 -272h-99l-262 272h105zM754 -12q-299 0 -478.5 201t-179.5 528q0 324 183 526.5t483 202.5q226 0 380 -119t201 -334h-116q-47 169 -169 259.5t-302 90.5q-163 0 -287.5 -80t-191 -221.5t-66.5 -324.5q0 -278 147.5 -452.5
t393.5 -174.5q183 0 304 90t167 262h116q-46 -216 -200 -335t-385 -119z" />
    <glyph glyph-name="ccaron" unicode="&#x10d;" horiz-adv-x="1097" 
d="M373 1440l207 -201l208 201h103l-262 -273h-99l-262 273h105zM575 -12q-220 0 -355.5 145.5t-135.5 384.5q0 236 137 384.5t357 148.5q176 0 292 -92t148 -254h-109q-28 118 -116 185.5t-218 67.5q-171 0 -278 -123t-107 -317q0 -193 107.5 -314.5t277.5 -121.5
q128 0 217 68t115 184h111q-31 -159 -149 -252.5t-294 -93.5z" />
    <glyph glyph-name="Dcaron" unicode="&#x10e;" horiz-adv-x="1384" 
d="M397 1835l207 -201l209 201h102l-262 -272h-98l-262 272h104zM565 0h-418v1434h418q338 0 529.5 -193.5t191.5 -523.5q0 -329 -191.5 -523t-529.5 -194zM258 1331v-1229h307q290 0 449.5 165t159.5 450q0 286 -159.5 450t-449.5 164h-307z" />
    <glyph glyph-name="dcaron" unicode="&#x10f;" horiz-adv-x="1302" 
d="M971 805v629h104v-1434h-90l-16 238q-52 -114 -153.5 -182t-242.5 -68q-217 0 -353 144.5t-136 387.5q0 234 137.5 382.5t351.5 148.5q143 0 246 -66.5t152 -179.5zM1176 1137l88 297h98l-109 -297h-77zM582 82q173 0 282 122t109 314q0 194 -109 317t-282 123
t-282.5 -123t-109.5 -315q0 -194 109.5 -316t282.5 -122z" />
    <glyph glyph-name="Dcroat" unicode="&#x110;" horiz-adv-x="1435" 
d="M199 1434h417q338 0 529.5 -193.5t191.5 -523.5q0 -329 -191.5 -523t-529.5 -194h-417v684h-185v94h185v656zM309 102h307q290 0 449.5 165t159.5 450q0 286 -159.5 450t-449.5 164h-307v-553h322v-94h-322v-582z" />
    <glyph glyph-name="dcroat" unicode="&#x111;" horiz-adv-x="1204" 
d="M1075 1282h187v-90h-187v-1192h-90l-16 238q-52 -114 -153.5 -182t-242.5 -68q-217 0 -353 144.5t-136 387.5q0 234 137.5 382.5t351.5 148.5q143 0 246 -66.5t152 -179.5v387h-297v90h297v152h104v-152zM582 82q173 0 282 122t109 314q0 194 -109 317t-282 123
t-282.5 -123t-109.5 -315q0 -194 109.5 -316t282.5 -122z" />
    <glyph glyph-name="Emacron" unicode="&#x112;" horiz-adv-x="1118" 
d="M856 1683h-524v80h524v-80zM147 0v1434h883v-103h-772v-547h647v-102h-647v-580h799v-102h-910z" />
    <glyph glyph-name="emacron" unicode="&#x113;" horiz-adv-x="1126" 
d="M821 1288h-524v80h524v-80zM582 -12q-222 0 -360 147.5t-138 390.5q0 231 133 378t346 147q212 0 342 -130.5t137 -359.5q0 -6 -1 -21t-1 -22h-847v-18q3 -185 106 -301.5t274 -116.5q128 0 223 70.5t126 191.5h106q-34 -159 -156 -257.5t-290 -98.5zM201 606h729
q-12 167 -111 259.5t-254 92.5q-145 0 -248.5 -98t-115.5 -254z" />
    <glyph glyph-name="Ebreve" unicode="&#x114;" horiz-adv-x="1118" 
d="M336 1835h84q0 -78 48 -128t124 -50q77 0 126.5 50t49.5 128h84q-1 -118 -74 -189t-188 -71q-113 0 -183 71t-71 189zM147 0v1434h883v-103h-772v-547h647v-102h-647v-580h799v-102h-910z" />
    <glyph glyph-name="ebreve" unicode="&#x115;" horiz-adv-x="1126" 
d="M301 1440h84q0 -78 48 -128t124 -50q77 0 126.5 50t49.5 128h84q-1 -118 -74 -189t-188 -71q-113 0 -183 71t-71 189zM582 -12q-222 0 -360 147.5t-138 390.5q0 231 133 378t346 147q212 0 342 -130.5t137 -359.5q0 -6 -1 -21t-1 -22h-847v-18q3 -185 106 -301.5
t274 -116.5q128 0 223 70.5t126 191.5h106q-34 -159 -156 -257.5t-290 -98.5zM201 606h729q-12 167 -111 259.5t-254 92.5q-145 0 -248.5 -98t-115.5 -254z" />
    <glyph glyph-name="Edotaccent" unicode="&#x116;" horiz-adv-x="1118" 
d="M594 1653q-31 0 -52.5 20.5t-21.5 52.5t21.5 53t52.5 21t52.5 -21t21.5 -53t-21.5 -52.5t-52.5 -20.5zM147 0v1434h883v-103h-772v-547h647v-102h-647v-580h799v-102h-910z" />
    <glyph glyph-name="edotaccent" unicode="&#x117;" horiz-adv-x="1126" 
d="M559 1257q-31 0 -52.5 21t-21.5 53t21.5 53t52.5 21t52.5 -21t21.5 -53t-21.5 -53t-52.5 -21zM582 -12q-222 0 -360 147.5t-138 390.5q0 231 133 378t346 147q212 0 342 -130.5t137 -359.5q0 -6 -1 -21t-1 -22h-847v-18q3 -185 106 -301.5t274 -116.5q128 0 223 70.5
t126 191.5h106q-34 -159 -156 -257.5t-290 -98.5zM201 606h729q-12 167 -111 259.5t-254 92.5q-145 0 -248.5 -98t-115.5 -254z" />
    <glyph glyph-name="Eogonek" unicode="&#x118;" horiz-adv-x="1118" 
d="M948 -332h125v-78h-141q-85 0 -136 43t-51 117q0 68 48 126t137 124h-783v1434h883v-103h-772v-547h647v-102h-647v-580h799v-102q-111 -69 -167 -122t-56 -114q0 -46 30 -71t84 -25z" />
    <glyph glyph-name="eogonek" unicode="&#x119;" horiz-adv-x="1126" 
d="M803 -410h-141q-85 0 -136 43t-51 117q0 117 166 248q-51 -11 -90 -8q-210 11 -338.5 156.5t-128.5 373.5q0 235 133 383t346 148q212 0 342 -130.5t137 -359.5q0 -6 -1 -21t-1 -22h-845q-2 -8 -2 -24q3 -183 108.5 -297.5t271.5 -114.5q127 0 223 71t126 191h106
q-41 -179 -186 -278l-30 -21q-51 -36 -77 -54.5t-65 -51.5t-58 -57t-34 -55.5t-15 -62.5q0 -46 30 -71t85 -25h125v-78zM201 606h729q-12 167 -111 259.5t-254 92.5q-144 0 -247.5 -98t-116.5 -254z" />
    <glyph glyph-name="Ecaron" unicode="&#x11a;" horiz-adv-x="1118" 
d="M387 1835l207 -201l209 201h102l-262 -272h-98l-262 272h104zM147 0v1434h883v-103h-772v-547h647v-102h-647v-580h799v-102h-910z" />
    <glyph glyph-name="ecaron" unicode="&#x11b;" horiz-adv-x="1126" 
d="M352 1440l207 -201l209 201h102l-262 -273h-98l-262 273h104zM582 -12q-222 0 -360 147.5t-138 390.5q0 231 133 378t346 147q212 0 342 -130.5t137 -359.5q0 -6 -1 -21t-1 -22h-847v-18q3 -185 106 -301.5t274 -116.5q128 0 223 70.5t126 191.5h106
q-34 -159 -156 -257.5t-290 -98.5zM201 606h729q-12 167 -111 259.5t-254 92.5q-145 0 -248.5 -98t-115.5 -254z" />
    <glyph glyph-name="Gcircumflex" unicode="&#x11c;" horiz-adv-x="1513" 
d="M965 1563l-207 202l-209 -202h-103l261 272h102l260 -272h-104zM743 -12q-287 0 -467 202.5t-180 526.5q0 214 80.5 379t232 257.5t351.5 92.5q227 0 383 -119.5t200 -333.5h-118q-44 169 -165.5 259.5t-303.5 90.5q-163 0 -287.5 -80t-191 -221.5t-66.5 -324.5
q0 -278 147 -452.5t387 -174.5q233 0 372.5 139.5t139.5 354.5v61h-471v103h578v-748h-96l-6 317q-50 -141 -183.5 -235t-335.5 -94z" />
    <glyph glyph-name="gcircumflex" unicode="&#x11d;" horiz-adv-x="1198" 
d="M786 1167l-206 203l-209 -203h-103l260 273h103l260 -273h-105zM969 797l16 241h90v-975q0 -245 -121 -365t-372 -120q-192 0 -315.5 88.5t-147.5 251.5h108q25 -118 120.5 -182t242.5 -64q190 0 285.5 96t95.5 300v184q-51 -124 -153 -194t-245 -70q-217 0 -353 144.5
t-136 387.5q0 235 137 383t352 148q142 0 245 -68t151 -186zM582 82q173 0 282 122t109 314q0 195 -109 317.5t-282 122.5t-282.5 -122t-109.5 -316t109.5 -316t282.5 -122z" />
    <glyph glyph-name="Gbreve" unicode="&#x11e;" horiz-adv-x="1513" 
d="M500 1835h84q0 -78 48 -128t124 -50q77 0 126.5 50t49.5 128h84q-1 -118 -74 -189t-188 -71q-113 0 -183 71t-71 189zM743 -12q-287 0 -467 202.5t-180 526.5q0 214 80.5 379t232 257.5t351.5 92.5q227 0 383 -119.5t200 -333.5h-118q-44 169 -165.5 259.5t-303.5 90.5
q-163 0 -287.5 -80t-191 -221.5t-66.5 -324.5q0 -278 147 -452.5t387 -174.5q233 0 372.5 139.5t139.5 354.5v61h-471v103h578v-748h-96l-6 317q-50 -141 -183.5 -235t-335.5 -94z" />
    <glyph glyph-name="gbreve" unicode="&#x11f;" horiz-adv-x="1198" 
d="M575 1180q-113 0 -182.5 71t-70.5 189h84q0 -78 48 -128t124 -50q77 0 126.5 50t49.5 128h84q-1 -117 -74.5 -188.5t-188.5 -71.5zM969 797l16 241h90v-975q0 -245 -121 -365t-372 -120q-192 0 -315.5 88.5t-147.5 251.5h108q25 -118 120.5 -182t242.5 -64
q190 0 285.5 96t95.5 300v184q-51 -124 -153 -194t-245 -70q-217 0 -353 144.5t-136 387.5q0 235 137 383t352 148q142 0 245 -68t151 -186zM582 82q173 0 282 122t109 314q0 195 -109 317.5t-282 122.5t-282.5 -122t-109.5 -316t109.5 -316t282.5 -122z" />
    <glyph glyph-name="Gdotaccent" unicode="&#x120;" horiz-adv-x="1513" 
d="M758 1653q-31 0 -52.5 20.5t-21.5 52.5t21.5 53t52.5 21t52 -21t21 -53t-21 -52.5t-52 -20.5zM743 -12q-287 0 -467 202.5t-180 526.5q0 214 80.5 379t232 257.5t351.5 92.5q227 0 383 -119.5t200 -333.5h-118q-44 169 -165.5 259.5t-303.5 90.5q-163 0 -287.5 -80
t-191 -221.5t-66.5 -324.5q0 -278 147 -452.5t387 -174.5q233 0 372.5 139.5t139.5 354.5v61h-471v103h578v-748h-96l-6 317q-50 -141 -183.5 -235t-335.5 -94z" />
    <glyph glyph-name="gdotaccent" unicode="&#x121;" horiz-adv-x="1198" 
d="M580 1257q-31 0 -52.5 21t-21.5 53t21.5 53t52.5 21t52 -21t21 -53t-21 -53t-52 -21zM969 797l16 241h90v-975q0 -245 -121 -365t-372 -120q-192 0 -315.5 88.5t-147.5 251.5h108q25 -118 120.5 -182t242.5 -64q190 0 285.5 96t95.5 300v184q-51 -124 -153 -194t-245 -70
q-217 0 -353 144.5t-136 387.5q0 235 137 383t352 148q142 0 245 -68t151 -186zM582 82q173 0 282 122t109 314q0 195 -109 317.5t-282 122.5t-282.5 -122t-109.5 -316t109.5 -316t282.5 -122z" />
    <glyph glyph-name="uni0122" unicode="&#x122;" horiz-adv-x="1513" 
d="M743 -12q-287 0 -467 202.5t-180 526.5q0 214 80.5 379t232 257.5t351.5 92.5q227 0 383 -119.5t200 -333.5h-118q-44 169 -165.5 259.5t-303.5 90.5q-163 0 -287.5 -80t-191 -221.5t-66.5 -324.5q0 -278 147 -452.5t387 -174.5q233 0 372.5 139.5t139.5 354.5v61h-471
v103h578v-748h-96l-6 317q-50 -141 -183.5 -235t-335.5 -94zM623 -395l94 289h104l-121 -289h-77z" />
    <glyph glyph-name="uni0123" unicode="&#x123;" horiz-adv-x="1198" 
d="M627 1440h82l-95 -289h-102zM969 797l16 241h90v-975q0 -245 -121 -365t-372 -120q-192 0 -315.5 88.5t-147.5 251.5h108q25 -118 120.5 -182t242.5 -64q190 0 285.5 96t95.5 300v184q-51 -124 -153 -194t-245 -70q-217 0 -353 144.5t-136 387.5q0 235 137 383t352 148
q142 0 245 -68t151 -186zM582 82q173 0 282 122t109 314q0 195 -109 317.5t-282 122.5t-282.5 -122t-109.5 -316t109.5 -316t282.5 -122z" />
    <glyph glyph-name="Hcircumflex" unicode="&#x124;" horiz-adv-x="1345" 
d="M879 1563l-207 202l-209 -202h-103l261 272h102l260 -272h-104zM147 0v1434h111v-652h829v652h111v-1434h-111v680h-829v-680h-111z" />
    <glyph glyph-name="hcircumflex" unicode="&#x125;" horiz-adv-x="1122" 
d="M485 1542h-104l-207 203l-209 -203h-102l260 273h102zM602 1051q187 0 298.5 -116.5t111.5 -352.5v-582h-105v578q0 182 -85 279t-236 97q-165 0 -262 -119.5t-97 -322.5v-512h-104v1434h104v-641q47 119 141 188.5t234 69.5z" />
    <glyph glyph-name="Hbar" unicode="&#x126;" horiz-adv-x="1380" 
d="M1214 1149h160v-94h-160v-1055h-110v664h-828v-664h-110v1055h-162v94h162v285h110v-285h828v285h110v-285zM276 766h828v289h-828v-289z" />
    <glyph glyph-name="hbar" unicode="&#x127;" horiz-adv-x="1128" 
d="M608 1051q187 0 298.5 -116.5t111.5 -352.5v-582h-105v578q0 182 -85 279t-236 97q-165 0 -262 -119.5t-97 -322.5v-512h-104v1192h-182v90h182v152h104v-152h302v-90h-302v-399q45 119 140 188.5t235 69.5z" />
    <glyph glyph-name="Itilde" unicode="&#x128;" horiz-adv-x="405" 
d="M90 1741q-40 0 -60 -31.5t-20 -75.5h-73v15q0 71 41 119.5t110 48.5q36 0 64.5 -11.5t46 -28.5t34 -33.5t37 -28t45.5 -11.5q40 0 60 30.5t20 75.5h74v-14q0 -72 -41.5 -120t-110.5 -48q-37 0 -65.5 11.5t-46 28t-33.5 33.5t-36.5 28.5t-45.5 11.5zM147 0v1434h111v-1434
h-111z" />
    <glyph glyph-name="itilde" unicode="&#x129;" horiz-adv-x="350" 
d="M63 1346q-40 0 -59.5 -31.5t-19.5 -75.5h-74v14q0 71 41 119.5t110 48.5q36 0 64.5 -11.5t46.5 -28t34 -33t37 -28t46 -11.5q40 0 60 30.5t20 75.5h73v-14q0 -72 -41 -120t-110 -48q-37 0 -65.5 11.5t-46.5 28.5t-34 33.5t-36.5 28t-45.5 11.5zM123 0v1038h104v-1038
h-104z" />
    <glyph glyph-name="Imacron" unicode="&#x12a;" horiz-adv-x="405" 
d="M465 1683h-524v80h524v-80zM147 0v1434h111v-1434h-111z" />
    <glyph glyph-name="imacron" unicode="&#x12b;" horiz-adv-x="350" 
d="M438 1288h-524v80h524v-80zM123 0v1038h104v-1038h-104z" />
    <glyph glyph-name="Ibreve" unicode="&#x12c;" horiz-adv-x="405" 
d="M-55 1835h84q0 -78 48 -128t124 -50q77 0 126.5 50t49.5 128h84q-1 -118 -74 -189t-188 -71q-113 0 -183 71t-71 189zM147 0v1434h111v-1434h-111z" />
    <glyph glyph-name="ibreve" unicode="&#x12d;" horiz-adv-x="350" 
d="M-82 1440h84q0 -78 48 -128t124 -50q77 0 126.5 50t49.5 128h84q-1 -118 -74 -189t-188 -71q-113 0 -183 71t-71 189zM123 0v1038h104v-1038h-104z" />
    <glyph glyph-name="Iogonek" unicode="&#x12e;" horiz-adv-x="405" 
d="M150 -332h124v-78h-141q-85 0 -135.5 43t-50.5 117q0 71 52 132t148 128v1424h111v-1434q-111 -69 -167 -122t-56 -114q0 -46 30.5 -71t84.5 -25z" />
    <glyph glyph-name="iogonek" unicode="&#x12f;" horiz-adv-x="350" 
d="M176 1257q-31 0 -52.5 21t-21.5 53t21.5 53t52.5 21t52.5 -21t21.5 -53t-21.5 -53t-52.5 -21zM4 -236q0 -46 30.5 -71t84.5 -25h125v-78h-142q-85 0 -135.5 43t-50.5 117q0 73 53.5 134t153.5 130v1024h104v-1038q-111 -69 -167 -122t-56 -114z" />
    <glyph glyph-name="Idotaccent" unicode="&#x130;" horiz-adv-x="405" 
d="M203 1653q-31 0 -52.5 20.5t-21.5 52.5t21.5 53t52.5 21t52 -21t21 -53t-21 -52.5t-52 -20.5zM147 0v1434h111v-1434h-111z" />
    <glyph glyph-name="dotlessi" unicode="&#x131;" horiz-adv-x="350" 
d="M123 0v1038h104v-1038h-104z" />
    <glyph glyph-name="IJ" unicode="&#x132;" horiz-adv-x="1220" 
d="M141 508h111q0 -197 93 -307.5t263 -110.5q179 0 270 100.5t91 329.5v914h110v-912q0 -280 -120 -407t-351 -127q-224 0 -346 135.5t-121 384.5zM141 846v588h111v-588h-111z" />
    <glyph glyph-name="ij" unicode="&#x133;" horiz-adv-x="712" 
d="M176 1257q-31 0 -52.5 21t-21.5 53t21.5 53t52.5 21t52.5 -21t21.5 -53t-21.5 -53t-52.5 -21zM537 1257q-32 0 -53 21t-21 53t21 53t53 21q31 0 52 -21t21 -53t-21 -53t-52 -21zM123 0v1038h104v-1038h-104zM219 -410v97h123q78 0 110.5 33t32.5 110v1208h105v-1206
q0 -126 -57.5 -184t-186.5 -58h-127z" />
    <glyph glyph-name="Jcircumflex" unicode="&#x134;" horiz-adv-x="694" 
d="M696 1563l-207 202l-208 -202h-103l260 272h103l260 -272h-105zM436 307v1127h111v-1135q0 -299 -299 -299h-191v102h176q107 0 155 49.5t48 155.5z" />
    <glyph glyph-name="jcircumflex" unicode="&#x135;" horiz-adv-x="362" 
d="M393 1167l-207 203l-209 -203h-102l260 273h103l260 -273h-105zM-131 -410v97h123q78 0 110.5 33t32.5 110v1208h105v-1206q0 -126 -57.5 -184t-186.5 -58h-127z" />
    <glyph glyph-name="uni0136" unicode="&#x136;" horiz-adv-x="1249" 
d="M147 0v1434h111v-904l793 904h135l-520 -603l567 -831h-133l-516 748l-326 -373v-375h-111zM498 -397l94 288h104l-121 -288h-77z" />
    <glyph glyph-name="uni0137" unicode="&#x137;" horiz-adv-x="1007" 
d="M123 0v1434h104v-1018l604 622h130l-418 -432l452 -606h-127l-397 530l-244 -249v-281h-104zM391 -397l94 288h105l-121 -288h-78z" />
    <glyph glyph-name="kgreenlandic" unicode="&#x138;" horiz-adv-x="1007" 
d="M123 0v1038h104v-622l604 622h130l-418 -432l452 -606h-127l-397 530l-244 -249v-281h-104z" />
    <glyph glyph-name="Lacute" unicode="&#x139;" horiz-adv-x="985" 
d="M248 1565h-84l186 270h123zM944 0h-797v1434h111v-1332h686v-102z" />
    <glyph glyph-name="lacute" unicode="&#x13a;" horiz-adv-x="350" 
d="M219 1544h-84l187 271h122zM123 0v1434h104v-1434h-104z" />
    <glyph glyph-name="uni013B" unicode="&#x13b;" horiz-adv-x="985" 
d="M944 0h-797v1434h111v-1332h686v-102zM406 -397l94 288h104l-121 -288h-77z" />
    <glyph glyph-name="uni013C" unicode="&#x13c;" horiz-adv-x="350" 
d="M123 0v1434h104v-1434h-104zM25 -397l94 288h104l-121 -288h-77z" />
    <glyph glyph-name="Lcaron" unicode="&#x13d;" horiz-adv-x="985" 
d="M944 0h-797v1434h111v-1332h686v-102zM410 1137l86 297h100l-109 -297h-77z" />
    <glyph glyph-name="lcaron" unicode="&#x13e;" horiz-adv-x="448" 
d="M123 0v1434h104v-1434h-104zM322 1137l88 297h98l-109 -297h-77z" />
    <glyph glyph-name="Ldot" unicode="&#x13f;" horiz-adv-x="991" 
d="M944 0h-797v1434h111v-1332h686v-102zM700 672q-32 0 -52.5 20.5t-20.5 52.5t20.5 53t52.5 21q31 0 52.5 -21t21.5 -53t-21.5 -52.5t-52.5 -20.5z" />
    <glyph glyph-name="ldot" unicode="&#x140;" horiz-adv-x="557" 
d="M123 0v1434h104v-1434h-104zM451 653q-32 0 -53 21t-21 53t21 53t53 21q31 0 52 -21t21 -53t-21 -53t-52 -21z" />
    <glyph glyph-name="Lslash" unicode="&#x141;" horiz-adv-x="1024" 
d="M291 690v-588h686v-102h-797v629l-166 -90v100l166 90v705h111v-643l340 186v-100z" />
    <glyph glyph-name="lslash" unicode="&#x142;" horiz-adv-x="489" 
d="M297 862l178 105v-101l-178 -104v-762h-104v700l-179 -104v100l179 105v633h104v-572z" />
    <glyph glyph-name="Nacute" unicode="&#x143;" horiz-adv-x="1355" 
d="M717 1565h-84l186 270h123zM256 0h-109v1434h105l848 -1233v1233h108v-1434h-104l-848 1233v-1233z" />
    <glyph glyph-name="nacute" unicode="&#x144;" horiz-adv-x="1120" 
d="M741 1440h123l-225 -271h-84zM602 1051q187 0 298.5 -116.5t111.5 -352.5v-582h-105v578q0 183 -84.5 279.5t-236.5 96.5q-165 0 -262 -119.5t-97 -322.5v-512h-104v1038h90l16 -221q47 107 141.5 170.5t231.5 63.5z" />
    <glyph glyph-name="uni0145" unicode="&#x145;" horiz-adv-x="1355" 
d="M256 0h-109v1434h105l848 -1233v1233h108v-1434h-104l-848 1233v-1233zM528 -397l95 288h104l-121 -288h-78z" />
    <glyph glyph-name="uni0146" unicode="&#x146;" horiz-adv-x="1120" 
d="M602 1051q187 0 298.5 -116.5t111.5 -352.5v-582h-105v578q0 183 -84.5 279.5t-236.5 96.5q-165 0 -262 -119.5t-97 -322.5v-512h-104v1038h90l16 -221q47 107 141.5 170.5t231.5 63.5zM496 -397h-78l94 288h104z" />
    <glyph glyph-name="Ncaron" unicode="&#x147;" horiz-adv-x="1355" 
d="M465 1835l207 -201l209 201h102l-262 -272h-98l-263 272h105zM256 0h-109v1434h105l848 -1233v1233h108v-1434h-104l-848 1233v-1233z" />
    <glyph glyph-name="ncaron" unicode="&#x148;" horiz-adv-x="1120" 
d="M905 1440l-262 -273h-98l-262 273h104l207 -201l209 201h102zM602 1051q187 0 298.5 -116.5t111.5 -352.5v-582h-105v578q0 183 -84.5 279.5t-236.5 96.5q-165 0 -262 -119.5t-97 -322.5v-512h-104v1038h90l16 -221q47 107 141.5 170.5t231.5 63.5z" />
    <glyph glyph-name="napostrophe" unicode="&#x149;" horiz-adv-x="1441" 
d="M166 1444q55 0 91 -49.5t36 -120.5q0 -102 -62.5 -167t-167.5 -69v62q73 3 113.5 50.5t40.5 111.5q0 35 -18 53q-16 -25 -52 -25q-31 0 -51 19.5t-20 54.5q0 36 24.5 58t65.5 22zM924 1051q186 0 296.5 -116.5t110.5 -352.5v-582h-104v578q0 182 -84.5 279t-235.5 97
q-167 0 -263.5 -119.5t-96.5 -322.5v-512h-105v1038h93l16 -217q47 105 141.5 167.5t231.5 62.5z" />
    <glyph glyph-name="Eng" unicode="&#x14a;" horiz-adv-x="1355" 
d="M1100 203v1231h108v-1598q0 -128 -57.5 -187t-187.5 -59h-129v101h122q78 0 111 33t33 110v174l-844 1225v-1233h-109v1434h105z" />
    <glyph glyph-name="eng" unicode="&#x14b;" horiz-adv-x="1120" 
d="M602 1051q187 0 298.5 -116.5t111.5 -352.5v-750q0 -125 -58 -183.5t-186 -58.5h-133v97h127q78 0 111.5 33t33.5 110v748q0 183 -84.5 279.5t-236.5 96.5q-165 0 -262 -119.5t-97 -322.5v-512h-104v1038h90l14 -237q43 114 139.5 182t235.5 68z" />
    <glyph glyph-name="Omacron" unicode="&#x14c;" horiz-adv-x="1533" 
d="M1030 1683h-524v80h524v-80zM1436 717q0 -210 -84.5 -376t-237.5 -259.5t-348 -93.5q-194 0 -347 93.5t-238 259.5t-85 376t85 376t238 259.5t347 93.5q195 0 348 -93.5t237.5 -259.5t84.5 -376zM211 717q0 -276 155 -451.5t400 -175.5q163 0 290 80t197 222.5t70 324.5
q0 276 -155 451t-402 175q-162 0 -288.5 -79.5t-196.5 -222t-70 -324.5z" />
    <glyph glyph-name="omacron" unicode="&#x14d;" horiz-adv-x="1165" 
d="M844 1288h-525v80h525v-80zM582 -12q-220 0 -359 148t-139 384q0 235 139 383t359 148t359.5 -148t139.5 -383q0 -236 -139.5 -384t-359.5 -148zM582 82q173 0 282 122t109 316q0 192 -109 315t-282 123t-282.5 -123t-109.5 -315q0 -194 109.5 -316t282.5 -122z" />
    <glyph glyph-name="Obreve" unicode="&#x14e;" horiz-adv-x="1533" 
d="M510 1835h84q0 -78 48 -128t124 -50q77 0 126.5 50t49.5 128h84q-1 -118 -74 -189t-188 -71q-113 0 -183 71t-71 189zM1436 717q0 -210 -84.5 -376t-237.5 -259.5t-348 -93.5q-194 0 -347 93.5t-238 259.5t-85 376t85 376t238 259.5t347 93.5q195 0 348 -93.5
t237.5 -259.5t84.5 -376zM211 717q0 -276 155 -451.5t400 -175.5q163 0 290 80t197 222.5t70 324.5q0 276 -155 451t-402 175q-162 0 -288.5 -79.5t-196.5 -222t-70 -324.5z" />
    <glyph glyph-name="obreve" unicode="&#x14f;" horiz-adv-x="1165" 
d="M324 1440h84q0 -78 48 -128t124 -50q77 0 126.5 50t49.5 128h84q-1 -118 -74 -189t-188 -71q-113 0 -183 71t-71 189zM582 -12q-220 0 -359 148t-139 384q0 235 139 383t359 148t359.5 -148t139.5 -383q0 -236 -139.5 -384t-359.5 -148zM582 82q173 0 282 122t109 316
q0 192 -109 315t-282 123t-282.5 -123t-109.5 -315q0 -194 109.5 -316t282.5 -122z" />
    <glyph glyph-name="Ohungarumlaut" unicode="&#x150;" horiz-adv-x="1533" 
d="M627 1563h-84l186 272h121zM963 1563h-84l186 272h119zM1436 717q0 -210 -84.5 -376t-237.5 -259.5t-348 -93.5q-194 0 -347 93.5t-238 259.5t-85 376t85 376t238 259.5t347 93.5q195 0 348 -93.5t237.5 -259.5t84.5 -376zM211 717q0 -276 155 -451.5t400 -175.5
q163 0 290 80t197 222.5t70 324.5q0 276 -155 451t-402 175q-162 0 -288.5 -79.5t-196.5 -222t-70 -324.5z" />
    <glyph glyph-name="ohungarumlaut" unicode="&#x151;" horiz-adv-x="1165" 
d="M440 1167h-84l187 273h121zM776 1167h-84l187 273h118zM582 -12q-220 0 -359 148t-139 384q0 235 139 383t359 148t359.5 -148t139.5 -383q0 -236 -139.5 -384t-359.5 -148zM582 82q173 0 282 122t109 316q0 192 -109 315t-282 123t-282.5 -123t-109.5 -315
q0 -194 109.5 -316t282.5 -122z" />
    <glyph glyph-name="OE" unicode="&#x152;" horiz-adv-x="2314" 
d="M1454 682v-580h799v-102h-910v354q-74 -171 -220 -268.5t-347 -97.5q-199 0 -354 93.5t-240.5 259.5t-85.5 376t85.5 376t240.5 259.5t354 93.5q201 0 347 -97.5t220 -269.5v355h881v-103h-770v-547h647v-102h-647zM778 90q252 0 408.5 175t156.5 452q0 275 -156.5 450.5
t-408.5 175.5q-253 0 -410 -175t-157 -451q0 -182 70.5 -324.5t199.5 -222.5t297 -80z" />
    <glyph glyph-name="oe" unicode="&#x153;" horiz-adv-x="2007" 
d="M1921 518h-848v-24q3 -183 108.5 -297.5t272.5 -114.5q127 0 222.5 70.5t127.5 191.5h105q-34 -158 -156 -257t-291 -99q-154 0 -270 76.5t-172 209.5q-59 -134 -173.5 -210t-264.5 -76q-220 0 -359 148.5t-139 385.5q0 234 139 381.5t359 147.5q152 0 268 -75.5
t174 -207.5q56 133 165.5 208t254.5 75q210 0 341 -130.5t138 -359.5q0 -6 -1 -21t-1 -22zM582 82q173 0 282 122.5t109 313.5q0 195 -109 317.5t-282 122.5t-282.5 -122.5t-109.5 -313.5q0 -194 109.5 -317t282.5 -123zM1444 958q-144 0 -248 -98t-117 -254h731
q-13 167 -112 259.5t-254 92.5z" />
    <glyph glyph-name="Racute" unicode="&#x154;" horiz-adv-x="1218" 
d="M623 1565h-84l186 270h123zM147 0v1434h531q204 0 327 -114t123 -304q0 -158 -93 -265.5t-251 -132.5l349 -618h-125l-338 598h-412v-598h-111zM672 1331h-414v-631h412q158 0 252 86.5t94 229.5q0 145 -93 230t-251 85z" />
    <glyph glyph-name="racute" unicode="&#x155;" horiz-adv-x="634" 
d="M492 1440h122l-225 -271h-84zM213 1038l16 -207q36 97 110 152t208 55h55v-100h-76q-299 0 -299 -412v-526h-104v1038h90z" />
    <glyph glyph-name="uni0156" unicode="&#x156;" horiz-adv-x="1218" 
d="M147 0v1434h531q204 0 327 -114t123 -304q0 -158 -93 -265.5t-251 -132.5l349 -618h-125l-338 598h-412v-598h-111zM672 1331h-414v-631h412q158 0 252 86.5t94 229.5q0 145 -93 230t-251 85zM459 -397l94 288h104l-120 -288h-78z" />
    <glyph glyph-name="uni0157" unicode="&#x157;" horiz-adv-x="634" 
d="M547 1038h55v-100h-76q-299 0 -299 -412v-526h-104v1038h90l16 -207q36 97 110 152t208 55zM102 -397h-77l94 288h104z" />
    <glyph glyph-name="Rcaron" unicode="&#x158;" horiz-adv-x="1218" 
d="M371 1835l207 -201l208 201h103l-262 -272h-99l-262 272h105zM147 0v1434h531q204 0 327 -114t123 -304q0 -158 -93 -265.5t-251 -132.5l349 -618h-125l-338 598h-412v-598h-111zM672 1331h-414v-631h412q158 0 252 86.5t94 229.5q0 145 -93 230t-251 85z" />
    <glyph glyph-name="rcaron" unicode="&#x159;" horiz-adv-x="634" 
d="M655 1440l-262 -273h-98l-262 273h104l207 -201l209 201h102zM213 1038l16 -207q36 97 110 152t208 55h55v-100h-76q-299 0 -299 -412v-526h-104v1038h90z" />
    <glyph glyph-name="Sacute" unicode="&#x15a;" horiz-adv-x="1222" 
d="M664 1565h-84l186 270h123zM94 440h115q11 -160 125 -256t295 -96q175 0 281 79t106 216q0 44 -12.5 80t-32 62.5t-53 48.5t-65.5 36t-81 27.5t-87 21t-95 17.5q-56 10 -98 19t-93 24.5t-88 34t-73.5 47t-59.5 62.5t-37 81.5t-14 104.5q0 182 131 289.5t350 107.5
q218 0 351.5 -111t148.5 -297h-113q-19 141 -123 224.5t-264 83.5q-171 0 -270.5 -76.5t-99.5 -214.5q0 -43 12 -78t30 -60t51 -46t62 -34t78 -25.5t83.5 -19t92.5 -16.5q68 -12 119 -24t110 -32.5t100.5 -48.5t77.5 -66.5t54 -92t18 -119.5q0 -182 -137 -293.5t-362 -111.5
q-238 0 -380 123.5t-153 328.5z" />
    <glyph glyph-name="sacute" unicode="&#x15b;" horiz-adv-x="997" 
d="M543 1169h-84l186 271h123zM76 319h106q6 -112 96 -176.5t240 -64.5q130 0 214.5 55t84.5 146q0 28 -5.5 51.5t-19.5 41.5t-28 31.5t-40 24t-45 17.5t-55 14t-58 10.5t-64 9.5q-53 7 -90 13.5t-83 17.5t-77 24.5t-63 34t-50.5 46t-30.5 61.5t-12 80q0 133 112 215t286 80
q174 0 285 -79t124 -227h-106q-13 100 -95.5 158t-207.5 58q-132 0 -212.5 -54t-80.5 -143q0 -24 6 -44t13 -35t24.5 -28.5t29.5 -22t39 -17t41.5 -13t48.5 -10.5t49 -8t54 -8q65 -9 109.5 -17.5t97 -23.5t86.5 -35.5t64 -50t44.5 -71.5t14.5 -95q0 -135 -116 -216t-288 -81
q-199 0 -317.5 86t-124.5 245z" />
    <glyph glyph-name="Scircumflex" unicode="&#x15c;" horiz-adv-x="1222" 
d="M825 1563l-207 202l-208 -202h-103l260 272h103l260 -272h-105zM94 440h115q11 -160 125 -256t295 -96q175 0 281 79t106 216q0 44 -12.5 80t-32 62.5t-53 48.5t-65.5 36t-81 27.5t-87 21t-95 17.5q-56 10 -98 19t-93 24.5t-88 34t-73.5 47t-59.5 62.5t-37 81.5
t-14 104.5q0 182 131 289.5t350 107.5q218 0 351.5 -111t148.5 -297h-113q-19 141 -123 224.5t-264 83.5q-171 0 -270.5 -76.5t-99.5 -214.5q0 -43 12 -78t30 -60t51 -46t62 -34t78 -25.5t83.5 -19t92.5 -16.5q68 -12 119 -24t110 -32.5t100.5 -48.5t77.5 -66.5t54 -92
t18 -119.5q0 -182 -137 -293.5t-362 -111.5q-238 0 -380 123.5t-153 328.5z" />
    <glyph glyph-name="scircumflex" unicode="&#x15d;" horiz-adv-x="997" 
d="M705 1167l-207 203l-209 -203h-103l260 273h103l260 -273h-104zM76 319h106q6 -112 96 -176.5t240 -64.5q130 0 214.5 55t84.5 146q0 28 -5.5 51.5t-19.5 41.5t-28 31.5t-40 24t-45 17.5t-55 14t-58 10.5t-64 9.5q-53 7 -90 13.5t-83 17.5t-77 24.5t-63 34t-50.5 46
t-30.5 61.5t-12 80q0 133 112 215t286 80q174 0 285 -79t124 -227h-106q-13 100 -95.5 158t-207.5 58q-132 0 -212.5 -54t-80.5 -143q0 -24 6 -44t13 -35t24.5 -28.5t29.5 -22t39 -17t41.5 -13t48.5 -10.5t49 -8t54 -8q65 -9 109.5 -17.5t97 -23.5t86.5 -35.5t64 -50
t44.5 -71.5t14.5 -95q0 -135 -116 -216t-288 -81q-199 0 -317.5 86t-124.5 245z" />
    <glyph glyph-name="Scedilla" unicode="&#x15e;" horiz-adv-x="1222" 
d="M1126 393q0 -175 -129 -286.5t-344 -118.5l-20 -88h29q74 0 121.5 -39.5t47.5 -108.5q0 -73 -48.5 -117.5t-125.5 -44.5h-168v66h156q49 0 77 24.5t28 67.5q0 42 -28 65t-75 23h-96l37 152q-222 10 -352.5 132.5t-141.5 319.5h115q11 -160 125 -256t295 -96q175 0 281 79
t106 216q0 44 -12.5 80t-32 62.5t-53 48.5t-65.5 36t-81 27.5t-87 21t-95 17.5q-56 10 -98 19t-93 24.5t-88 34t-73.5 47t-59.5 62.5t-37 81.5t-14 104.5q0 182 131 289.5t350 107.5q218 0 351.5 -111t148.5 -297h-113q-19 141 -123 224.5t-264 83.5q-171 0 -270.5 -76.5
t-99.5 -214.5q0 -43 12 -78t30 -60t51 -46t62 -34t78 -25.5t83.5 -19t92.5 -16.5q68 -12 119 -24t110 -32.5t100.5 -48.5t77.5 -66.5t54 -92t18 -119.5z" />
    <glyph glyph-name="scedilla" unicode="&#x15f;" horiz-adv-x="997" 
d="M922 285q0 -127 -105 -207.5t-266 -89.5l-21 -88h29q74 0 122 -39.5t48 -108.5q0 -73 -48.5 -117.5t-125.5 -44.5h-168v66h156q49 0 76.5 24.5t27.5 67.5q0 42 -27.5 65t-74.5 23h-96l36 152q-185 8 -294 93t-115 238h106q6 -112 96 -176.5t240 -64.5q130 0 214.5 55
t84.5 146q0 28 -5.5 51.5t-19.5 41.5t-28 31.5t-40 24t-45 17.5t-55 14t-58 10.5t-64 9.5q-53 7 -90 13.5t-83 17.5t-77 24.5t-63 34t-50.5 46t-30.5 61.5t-12 80q0 133 112 215t286 80q174 0 285 -79t124 -227h-106q-13 100 -95.5 158t-207.5 58q-132 0 -212.5 -54
t-80.5 -143q0 -24 6 -44t13 -35t24.5 -28.5t29.5 -22t39 -17t41.5 -13t48.5 -10.5t49 -8t54 -8q65 -9 109.5 -17.5t97 -23.5t86.5 -35.5t64 -50t44.5 -71.5t14.5 -95z" />
    <glyph glyph-name="Scaron" unicode="&#x160;" horiz-adv-x="1222" 
d="M412 1835l206 -201l209 201h103l-262 -272h-99l-262 272h105zM94 440h115q11 -160 125 -256t295 -96q175 0 281 79t106 216q0 44 -12.5 80t-32 62.5t-53 48.5t-65.5 36t-81 27.5t-87 21t-95 17.5q-56 10 -98 19t-93 24.5t-88 34t-73.5 47t-59.5 62.5t-37 81.5t-14 104.5
q0 182 131 289.5t350 107.5q218 0 351.5 -111t148.5 -297h-113q-19 141 -123 224.5t-264 83.5q-171 0 -270.5 -76.5t-99.5 -214.5q0 -43 12 -78t30 -60t51 -46t62 -34t78 -25.5t83.5 -19t92.5 -16.5q68 -12 119 -24t110 -32.5t100.5 -48.5t77.5 -66.5t54 -92t18 -119.5
q0 -182 -137 -293.5t-362 -111.5q-238 0 -380 123.5t-153 328.5z" />
    <glyph glyph-name="scaron" unicode="&#x161;" horiz-adv-x="997" 
d="M291 1440l207 -201l209 201h102l-262 -273h-98l-263 273h105zM76 319h106q6 -112 96 -176.5t240 -64.5q130 0 214.5 55t84.5 146q0 28 -5.5 51.5t-19.5 41.5t-28 31.5t-40 24t-45 17.5t-55 14t-58 10.5t-64 9.5q-53 7 -90 13.5t-83 17.5t-77 24.5t-63 34t-50.5 46
t-30.5 61.5t-12 80q0 133 112 215t286 80q174 0 285 -79t124 -227h-106q-13 100 -95.5 158t-207.5 58q-132 0 -212.5 -54t-80.5 -143q0 -24 6 -44t13 -35t24.5 -28.5t29.5 -22t39 -17t41.5 -13t48.5 -10.5t49 -8t54 -8q65 -9 109.5 -17.5t97 -23.5t86.5 -35.5t64 -50
t44.5 -71.5t14.5 -95q0 -135 -116 -216t-288 -81q-199 0 -317.5 86t-124.5 245z" />
    <glyph glyph-name="uni0162" unicode="&#x162;" horiz-adv-x="1175" 
d="M643 1331v-1331h-22l-25 -100h29q74 0 122 -39.5t48 -108.5q0 -73 -48.5 -117.5t-125.5 -44.5h-168v66h155q49 0 77 24.5t28 67.5q0 42 -28 65t-75 23h-96l41 164h-23v1331h-491v103h1094v-103h-492z" />
    <glyph glyph-name="uni0163" unicode="&#x163;" horiz-adv-x="632" 
d="M416 -100h28q74 0 122 -39.5t48 -108.5q0 -73 -48.5 -117.5t-125.5 -44.5h-168v66h156q49 0 76.5 24.5t27.5 67.5q0 42 -27.5 65t-74.5 23h-96l41 168q-92 15 -133 72.5t-41 165.5v700h-197v96h197v291h104v-291h281v-96h-281v-698q0 -80 33.5 -114t114.5 -34h143v-96
h-152h-4z" />
    <glyph glyph-name="Tcaron" unicode="&#x164;" horiz-adv-x="1175" 
d="M383 1835l207 -201l209 201h102l-262 -272h-98l-262 272h104zM41 1331v103h1094v-103h-492v-1331h-111v1331h-491z" />
    <glyph glyph-name="tcaron" unicode="&#x165;" horiz-adv-x="632" 
d="M422 1161l86 297h100l-108 -297h-78zM201 242v700h-197v96h197v291h104v-291h281v-96h-281v-698q0 -80 33.5 -114t114.5 -34h143v-96h-152q-130 0 -186.5 58t-56.5 184z" />
    <glyph glyph-name="Tbar" unicode="&#x166;" horiz-adv-x="1187" 
d="M1135 1434v-103h-492v-579h268v-97h-268v-655h-111v655h-256v97h256v579h-491v103h1094z" />
    <glyph glyph-name="tbar" unicode="&#x167;" horiz-adv-x="645" 
d="M453 96h141v-96h-152q-130 0 -185.5 57.5t-55.5 184.5v299h-197v90h197v311h-197v96h197v291h104v-291h277v-96h-277v-311h277v-90h-277v-297q0 -80 33.5 -114t114.5 -34z" />
    <glyph glyph-name="Utilde" unicode="&#x168;" horiz-adv-x="1331" 
d="M553 1741q-40 0 -60 -31.5t-20 -75.5h-74v15q0 71 41.5 119.5t110.5 48.5q36 0 64.5 -11.5t46 -28.5t34 -33.5t37 -28t45.5 -11.5q40 0 60 30.5t20 75.5h74v-14q0 -72 -41.5 -120t-110.5 -48q-37 0 -65.5 11.5t-46 28t-33.5 33.5t-36.5 28.5t-45.5 11.5zM141 592v842h111
v-848q0 -250 100 -373t312 -123q214 0 314.5 123t100.5 373v848h111v-842q0 -604 -526 -604q-523 0 -523 604z" />
    <glyph glyph-name="utilde" unicode="&#x169;" horiz-adv-x="1103" 
d="M434 1346q-40 0 -60 -31.5t-20 -75.5h-73v14q0 71 41 119.5t110 48.5q36 0 64.5 -11.5t46 -28t34 -33t37 -28t45.5 -11.5q40 0 60 30.5t20 75.5h74v-14q0 -72 -41 -120t-110 -48q-37 0 -65.5 11.5t-46.5 28.5t-34 33.5t-36.5 28t-45.5 11.5zM877 528v510h104v-1038h-92
l-15 219q-47 -105 -139.5 -168t-224.5 -63q-181 0 -290 117t-109 352v581h104v-575q0 -184 82 -281.5t229 -97.5q161 0 256 120t95 324z" />
    <glyph glyph-name="Umacron" unicode="&#x16a;" horiz-adv-x="1331" 
d="M928 1683h-525v80h525v-80zM141 592v842h111v-848q0 -250 100 -373t312 -123q214 0 314.5 123t100.5 373v848h111v-842q0 -604 -526 -604q-523 0 -523 604z" />
    <glyph glyph-name="umacron" unicode="&#x16b;" horiz-adv-x="1103" 
d="M285 1368h524v-80h-524v80zM877 528v510h104v-1038h-92l-15 219q-47 -105 -139.5 -168t-224.5 -63q-181 0 -290 117t-109 352v581h104v-575q0 -184 82 -281.5t229 -97.5q161 0 256 120t95 324z" />
    <glyph glyph-name="Ubreve" unicode="&#x16c;" horiz-adv-x="1331" 
d="M408 1835h84q0 -78 48 -128t124 -50q77 0 126.5 50t49.5 128h84q-1 -118 -74 -189t-188 -71q-113 0 -183 71t-71 189zM141 592v842h111v-848q0 -250 100 -373t312 -123q214 0 314.5 123t100.5 373v848h111v-842q0 -604 -526 -604q-523 0 -523 604z" />
    <glyph glyph-name="ubreve" unicode="&#x16d;" horiz-adv-x="1103" 
d="M543 1180q-113 0 -183 71t-71 189h84q0 -78 48 -128t124 -50q77 0 126.5 50t49.5 128h84q-1 -118 -74 -189t-188 -71zM877 528v510h104v-1038h-92l-15 219q-47 -105 -139.5 -168t-224.5 -63q-181 0 -290 117t-109 352v581h104v-575q0 -184 82 -281.5t229 -97.5
q161 0 256 120t95 324z" />
    <glyph glyph-name="Uring" unicode="&#x16e;" horiz-adv-x="1331" 
d="M446 1606q0 88 64.5 150.5t155.5 62.5q92 0 155.5 -62.5t63.5 -150.5q0 -90 -63.5 -152.5t-155.5 -62.5q-91 0 -155.5 63t-64.5 152zM815 1606q0 63 -43 106t-106 43t-106.5 -43t-43.5 -106q0 -66 43.5 -110t106.5 -44t106 44t43 110zM141 592v842h111v-848
q0 -250 100 -373t312 -123q214 0 314.5 123t100.5 373v848h111v-842q0 -604 -526 -604q-523 0 -523 604z" />
    <glyph glyph-name="uring" unicode="&#x16f;" horiz-adv-x="1103" 
d="M547 1143q-91 0 -155 63t-64 152t63.5 151t155.5 62t155.5 -62t63.5 -151t-64 -152t-155 -63zM547 1509q-63 0 -106.5 -43.5t-43.5 -107.5t43.5 -108t106.5 -44t106 44t43 108t-43 107.5t-106 43.5zM877 528v510h104v-1038h-92l-15 219q-47 -105 -139.5 -168t-224.5 -63
q-181 0 -290 117t-109 352v581h104v-575q0 -184 82 -281.5t229 -97.5q161 0 256 120t95 324z" />
    <glyph glyph-name="Uhungarumlaut" unicode="&#x170;" horiz-adv-x="1331" 
d="M524 1563h-84l187 272h121zM860 1563h-84l187 272h118zM141 592v842h111v-848q0 -250 100 -373t312 -123q214 0 314.5 123t100.5 373v848h111v-842q0 -604 -526 -604q-523 0 -523 604z" />
    <glyph glyph-name="uhungarumlaut" unicode="&#x171;" horiz-adv-x="1103" 
d="M508 1440h121l-223 -273h-84zM844 1440h119l-222 -273h-84zM877 528v510h104v-1038h-92l-15 219q-47 -105 -139.5 -168t-224.5 -63q-181 0 -290 117t-109 352v581h104v-575q0 -184 82 -281.5t229 -97.5q161 0 256 120t95 324z" />
    <glyph glyph-name="Uogonek" unicode="&#x172;" horiz-adv-x="1331" 
d="M956 -410h-141q-85 0 -135.5 43t-50.5 117q0 129 143 252q-51 -14 -108 -14q-523 0 -523 604v842h111v-848q0 -250 100 -373t312 -123q214 0 314.5 123t100.5 373v848h111v-842q0 -200 -61 -331t-181 -212q-112 -75 -171.5 -142t-59.5 -143q0 -46 29.5 -71t84.5 -25h125
v-78z" />
    <glyph glyph-name="uogonek" unicode="&#x173;" horiz-adv-x="1103" 
d="M872 -332h125v-78h-141q-85 0 -135.5 43t-50.5 117q0 76 56 138.5t161 134.5l-13 196q-47 -105 -139.5 -168t-224.5 -63q-181 0 -290 117t-109 352v581h104v-575q0 -184 82 -281.5t229 -97.5q161 0 256 120t95 324v510h104v-1038q-111 -69 -167 -122t-56 -114
q0 -46 30 -71t84 -25z" />
    <glyph glyph-name="Wcircumflex" unicode="&#x174;" horiz-adv-x="1968" 
d="M1192 1563l-207 202l-209 -202h-102l260 272h102l260 -272h-104zM481 0l-436 1434h117l383 -1289l387 1289h112l377 -1289l387 1289h115l-438 -1434h-131l-371 1251l-371 -1251h-131z" />
    <glyph glyph-name="wcircumflex" unicode="&#x175;" horiz-adv-x="1591" 
d="M1006 1167l-207 203l-209 -203h-103l261 273h102l260 -273h-104zM375 0l-352 1038h110l303 -913l314 913h96l297 -913l319 913h107l-369 -1038h-113l-292 872l-308 -872h-112z" />
    <glyph glyph-name="Ycircumflex" unicode="&#x176;" horiz-adv-x="1265" 
d="M836 1563l-207 202l-209 -202h-103l261 272h102l260 -272h-104zM578 528l-549 906h129l475 -785l479 785h125l-549 -906v-528h-110v528z" />
    <glyph glyph-name="ycircumflex" unicode="&#x177;" horiz-adv-x="976" 
d="M692 1167l-207 203l-209 -203h-102l260 273h103l260 -273h-105zM434 0l-416 1038h113l361 -903l354 903h112l-497 -1231q-28 -69 -46 -104.5t-45 -64.5t-61 -38.5t-86 -9.5h-160v97h132q76 0 105.5 27t66.5 118z" />
    <glyph glyph-name="Ydieresis" unicode="&#x178;" horiz-adv-x="1265" 
d="M385 1716q0 31 20.5 51.5t51.5 20.5q32 0 52.5 -20.5t20.5 -51.5t-20.5 -51t-52.5 -20q-31 0 -51.5 20t-20.5 51zM727 1716q0 31 21.5 51.5t52.5 20.5t51 -20.5t20 -51.5t-20 -51t-51 -20t-52.5 20.5t-21.5 50.5zM578 528l-549 906h129l475 -785l479 785h125l-549 -906
v-528h-110v528z" />
    <glyph glyph-name="Zacute" unicode="&#x179;" horiz-adv-x="1204" 
d="M647 1565h-84l187 270h122zM80 1331v103h1055v-82l-936 -1250h954v-102h-1102v82l934 1249h-905z" />
    <glyph glyph-name="zacute" unicode="&#x17a;" horiz-adv-x="954" 
d="M524 1169h-84l187 271h123zM74 942v96h807v-80l-699 -862h727v-96h-864v82l696 860h-667z" />
    <glyph glyph-name="Zdotaccent" unicode="&#x17b;" horiz-adv-x="1204" 
d="M602 1653q-31 0 -52.5 20.5t-21.5 52.5t21.5 53t52.5 21t52.5 -21t21.5 -53t-21.5 -52.5t-52.5 -20.5zM80 1331v103h1055v-82l-936 -1250h954v-102h-1102v82l934 1249h-905z" />
    <glyph glyph-name="zdotaccent" unicode="&#x17c;" horiz-adv-x="954" 
d="M479 1257q-31 0 -52 21t-21 53t21 53t52 21t52.5 -21t21.5 -53t-21.5 -53t-52.5 -21zM74 942v96h807v-80l-699 -862h727v-96h-864v82l696 860h-667z" />
    <glyph glyph-name="Zcaron" unicode="&#x17d;" horiz-adv-x="1204" 
d="M395 1835l207 -201l209 201h102l-262 -272h-98l-262 272h104zM80 1331v103h1055v-82l-936 -1250h954v-102h-1102v82l934 1249h-905z" />
    <glyph glyph-name="zcaron" unicode="&#x17e;" horiz-adv-x="954" 
d="M272 1440l207 -201l209 201h103l-263 -273h-98l-262 273h104zM74 942v96h807v-80l-699 -862h727v-96h-864v82l696 860h-667z" />
    <glyph glyph-name="florin" unicode="&#x192;" horiz-adv-x="991" 
d="M940 1337h-176q-81 0 -120.5 -36.5t-45.5 -116.5l-39 -439h262v-96h-270l-55 -641q-9 -115 -72 -170t-184 -55h-189v96h176q81 0 120.5 37t45.5 117l53 616h-251v96h260l41 463q9 115 72 170.5t182 55.5h190v-97z" />
    <glyph glyph-name="AEacute" unicode="&#x1fc;" horiz-adv-x="1918" 
d="M1202 1835h123l-225 -270h-84zM1059 682v-580h799v-102h-910v399h-567l-250 -399h-117l881 1434h936v-103h-772v-547h647v-102h-647zM948 1337l-514 -839h514v839z" />
    <glyph glyph-name="aeacute" unicode="&#x1fd;" horiz-adv-x="1867" 
d="M1069 1434h123l-223 -271h-86zM1782 516h-846v-22q1 -183 107.5 -297.5t273.5 -114.5q127 0 220 70.5t124 191.5h106q-34 -159 -155 -257.5t-289 -98.5q-148 0 -260 74t-170 204q-47 -125 -163.5 -201.5t-272.5 -76.5q-174 0 -276.5 80.5t-102.5 220.5q0 147 105 228
t304 81h353v86q0 129 -81.5 201.5t-226.5 72.5q-128 0 -209 -56.5t-102 -153.5h-104q20 142 131 222.5t289 80.5q149 0 245 -60t131 -174q59 110 161 172t231 62q209 0 340.5 -131t138.5 -361q0 -29 -2 -43zM1307 958q-145 0 -248.5 -98.5t-116.5 -257.5h733
q-12 168 -112 262t-256 94zM840 420v88h-363q-142 0 -217.5 -55.5t-75.5 -157.5q0 -100 73 -158.5t200 -58.5q170 0 276.5 96t106.5 246z" />
    <glyph glyph-name="uni0218" unicode="&#x218;" horiz-adv-x="1222" 
d="M94 440h115q11 -160 125 -256t295 -96q175 0 281 79t106 216q0 44 -12.5 80t-32 62.5t-53 48.5t-65.5 36t-81 27.5t-87 21t-95 17.5q-56 10 -98 19t-93 24.5t-88 34t-73.5 47t-59.5 62.5t-37 81.5t-14 104.5q0 182 131 289.5t350 107.5q218 0 351.5 -111t148.5 -297h-113
q-19 141 -123 224.5t-264 83.5q-171 0 -270.5 -76.5t-99.5 -214.5q0 -43 12 -78t30 -60t51 -46t62 -34t78 -25.5t83.5 -19t92.5 -16.5q68 -12 119 -24t110 -32.5t100.5 -48.5t77.5 -66.5t54 -92t18 -119.5q0 -182 -137 -293.5t-362 -111.5q-238 0 -380 123.5t-153 328.5z
M473 -397l94 288h105l-121 -288h-78z" />
    <glyph glyph-name="uni0219" unicode="&#x219;" horiz-adv-x="997" 
d="M76 319h106q6 -112 96 -176.5t240 -64.5q130 0 214.5 55t84.5 146q0 28 -5.5 51.5t-19.5 41.5t-28 31.5t-40 24t-45 17.5t-55 14t-58 10.5t-64 9.5q-53 7 -90 13.5t-83 17.5t-77 24.5t-63 34t-50.5 46t-30.5 61.5t-12 80q0 133 112 215t286 80q174 0 285 -79t124 -227
h-106q-13 100 -95.5 158t-207.5 58q-132 0 -212.5 -54t-80.5 -143q0 -24 6 -44t13 -35t24.5 -28.5t29.5 -22t39 -17t41.5 -13t48.5 -10.5t49 -8t54 -8q65 -9 109.5 -17.5t97 -23.5t86.5 -35.5t64 -50t44.5 -71.5t14.5 -95q0 -135 -116 -216t-288 -81q-199 0 -317.5 86
t-124.5 245zM371 -397l94 288h104l-120 -288h-78z" />
    <glyph glyph-name="uni021A" unicode="&#x21a;" horiz-adv-x="1175" 
d="M41 1331v103h1094v-103h-492v-1331h-111v1331h-491zM438 -397l94 288h105l-121 -288h-78z" />
    <glyph glyph-name="uni021B" unicode="&#x21b;" horiz-adv-x="632" 
d="M201 242v700h-197v96h197v291h104v-291h281v-96h-281v-698q0 -80 33.5 -114t114.5 -34h143v-96h-152q-130 0 -186.5 58t-56.5 184zM256 -397l94 288h105l-121 -288h-78z" />
    <glyph glyph-name="uni0237" unicode="&#x237;" horiz-adv-x="362" 
d="M-131 -410v97h123q78 0 110.5 33t32.5 110v1208h105v-1206q0 -126 -57.5 -184t-186.5 -58h-127z" />
    <glyph glyph-name="uni02BC" unicode="&#x2bc;" horiz-adv-x="649" 
d="M229 1137l86 297h101l-109 -297h-78z" />
    <glyph glyph-name="circumflex" unicode="&#x2c6;" horiz-adv-x="819" 
d="M616 1161l-206 203l-209 -203h-103l260 273h103l260 -273h-105z" />
    <glyph glyph-name="caron" unicode="&#x2c7;" horiz-adv-x="819" 
d="M203 1434l207 -201l208 201h103l-262 -273h-99l-262 273h105z" />
    <glyph glyph-name="breve" unicode="&#x2d8;" horiz-adv-x="819" 
d="M152 1434h84q0 -78 48 -128.5t124 -50.5q77 0 126.5 50.5t49.5 128.5h84q-1 -118 -74 -189t-188 -71q-113 0 -183 71t-71 189z" />
    <glyph glyph-name="dotaccent" unicode="&#x2d9;" horiz-adv-x="819" 
d="M410 1251q-31 0 -52.5 21t-21.5 53t21.5 53t52.5 21t52 -21t21 -53t-21 -53t-52 -21z" />
    <glyph glyph-name="ring" unicode="&#x2da;" horiz-adv-x="819" 
d="M190 1352q0 89 64 151t156 62t155.5 -62t63.5 -151t-64 -152t-155 -63t-155.5 63t-64.5 152zM559 1352q0 64 -43 107.5t-106 43.5t-106.5 -43.5t-43.5 -107.5t43.5 -108t106.5 -44t106 44t43 108z" />
    <glyph glyph-name="ogonek" unicode="&#x2db;" horiz-adv-x="819" 
d="M98 -250q0 41 17 78.5t52 73t68.5 62.5t86.5 63l88 -27q-112 -69 -168 -122t-56 -114q0 -46 30.5 -71t84.5 -25h125v-78h-141q-85 0 -136 43t-51 117z" />
    <glyph glyph-name="tilde" unicode="&#x2dc;" horiz-adv-x="819" 
d="M297 1339q-40 0 -60 -31t-20 -75h-74v14q0 71 41.5 119.5t110.5 48.5q36 0 64.5 -11.5t46 -28t34 -33t37 -28t45.5 -11.5q40 0 60 30.5t20 75.5h74v-14q0 -72 -41.5 -120t-110.5 -48q-45 0 -78.5 17.5t-50.5 38.5t-42.5 38.5t-55.5 17.5z" />
    <glyph glyph-name="hungarumlaut" unicode="&#x2dd;" horiz-adv-x="829" 
d="M268 1161h-84l187 273h121zM604 1161h-84l187 273h118z" />
    <glyph glyph-name="gravecomb" unicode="&#x300;" horiz-adv-x="0" 
d="M-455 1163l-221 271h123l184 -271h-86z" />
    <glyph glyph-name="acutecomb" unicode="&#x301;" horiz-adv-x="0" 
d="M-365 1163h-84l187 271h123z" />
    <glyph glyph-name="uni0302" unicode="&#x302;" horiz-adv-x="0" 
d="M-203 1161l-207 203l-208 -203h-103l260 273h103l260 -273h-105z" />
    <glyph glyph-name="tildecomb" unicode="&#x303;" horiz-adv-x="0" 
d="M-522 1339q-40 0 -60 -31t-20 -75h-74v14q0 71 41.5 119.5t110.5 48.5q36 0 64.5 -11.5t46 -28t34 -33t37 -28t45.5 -11.5q40 0 60 30.5t20 75.5h74v-14q0 -72 -41.5 -120t-110.5 -48q-45 0 -78.5 17.5t-50.5 38.5t-42.5 38.5t-55.5 17.5z" />
    <glyph glyph-name="uni0304" unicode="&#x304;" horiz-adv-x="0" 
d="M-147 1282h-525v80h525v-80z" />
    <glyph glyph-name="uni0306" unicode="&#x306;" horiz-adv-x="0" 
d="M-668 1434h84q0 -78 48 -128.5t124 -50.5q77 0 126.5 50.5t49.5 128.5h84q-1 -118 -74 -189t-188 -71q-113 0 -183 71t-71 189z" />
    <glyph glyph-name="uni0307" unicode="&#x307;" horiz-adv-x="0" 
d="M-410 1251q-31 0 -52 21t-21 53t21 53t52 21t52.5 -21t21.5 -53t-21.5 -53t-52.5 -21z" />
    <glyph glyph-name="uni0308" unicode="&#x308;" horiz-adv-x="0" 
d="M-653 1315q0 31 20 51t51 20q32 0 53 -20t21 -51t-21 -51.5t-53 -20.5q-31 0 -51 20.5t-20 51.5zM-311 1315q0 31 21 51t52 20t51.5 -20t20.5 -51t-20.5 -51.5t-51.5 -20.5t-52 20.5t-21 51.5z" />
    <glyph glyph-name="uni030A" unicode="&#x30a;" horiz-adv-x="0" 
d="M-629 1352q0 89 63.5 151t155.5 62t156 -62t64 -151t-64.5 -152t-155.5 -63t-155 63t-64 152zM-260 1352q0 64 -43.5 107.5t-106.5 43.5t-106 -43.5t-43 -107.5t43 -108t106 -44t106.5 44t43.5 108z" />
    <glyph glyph-name="uni030B" unicode="&#x30b;" horiz-adv-x="0" 
d="M-551 1161h-84l186 273h121zM-215 1161h-84l186 273h119z" />
    <glyph glyph-name="uni030C" unicode="&#x30c;" horiz-adv-x="0" 
d="M-616 1434l206 -201l209 201h103l-262 -273h-99l-262 273h105z" />
    <glyph glyph-name="uni0312" unicode="&#x312;" horiz-adv-x="0" 
d="M-281 1434l-94 -289h-102l115 289h81z" />
    <glyph glyph-name="uni0326" unicode="&#x326;" horiz-adv-x="0" 
d="M-559 -397l94 288h105l-121 -288h-78z" />
    <glyph glyph-name="uni0327" unicode="&#x327;" horiz-adv-x="0" 
d="M-479 -164l45 184h65l-28 -120h28q74 0 122 -39.5t48 -108.5q0 -73 -48.5 -117.5t-125.5 -44.5h-168v66h156q49 0 76.5 24.5t27.5 67.5q0 42 -27.5 65t-74.5 23h-96z" />
    <glyph glyph-name="uni0328" unicode="&#x328;" horiz-adv-x="0" 
d="M-721 -250q0 41 17 78.5t51.5 73t68.5 62.5t86 63l88 -27q-111 -69 -167 -122t-56 -114q0 -46 30.5 -71t84.5 -25h125v-78h-142q-85 0 -135.5 43t-50.5 117z" />
    <glyph glyph-name="uni0374" unicode="&#x374;" horiz-adv-x="344" 
d="M164 1038h-74l86 396h111z" />
    <glyph glyph-name="uni0375" unicode="&#x375;" horiz-adv-x="344" 
d="M158 -14h73l-86 -396h-110z" />
    <glyph glyph-name="uni037E" unicode="&#x37e;" horiz-adv-x="376" 
d="M106 870q0 35 22 56.5t56 21.5q35 0 57.5 -21.5t22.5 -56.5q0 -34 -22.5 -54.5t-57.5 -20.5q-34 0 -56 21t-22 54zM166 143q55 0 91 -49.5t36 -120.5q0 -102 -62.5 -166.5t-167.5 -68.5v61q73 3 113.5 50.5t40.5 111.5q0 35 -18 53q-15 -24 -52 -24q-31 0 -51 19t-20 54
q0 34 25 57t65 23z" />
    <glyph glyph-name="tonos" unicode="&#x384;" horiz-adv-x="819" 
d="M451 1163h-74l90 293h113z" />
    <glyph glyph-name="dieresistonos" unicode="&#x385;" horiz-adv-x="1218" 
d="M561 1167h-72l13 301h104zM279 1305q-4 26 9.5 45t39.5 24q26 4 45 -9.5t24 -39.5q5 -25 -9 -45t-40 -23q-26 -4 -45 9.5t-24 38.5zM674 1305q-4 26 11 45t40 24t45.5 -9t24.5 -40q4 -25 -10.5 -45t-39.5 -23q-25 -5 -46 9t-25 39z" />
    <glyph glyph-name="Alphatonos" unicode="&#x386;" horiz-adv-x="1306" 
d="M150 0h-115l555 1434h129l553 -1434h-119l-172 438h-659zM217 1141h-76l90 293h113zM651 1311l-297 -770h594z" />
    <glyph glyph-name="anoteleia" unicode="&#x387;" horiz-adv-x="376" 
d="M111 586q0 35 21.5 55.5t55.5 20.5t56 -20.5t22 -55.5t-22 -56.5t-56 -21.5t-55.5 21.5t-21.5 56.5z" />
    <glyph glyph-name="Epsilontonos" unicode="&#x388;" horiz-adv-x="1234" 
d="M31 1141h-76l90 293h113zM264 0v1434h883v-103h-772v-547h647v-102h-647v-580h799v-102h-910z" />
    <glyph glyph-name="Etatonos" unicode="&#x389;" horiz-adv-x="1462" 
d="M31 1141h-76l90 293h113zM264 0v1434h111v-652h829v652h111v-1434h-111v680h-829v-680h-111z" />
    <glyph glyph-name="Iotatonos" unicode="&#x38a;" horiz-adv-x="522" 
d="M31 1141h-76l90 293h113zM264 0v1434h111v-1434h-111z" />
    <glyph glyph-name="Omicrontonos" unicode="&#x38c;" horiz-adv-x="1546" 
d="M1448 717q0 -210 -84.5 -376t-237.5 -259.5t-348 -93.5q-194 0 -347 93.5t-237.5 259.5t-84.5 376t84.5 376t237.5 259.5t347 93.5q195 0 348 -93.5t237.5 -259.5t84.5 -376zM59 1141h-75l90 293h112zM223 717q0 -276 155 -451.5t400 -175.5q163 0 290 80t197 222.5
t70 324.5q0 276 -155 451t-402 175q-162 0 -288.5 -79.5t-196.5 -222t-70 -324.5z" />
    <glyph glyph-name="Upsilontonos" unicode="&#x38e;" horiz-adv-x="1386" 
d="M-10 1141h-76l90 293h113zM698 528l-548 906h129l475 -785l479 785h125l-549 -906v-528h-111v528z" />
    <glyph glyph-name="Omegatonos" unicode="&#x38f;" horiz-adv-x="1521" 
d="M616 0h-489v102h397v78q-208 87 -301.5 237.5t-93.5 373.5q0 140 48.5 262t134 208t206.5 135.5t260 49.5q186 0 335 -84t233 -234t84 -337q0 -221 -95.5 -373t-300.5 -238v-78h393v-102h-489v231q202 85 289.5 218t87.5 342q0 242 -151.5 397t-385.5 155
q-233 0 -384.5 -155t-151.5 -397q0 -209 86.5 -342.5t287.5 -219.5v-229zM51 1141h-76l91 293h112z" />
    <glyph glyph-name="iotadieresistonos" unicode="&#x390;" horiz-adv-x="475" 
d="M209 1174h-72l13 301h104zM-74 1311q-4 26 9.5 45t39.5 24t46 -9t24 -40q5 -25 -9 -44.5t-40 -22.5q-26 -4 -45.5 9t-24.5 38zM322 1311q-4 26 11 45t40 24t45 -9t24 -40q4 -25 -10 -44.5t-39 -22.5q-25 -5 -46 8.5t-25 38.5zM461 0h-109q-126 0 -179.5 57t-53.5 179v802
h104v-800q0 -76 31 -109t106 -33h101v-96z" />
    <glyph glyph-name="Alpha" unicode="&#x391;" horiz-adv-x="1306" 
d="M150 0h-115l555 1434h129l553 -1434h-119l-172 438h-659zM651 1311l-297 -770h594z" />
    <glyph glyph-name="Beta" unicode="&#x392;" horiz-adv-x="1241" 
d="M147 0v1434h490q214 0 331 -98.5t117 -270.5q0 -128 -67.5 -210.5t-190.5 -113.5q150 -23 237 -108.5t87 -233.5q0 -189 -129.5 -294t-376.5 -105h-498zM641 1333h-383v-551h383q159 0 246.5 73.5t87.5 203.5q0 129 -87 201.5t-247 72.5zM645 682h-387v-582h387
q190 0 290.5 78t100.5 215q0 140 -102 214.5t-289 74.5z" />
    <glyph glyph-name="Gamma" unicode="&#x393;" horiz-adv-x="1017" 
d="M258 0h-111v1434h830v-103h-719v-1331z" />
    <glyph glyph-name="uni0394" unicode="&#x394;" horiz-adv-x="1361" 
d="M1311 0h-1260v82l563 1352h131l566 -1352v-82zM676 1321l-500 -1219h1006z" />
    <glyph glyph-name="Epsilon" unicode="&#x395;" horiz-adv-x="1118" 
d="M147 0v1434h883v-103h-772v-547h647v-102h-647v-580h799v-102h-910z" />
    <glyph glyph-name="Zeta" unicode="&#x396;" horiz-adv-x="1204" 
d="M80 1331v103h1055v-82l-936 -1250h954v-102h-1102v82l934 1249h-905z" />
    <glyph glyph-name="Eta" unicode="&#x397;" horiz-adv-x="1345" 
d="M147 0v1434h111v-652h829v652h111v-1434h-111v680h-829v-680h-111z" />
    <glyph glyph-name="Theta" unicode="&#x398;" horiz-adv-x="1533" 
d="M766 -12q-194 0 -347 93.5t-238 259.5t-85 376t85 376t238 259.5t347 93.5q195 0 348 -93.5t237.5 -259.5t84.5 -376t-84.5 -376t-237.5 -259.5t-348 -93.5zM766 90q163 0 290 80t197 222.5t70 324.5q0 276 -155 451t-402 175q-162 0 -288.5 -79.5t-196.5 -222
t-70 -324.5q0 -276 155 -451.5t400 -175.5zM1102 670h-670v102h670v-102z" />
    <glyph glyph-name="Iota" unicode="&#x399;" horiz-adv-x="405" 
d="M147 0v1434h111v-1434h-111z" />
    <glyph glyph-name="Kappa" unicode="&#x39a;" horiz-adv-x="1249" 
d="M147 0v1434h111v-904l793 904h135l-520 -603l567 -831h-133l-516 748l-326 -373v-375h-111z" />
    <glyph glyph-name="Lambda" unicode="&#x39b;" horiz-adv-x="1286" 
d="M150 0h-115l540 1434h134l542 -1434h-116l-494 1303z" />
    <glyph glyph-name="Mu" unicode="&#x39c;" horiz-adv-x="1685" 
d="M147 0v1434h142l557 -1284l553 1284h139v-1434h-108v1247l-537 -1247h-100l-537 1247v-1247h-109z" />
    <glyph glyph-name="Nu" unicode="&#x39d;" horiz-adv-x="1355" 
d="M256 0h-109v1434h105l848 -1233v1233h108v-1434h-104l-848 1233v-1233z" />
    <glyph glyph-name="Xi" unicode="&#x39e;" horiz-adv-x="1202" 
d="M1114 1331h-1024v103h1024v-103zM1055 682h-905v102h905v-102zM1126 0h-1050v102h1050v-102z" />
    <glyph glyph-name="Omicron" unicode="&#x39f;" horiz-adv-x="1533" 
d="M1436 717q0 -210 -84.5 -376t-237.5 -259.5t-348 -93.5q-194 0 -347 93.5t-238 259.5t-85 376t85 376t238 259.5t347 93.5q195 0 348 -93.5t237.5 -259.5t84.5 -376zM211 717q0 -276 155 -451.5t400 -175.5q163 0 290 80t197 222.5t70 324.5q0 276 -155 451t-402 175
q-162 0 -288.5 -79.5t-196.5 -222t-70 -324.5z" />
    <glyph glyph-name="Pi" unicode="&#x3a0;" horiz-adv-x="1343" 
d="M258 0h-111v1434h1049v-1434h-111v1331h-827v-1331z" />
    <glyph glyph-name="Rho" unicode="&#x3a1;" horiz-adv-x="1179" 
d="M147 0v1434h533q203 0 325.5 -115t122.5 -303t-123 -303t-325 -115h-422v-598h-111zM672 1331h-414v-631h412q157 0 251.5 87.5t94.5 228.5q0 142 -93.5 228.5t-250.5 86.5z" />
    <glyph glyph-name="Sigma" unicode="&#x3a3;" horiz-adv-x="1202" 
d="M1149 0h-1081v82l587 651l-555 619v82h1033v-103h-865l510 -571v-43l-551 -615h922v-102z" />
    <glyph glyph-name="Tau" unicode="&#x3a4;" horiz-adv-x="1175" 
d="M41 1331v103h1094v-103h-492v-1331h-111v1331h-491z" />
    <glyph glyph-name="Upsilon" unicode="&#x3a5;" horiz-adv-x="1265" 
d="M578 528l-549 906h129l475 -785l479 785h125l-549 -906v-528h-110v528z" />
    <glyph glyph-name="Phi" unicode="&#x3a6;" horiz-adv-x="1695" 
d="M1597 717q0 -291 -185.5 -468t-508.5 -190v-110h-108v110q-324 10 -511.5 187t-187.5 471q0 292 187 468.5t512 188.5v111h108v-111q322 -12 508 -188.5t186 -468.5zM207 717q0 -250 154.5 -398.5t433.5 -158.5v1114q-278 -9 -433 -157.5t-155 -399.5zM903 1274v-1114
q278 10 432 159t154 398t-153.5 397t-432.5 160z" />
    <glyph glyph-name="Chi" unicode="&#x3a7;" horiz-adv-x="1218" 
d="M39 0l502 733l-471 701h131l409 -611l410 611h129l-469 -693l500 -741h-131l-443 649l-438 -649h-129z" />
    <glyph glyph-name="Psi" unicode="&#x3a8;" horiz-adv-x="1564" 
d="M1331 1055v379h109v-385q0 -309 -148.5 -459.5t-453.5 -161.5v-428h-109v426q-305 12 -453.5 163t-148.5 460v385h106v-379q0 -269 117.5 -392.5t378.5 -134.5v906h109v-904q260 9 376.5 132.5t116.5 392.5z" />
    <glyph glyph-name="uni03A9" unicode="&#x3a9;" horiz-adv-x="1486" 
d="M582 0h-490v102h397v78q-208 87 -301.5 237.5t-93.5 373.5q0 140 48.5 262t134 208t206.5 135.5t260 49.5q186 0 335 -84t233 -234t84 -337q0 -221 -95.5 -373t-300.5 -238v-78h394v-102h-490v231q202 85 289.5 218t87.5 342q0 242 -151.5 397t-385.5 155
q-233 0 -384.5 -155t-151.5 -397q0 -209 87 -342.5t288 -219.5v-229z" />
    <glyph glyph-name="Iotadieresis" unicode="&#x3aa;" horiz-adv-x="405" 
d="M-41 1716q0 31 20.5 51.5t51.5 20.5q32 0 52.5 -20.5t20.5 -51.5t-20.5 -51t-52.5 -20q-31 0 -51.5 20t-20.5 51zM301 1716q0 31 21.5 51.5t52.5 20.5t51 -20.5t20 -51.5t-20 -51t-51 -20t-52.5 20.5t-21.5 50.5zM147 0v1434h111v-1434h-111z" />
    <glyph glyph-name="Upsilondieresis" unicode="&#x3ab;" horiz-adv-x="1265" 
d="M385 1716q0 31 20.5 51.5t51.5 20.5q32 0 52.5 -20.5t20.5 -51.5t-20.5 -51t-52.5 -20q-31 0 -51.5 20t-20.5 51zM727 1716q0 31 21.5 51.5t52.5 20.5t51 -20.5t20 -51.5t-20 -51t-51 -20t-52.5 20.5t-21.5 50.5zM578 528l-549 906h129l475 -785l479 785h125l-549 -906
v-528h-110v528z" />
    <glyph glyph-name="alphatonos" unicode="&#x3ac;" horiz-adv-x="1241" 
d="M655 1462h113l-129 -293h-74zM1167 96h47v-96h-71q-93 0 -131 42.5t-35 127.5v86q-50 -121 -154 -194.5t-250 -73.5q-217 0 -353 144.5t-136 387.5q0 234 137.5 382.5t351.5 148.5q141 0 244 -67t152 -179l16 233h90v-845q0 -54 20.5 -75.5t71.5 -21.5zM582 82
q173 0 282 122t109 314q0 194 -109 317t-282 123t-282.5 -123t-109.5 -315q0 -194 109.5 -316t282.5 -122z" />
    <glyph glyph-name="epsilontonos" unicode="&#x3ad;" horiz-adv-x="1032" 
d="M580 1462h112l-129 -293h-74zM862 301h109q-11 -152 -127 -232.5t-340 -80.5q-195 0 -311.5 78t-116.5 215q0 106 65 170.5t183 78.5q-99 14 -157 72.5t-58 155.5q0 131 116 211t303 80q194 0 308 -83.5t125 -226.5h-107q-12 105 -93.5 162t-232.5 57
q-140 0 -226.5 -52.5t-86.5 -145.5q0 -92 71 -139.5t195 -47.5h168v-94h-174q-291 0 -291 -188q0 -105 87 -159t241 -54q169 0 253.5 54t96.5 169z" />
    <glyph glyph-name="etatonos" unicode="&#x3ae;" horiz-adv-x="1167" 
d="M575 1462h113l-129 -293h-74zM649 1051q187 0 298.5 -116.5t111.5 -352.5v-992h-105v988q0 183 -84.5 279.5t-236.5 96.5q-165 0 -262 -119.5t-97 -322.5v-512h-104v848q0 52 -20.5 73t-71.5 21h-47v96h71q93 0 130.5 -41t37.5 -127v-67q45 113 141 180.5t238 67.5z" />
    <glyph glyph-name="iotatonos" unicode="&#x3af;" horiz-adv-x="475" 
d="M217 1169h-74l90 293h113zM461 0h-109q-126 0 -179.5 57t-53.5 179v802h104v-800q0 -76 31 -109t106 -33h101v-96z" />
    <glyph glyph-name="upsilondieresistonos" unicode="&#x3b0;" horiz-adv-x="1087" 
d="M569 1171h-71l12 304h104zM287 1311q-4 26 9 45t38 24q28 4 47.5 -9.5t24.5 -39.5q5 -25 -10 -45t-42 -24q-25 -3 -44 10.5t-23 38.5zM682 1311q-4 26 11 45t40 24t45.5 -9t24.5 -40q3 -25 -11 -45t-38 -24q-25 -3 -46.5 11t-25.5 38zM545 -12q-434 0 -434 469v581h104
v-573q0 -195 79 -288t251 -93q171 0 250 93t79 288v573h105v-581q0 -239 -112.5 -354t-321.5 -115z" />
    <glyph glyph-name="alpha" unicode="&#x3b1;" horiz-adv-x="1241" 
d="M1167 96h47v-96h-71q-93 0 -131 42.5t-35 127.5v86q-50 -121 -154 -194.5t-250 -73.5q-217 0 -353 144.5t-136 387.5q0 234 137.5 382.5t351.5 148.5q141 0 244 -67t152 -179l16 233h90v-845q0 -54 20.5 -75.5t71.5 -21.5zM582 82q173 0 282 122t109 314q0 194 -109 317
t-282 123t-282.5 -123t-109.5 -315q0 -194 109.5 -316t282.5 -122z" />
    <glyph glyph-name="beta" unicode="&#x3b2;" horiz-adv-x="1124" 
d="M725 754q155 -19 241.5 -111.5t86.5 -255.5q0 -173 -126.5 -286t-310.5 -113q-132 0 -231.5 49t-157.5 141v-588h-104v1411q0 209 117 327t315 118q178 0 290 -102.5t111 -266.5q-1 -129 -64.5 -212.5t-166.5 -110.5zM610 82q149 0 242.5 85t93.5 224q0 156 -93 228.5
t-273 72.5h-127v92h82q162 0 238.5 82t76.5 209q0 126 -81 201.5t-216 75.5q-154 0 -240 -91.5t-86 -246.5v-551q0 -180 106 -280.5t277 -100.5z" />
    <glyph glyph-name="gamma" unicode="&#x3b3;" horiz-adv-x="1005" 
d="M877 1038h108l-430 -1015v-353h-104v353l-433 1015h113l373 -876z" />
    <glyph glyph-name="delta" unicode="&#x3b4;" horiz-adv-x="1161" 
d="M575 -12q-219 0 -353 131t-134 352q0 202 123.5 333.5t320.5 145.5q78 3 158 -26l-485 426v84h813v-95h-651l467 -413q123 -109 181 -209t58 -242q0 -217 -137 -352t-361 -135zM580 78q172 0 279.5 107t107.5 288q0 182 -107.5 287.5t-271.5 105.5q-174 0 -283.5 -107
t-109.5 -286q0 -181 106.5 -288t278.5 -107z" />
    <glyph glyph-name="epsilon" unicode="&#x3b5;" horiz-adv-x="1032" 
d="M862 301h109q-11 -152 -127 -232.5t-340 -80.5q-195 0 -311.5 78t-116.5 215q0 106 65 170.5t183 78.5q-99 14 -157 72.5t-58 155.5q0 131 116 211t303 80q194 0 308 -83.5t125 -226.5h-107q-12 105 -93.5 162t-232.5 57q-140 0 -226.5 -52.5t-86.5 -145.5
q0 -92 71 -139.5t195 -47.5h168v-94h-174q-291 0 -291 -188q0 -105 87 -159t241 -54q169 0 253.5 54t96.5 169z" />
    <glyph glyph-name="zeta" unicode="&#x3b6;" horiz-adv-x="931" 
d="M913 -279h-100v134q0 84 -33 113.5t-123 29.5l-125 2q-225 2 -340.5 88t-115.5 279q0 61 19 123.5t46 114t79 120t94 116.5t116 128l332 368h-639v97h782v-80l-350 -385q-173 -187 -226 -255q-131 -167 -145 -303q-2 -19 -2 -38q0 -150 91.5 -213.5t273.5 -65.5h125
q130 -2 185.5 -49t55.5 -164v-160z" />
    <glyph glyph-name="eta" unicode="&#x3b7;" horiz-adv-x="1167" 
d="M649 1051q187 0 298.5 -116.5t111.5 -352.5v-992h-105v988q0 183 -84.5 279.5t-236.5 96.5q-165 0 -262 -119.5t-97 -322.5v-512h-104v848q0 52 -20.5 73t-71.5 21h-47v96h71q93 0 130.5 -41t37.5 -127v-67q45 113 141 180.5t238 67.5z" />
    <glyph glyph-name="theta" unicode="&#x3b8;" horiz-adv-x="1146" 
d="M573 1446q230 0 360 -185t130 -542q0 -354 -130.5 -542.5t-359.5 -188.5q-228 0 -358.5 188t-130.5 543t130 541t359 186zM573 1352q-175 0 -276 -143.5t-111 -432.5h772q-10 290 -110 433t-275 143zM573 82q177 0 278 151t107 451h-772q6 -299 107.5 -450.5
t279.5 -151.5z" />
    <glyph glyph-name="iota" unicode="&#x3b9;" horiz-adv-x="475" 
d="M461 0h-109q-126 0 -179.5 57t-53.5 179v802h104v-800q0 -76 31 -109t106 -33h101v-96z" />
    <glyph glyph-name="kappa" unicode="&#x3ba;" horiz-adv-x="1015" 
d="M520 598l475 -598h-129l-411 522l-228 -282v-240h-104v1038h104v-657l394 498q75 97 128 129t148 32h64v-96h-50q-72 0 -109.5 -21t-94.5 -92z" />
    <glyph glyph-name="lambda" unicode="&#x3bb;" horiz-adv-x="1026" 
d="M147 0h-110l422 1006l-80 192q-34 87 -68 113t-106 26h-111v97h135q100 0 148 -40.5t102 -172.5l510 -1221h-112l-367 883z" />
    <glyph glyph-name="uni03BC" unicode="&#x3bc;" horiz-adv-x="1157" 
d="M1085 96h45v-96h-69q-95 0 -133 42t-35 128l2 84q-38 -125 -134 -195.5t-229 -70.5q-109 0 -193 52.5t-112 139.5v-590h-104v1448h104v-565q0 -187 83.5 -288t230.5 -101q157 0 252.5 124t95.5 331v499h104v-845q0 -54 20 -75.5t72 -21.5z" />
    <glyph glyph-name="nu" unicode="&#x3bd;" horiz-adv-x="974" 
d="M424 0l-406 1038h113l358 -917l357 917h108l-405 -1038h-125z" />
    <glyph glyph-name="xi" unicode="&#x3be;" horiz-adv-x="950" 
d="M924 -276h-101v131q0 85 -31.5 114t-121.5 31l-115 2q-481 13 -481 377q0 147 84 244t223 122q-110 24 -172 98.5t-62 188.5q0 133 85.5 211.5t228.5 106.5l-367 -2v86h805v-84q-68 0 -178 -4q-467 -24 -467 -299q0 -123 82 -191t244 -68h215v-96h-228q-189 0 -288 -80
t-99 -225q0 -148 99.5 -216t289.5 -73l115 -4q130 -3 185 -49.5t55 -163.5v-157z" />
    <glyph glyph-name="omicron" unicode="&#x3bf;" horiz-adv-x="1165" 
d="M582 -12q-220 0 -359 148t-139 384q0 235 139 383t359 148t359.5 -148t139.5 -383q0 -236 -139.5 -384t-359.5 -148zM582 82q173 0 282 122t109 316q0 192 -109 315t-282 123t-282.5 -123t-109.5 -315q0 -194 109.5 -316t282.5 -122z" />
    <glyph glyph-name="pi" unicode="&#x3c0;" horiz-adv-x="1232" 
d="M1196 1038v-96h-201v-752q0 -53 20 -73.5t72 -20.5h50v-96h-86q-83 0 -121.5 41.5t-38.5 126.5v774h-561v-942h-105v942h-196v96h1167z" />
    <glyph glyph-name="rho" unicode="&#x3c1;" horiz-adv-x="1187" 
d="M606 1051q220 0 359 -148t139 -383q0 -236 -139 -384t-359 -148q-131 0 -237.5 64t-153.5 165v-627h-104v928q0 239 139 386t356 147zM606 82q173 0 282 123t109 315q0 191 -109 314.5t-282 123.5t-282 -123.5t-109 -316.5q0 -191 109 -313.5t282 -122.5z" />
    <glyph glyph-name="uni03C2" unicode="&#x3c2;" horiz-adv-x="1064" 
d="M920 -276h-101v131q0 83 -32.5 113t-120.5 30l-70 2q-252 5 -382 134.5t-130 381.5q0 239 137.5 387t356.5 148q176 0 292 -92t148 -254h-109q-28 118 -116 185.5t-218 67.5q-170 0 -277.5 -123t-107.5 -319q0 -212 111 -315.5t309 -106.5h70q128 -2 184 -50.5t56 -162.5
v-157z" />
    <glyph glyph-name="sigma" unicode="&#x3c3;" horiz-adv-x="1224" 
d="M582 -12q-220 0 -359 146t-139 380q0 235 138.5 379.5t359.5 144.5h606v-96h-346q113 -54 176 -167t63 -261q0 -234 -139.5 -380t-359.5 -146zM582 82q173 0 282 120.5t109 311.5q0 192 -109 312t-282 120t-282.5 -120t-109.5 -312q0 -191 109.5 -311.5t282.5 -120.5z
" />
    <glyph glyph-name="tau" unicode="&#x3c4;" horiz-adv-x="1005" 
d="M969 1038v-96h-432v-698q0 -80 33 -114t112 -34h158v-96h-166q-130 0 -187 58t-57 184v700h-401v96h940z" />
    <glyph glyph-name="upsilon" unicode="&#x3c5;" horiz-adv-x="1087" 
d="M545 -12q-434 0 -434 469v581h104v-573q0 -195 79 -288t251 -93q171 0 250 93t79 288v573h105v-581q0 -239 -112.5 -354t-321.5 -115z" />
    <glyph glyph-name="phi" unicode="&#x3c6;" horiz-adv-x="1468" 
d="M786 -410h-102v400q-267 3 -428.5 145t-161.5 391q0 245 161.5 383t428.5 140v264h102v-264q266 -2 428 -140t162 -381q0 -249 -162 -392.5t-428 -145.5v-400zM684 80v878q-221 0 -354 -113.5t-133 -318.5q0 -210 133 -327t354 -119zM786 958v-878q221 2 352.5 119.5
t131.5 328.5q0 204 -131.5 317t-352.5 113z" />
    <glyph glyph-name="chi" unicode="&#x3c7;" horiz-adv-x="1095" 
d="M127 -410h-117l461 750l-233 457q-46 92 -83.5 118.5t-115.5 26.5h-35v96h59q109 0 155.5 -35.5t111.5 -166.5l209 -412l374 614h113l-428 -700l262 -506q49 -94 85.5 -119.5t115.5 -25.5h35v-97h-64q-47 0 -77.5 5.5t-54.5 16t-45.5 37.5t-39.5 57t-47 87l-236 465z" />
    <glyph glyph-name="psi" unicode="&#x3c8;" horiz-adv-x="1345" 
d="M1130 504v534h105v-538q0 -489 -510 -512v-398h-102v400q-249 11 -380.5 133.5t-131.5 376.5v538h104v-532q0 -212 97 -312.5t311 -109.5v1229h102v-1229q211 9 308 109.5t97 310.5z" />
    <glyph glyph-name="omega" unicode="&#x3c9;" horiz-adv-x="1562" 
d="M477 -12q-179 0 -281 126t-102 367q0 101 25.5 196.5t66 165t79.5 118t75 77.5h121q-45 -40 -86 -90.5t-82.5 -120.5t-66.5 -161t-25 -187q0 -194 71 -295.5t209 -101.5q122 0 186 91.5t64 256.5v236h103v-236q0 -167 61 -257.5t184 -90.5q138 0 210.5 101.5t72.5 295.5
q0 96 -25 187t-67 161t-82.5 120t-85.5 91h121q36 -29 75 -77.5t79 -118t65.5 -165t25.5 -196.5q0 -241 -102 -367t-281 -126q-238 0 -305 235q-67 -235 -303 -235z" />
    <glyph glyph-name="iotadieresis" unicode="&#x3ca;" horiz-adv-x="475" 
d="M-72 1321q0 31 20.5 51.5t51.5 20.5q32 0 53 -20.5t21 -51.5t-21 -51.5t-53 -20.5q-31 0 -51.5 20.5t-20.5 51.5zM270 1321q0 31 21.5 51.5t52.5 20.5t51.5 -20.5t20.5 -51.5t-20.5 -51.5t-51.5 -20.5t-52.5 20.5t-21.5 51.5zM461 0h-109q-126 0 -179.5 57t-53.5 179v802
h104v-800q0 -76 31 -109t106 -33h101v-96z" />
    <glyph glyph-name="upsilondieresis" unicode="&#x3cb;" horiz-adv-x="1087" 
d="M301 1321q0 31 20.5 51.5t51.5 20.5q32 0 52.5 -20.5t20.5 -51.5t-20.5 -51.5t-52.5 -20.5q-31 0 -51.5 20.5t-20.5 51.5zM643 1321q0 31 21.5 51.5t52.5 20.5t51 -20.5t20 -51.5t-20 -51.5t-51 -20.5t-52.5 20.5t-21.5 51.5zM545 -12q-434 0 -434 469v581h104v-573
q0 -195 79 -288t251 -93q171 0 250 93t79 288v573h105v-581q0 -239 -112.5 -354t-321.5 -115z" />
    <glyph glyph-name="omicrontonos" unicode="&#x3cc;" horiz-adv-x="1165" 
d="M631 1169h-74l90 293h113zM582 -12q-220 0 -359 148t-139 384q0 235 139 383t359 148t359.5 -148t139.5 -383q0 -236 -139.5 -384t-359.5 -148zM582 82q173 0 282 122t109 316q0 192 -109 315t-282 123t-282.5 -123t-109.5 -315q0 -194 109.5 -316t282.5 -122z" />
    <glyph glyph-name="upsilontonos" unicode="&#x3cd;" horiz-adv-x="1087" 
d="M590 1169h-74l90 293h113zM545 -12q-434 0 -434 469v581h104v-573q0 -195 79 -288t251 -93q171 0 250 93t79 288v573h105v-581q0 -239 -112.5 -354t-321.5 -115z" />
    <glyph glyph-name="omegatonos" unicode="&#x3ce;" horiz-adv-x="1562" 
d="M825 1169h-73l90 293h112zM477 -12q-179 0 -281 126t-102 367q0 101 25.5 196.5t66 165t79.5 118t75 77.5h121q-45 -40 -86 -90.5t-82.5 -120.5t-66.5 -161t-25 -187q0 -194 71 -295.5t209 -101.5q122 0 186 91.5t64 256.5v236h103v-236q0 -167 61 -257.5t184 -90.5
q138 0 210.5 101.5t72.5 295.5q0 96 -25 187t-67 161t-82.5 120t-85.5 91h121q36 -29 75 -77.5t79 -118t65.5 -165t25.5 -196.5q0 -241 -102 -367t-281 -126q-238 0 -305 235q-67 -235 -303 -235z" />
    <glyph glyph-name="uni0400" unicode="&#x400;" horiz-adv-x="1118" 
d="M549 1565l-221 270h123l184 -270h-86zM147 0v1434h883v-103h-772v-547h647v-102h-647v-580h799v-102h-910z" />
    <glyph glyph-name="uni0401" unicode="&#x401;" horiz-adv-x="1118" 
d="M350 1716q0 31 20.5 51.5t51.5 20.5q32 0 53 -20.5t21 -51.5t-21 -51t-53 -20q-31 0 -51.5 20t-20.5 51zM692 1716q0 31 21.5 51.5t52.5 20.5t51.5 -20.5t20.5 -51.5t-20.5 -51t-51.5 -20t-52.5 20.5t-21.5 50.5zM147 0v1434h883v-103h-772v-547h647v-102h-647v-580h799
v-102h-910z" />
    <glyph glyph-name="uni0402" unicode="&#x402;" horiz-adv-x="1607" 
d="M1067 872q227 0 348 -113.5t121 -346.5v-222q0 -235 -120.5 -350.5t-348.5 -115.5h-61v102h55q182 0 273 88t91 279v204q0 193 -96.5 283t-284.5 90q-115 0 -219 -34t-182 -95v-641h-111v1331h-491v103h1192v-103h-590v-581q162 122 424 122z" />
    <glyph glyph-name="uni0403" unicode="&#x403;" horiz-adv-x="995" 
d="M625 1565h-84l186 270h123zM258 0h-111v1434h807v-103h-696v-1331z" />
    <glyph glyph-name="uni0404" unicode="&#x404;" horiz-adv-x="1429" 
d="M752 90q183 0 304 90t167 262h116q-46 -216 -199.5 -335t-383.5 -119q-300 0 -480 200.5t-180 528.5q0 324 183 526.5t483 202.5q226 0 380 -119t201 -334h-116q-47 169 -169 259.5t-302 90.5q-233 0 -380.5 -157.5t-162.5 -411.5h672v-102h-672q12 -260 158 -421
t381 -161z" />
    <glyph glyph-name="uni0405" unicode="&#x405;" horiz-adv-x="1222" 
d="M94 440h115q11 -160 125 -256t295 -96q175 0 281 79t106 216q0 44 -12.5 80t-32 62.5t-53 48.5t-65.5 36t-81 27.5t-87 21t-95 17.5q-56 10 -98 19t-93 24.5t-88 34t-73.5 47t-59.5 62.5t-37 81.5t-14 104.5q0 182 131 289.5t350 107.5q218 0 351.5 -111t148.5 -297h-113
q-19 141 -123 224.5t-264 83.5q-171 0 -270.5 -76.5t-99.5 -214.5q0 -43 12 -78t30 -60t51 -46t62 -34t78 -25.5t83.5 -19t92.5 -16.5q68 -12 119 -24t110 -32.5t100.5 -48.5t77.5 -66.5t54 -92t18 -119.5q0 -182 -137 -293.5t-362 -111.5q-238 0 -380 123.5t-153 328.5z
" />
    <glyph glyph-name="uni0406" unicode="&#x406;" horiz-adv-x="405" 
d="M147 0v1434h111v-1434h-111z" />
    <glyph glyph-name="uni0407" unicode="&#x407;" horiz-adv-x="405" 
d="M-41 1716q0 31 20.5 51.5t51.5 20.5q32 0 52.5 -20.5t20.5 -51.5t-20.5 -51t-52.5 -20q-31 0 -51.5 20t-20.5 51zM301 1716q0 31 21.5 51.5t52.5 20.5t51 -20.5t20 -51.5t-20 -51t-51 -20t-52.5 20.5t-21.5 50.5zM147 0v1434h111v-1434h-111z" />
    <glyph glyph-name="uni0408" unicode="&#x408;" horiz-adv-x="694" 
d="M436 307v1127h111v-1135q0 -299 -299 -299h-191v102h176q107 0 155 49.5t48 155.5z" />
    <glyph glyph-name="uni0409" unicode="&#x409;" horiz-adv-x="2097" 
d="M80 0h-62v102h45q88 0 135.5 30.5t71 112t23.5 232.5v957h905v-627h399q198 0 318.5 -112.5t120.5 -291.5q0 -177 -121 -290t-318 -113h-510v1331h-686v-866q0 -177 -35 -279.5t-103.5 -144t-182.5 -41.5zM1198 705v-603h391q152 0 243 83t91 218t-91 218.5t-243 83.5
h-391z" />
    <glyph glyph-name="uni040A" unicode="&#x40a;" horiz-adv-x="2084" 
d="M258 0h-111v1434h111v-627h817v627h111v-627h399q198 0 318 -112.5t120 -291.5q0 -177 -121.5 -290t-318.5 -113h-508v705h-817v-705zM1186 705v-603h389q153 0 244.5 83t91.5 218t-91.5 218.5t-244.5 83.5h-389z" />
    <glyph glyph-name="uni040B" unicode="&#x40b;" horiz-adv-x="1624" 
d="M1063 872q226 0 347.5 -109.5t121.5 -332.5v-430h-111v414q0 186 -96.5 271t-284.5 85q-115 0 -218 -34t-179 -95v-641h-111v1331h-491v103h1192v-103h-590v-581q159 122 420 122z" />
    <glyph glyph-name="uni040C" unicode="&#x40c;" horiz-adv-x="1267" 
d="M668 1565h-84l186 270h123zM258 0h-111v1434h111v-652h307l498 652h129l-533 -697l570 -737h-135l-529 680h-307v-680z" />
    <glyph glyph-name="uni040D" unicode="&#x45d;" horiz-adv-x="1363" 
d="M639 1565l-221 270h123l184 -270h-86zM252 0h-105v1434h111v-1250l854 1250h102v-1434h-110v1249z" />
    <glyph glyph-name="uni040D" unicode="&#x40d;" horiz-adv-x="1363" 
d="M639 1565l-221 270h123l184 -270h-86zM252 0h-105v1434h111v-1250l854 1250h102v-1434h-110v1249z" />
    <glyph glyph-name="uni040E" unicode="&#x40e;" horiz-adv-x="1220" 
d="M623 1575q-134 0 -204.5 68t-72.5 192h88q0 -182 189 -182q192 0 192 182h88q-2 -124 -73 -192t-207 -68zM336 0h-154v102h127q89 0 133.5 30t89.5 126l56 121l-559 1055h127l489 -936l428 936h119l-561 -1205q-61 -133 -126 -181t-169 -48z" />
    <glyph glyph-name="uni040F" unicode="&#x40f;" horiz-adv-x="1329" 
d="M1071 1434h111v-1434h-451v-293h-110v293h-474v1434h111v-1332h813v1332z" />
    <glyph glyph-name="uni0410" unicode="&#x410;" horiz-adv-x="1306" 
d="M150 0h-115l555 1434h129l553 -1434h-119l-172 438h-659zM651 1311l-297 -770h594z" />
    <glyph glyph-name="uni0411" unicode="&#x411;" horiz-adv-x="1193" 
d="M676 0h-529v1434h844v-103h-733v-506h418q204 0 325 -108t121 -303q0 -191 -121 -302.5t-325 -111.5zM258 723v-621h408q158 0 251 84.5t93 225.5t-93 226t-251 85h-408z" />
    <glyph glyph-name="uni0412" unicode="&#x412;" horiz-adv-x="1241" 
d="M147 0v1434h490q214 0 331 -98.5t117 -270.5q0 -128 -67.5 -210.5t-190.5 -113.5q150 -23 237 -108.5t87 -233.5q0 -189 -129.5 -294t-376.5 -105h-498zM641 1333h-383v-551h383q159 0 246.5 73.5t87.5 203.5q0 129 -87 201.5t-247 72.5zM645 682h-387v-582h387
q190 0 290.5 78t100.5 215q0 140 -102 214.5t-289 74.5z" />
    <glyph glyph-name="uni0413" unicode="&#x413;" horiz-adv-x="995" 
d="M258 0h-111v1434h807v-103h-696v-1331z" />
    <glyph glyph-name="uni0414" unicode="&#x414;" horiz-adv-x="1488" 
d="M1262 1434v-1332h178v-395h-111v293h-1177v-293h-111v395h129q54 51 86.5 121t52 208t19.5 351v652h934zM301 102h850v1237h-719v-569q0 -277 -31 -427.5t-100 -240.5z" />
    <glyph glyph-name="uni0415" unicode="&#x415;" horiz-adv-x="1118" 
d="M147 0v1434h883v-103h-772v-547h647v-102h-647v-580h799v-102h-910z" />
    <glyph glyph-name="uni0416" unicode="&#x416;" horiz-adv-x="1974" 
d="M172 0h-133l543 735l-506 699h127l475 -654h254v654h110v-654h254l478 654h127l-506 -699l540 -735h-133l-502 678h-258v-678h-110v678h-256z" />
    <glyph glyph-name="uni0417" unicode="&#x417;" horiz-adv-x="1204" 
d="M598 -12q-235 0 -368.5 111t-145.5 315h113q13 -158 120 -241t287 -83q184 0 289.5 82t105.5 223q0 142 -95.5 215.5t-278.5 73.5h-185v94h178q167 0 256 77.5t89 211.5q0 129 -98.5 202.5t-262.5 73.5q-171 0 -272.5 -80t-116.5 -221h-113q15 184 150 294t350 110
q219 0 347 -101.5t128 -267.5q0 -139 -72 -227t-196 -113q137 -22 221 -107.5t84 -240.5q0 -182 -140 -291.5t-374 -109.5z" />
    <glyph glyph-name="uni0418" unicode="&#x418;" horiz-adv-x="1363" 
d="M252 0h-105v1434h111v-1250l854 1250h102v-1434h-110v1249z" />
    <glyph glyph-name="uni0419" unicode="&#x419;" horiz-adv-x="1363" 
d="M682 1575q-134 0 -204 68t-72 192h88q0 -182 188 -182q192 0 192 182h89q-2 -123 -73.5 -191.5t-207.5 -68.5zM252 0h-105v1434h111v-1250l854 1250h102v-1434h-110v1249z" />
    <glyph glyph-name="uni041A" unicode="&#x41a;" horiz-adv-x="1267" 
d="M258 0h-111v1434h111v-652h307l498 652h129l-533 -697l570 -737h-135l-529 680h-307v-680z" />
    <glyph glyph-name="uni041B" unicode="&#x41b;" horiz-adv-x="1384" 
d="M66 0h-48v102h35q67 0 111 26t76.5 95.5t46.5 193t14 314.5v703h936v-1434h-111v1331h-718v-608q0 -279 -38 -439t-110.5 -222t-193.5 -62z" />
    <glyph glyph-name="uni041C" unicode="&#x41c;" horiz-adv-x="1685" 
d="M147 0v1434h142l557 -1284l553 1284h139v-1434h-108v1247l-537 -1247h-100l-537 1247v-1247h-109z" />
    <glyph glyph-name="uni041D" unicode="&#x41d;" horiz-adv-x="1345" 
d="M147 0v1434h111v-652h829v652h111v-1434h-111v680h-829v-680h-111z" />
    <glyph glyph-name="uni041E" unicode="&#x41e;" horiz-adv-x="1533" 
d="M1436 717q0 -210 -84.5 -376t-237.5 -259.5t-348 -93.5q-194 0 -347 93.5t-238 259.5t-85 376t85 376t238 259.5t347 93.5q195 0 348 -93.5t237.5 -259.5t84.5 -376zM211 717q0 -276 155 -451.5t400 -175.5q163 0 290 80t197 222.5t70 324.5q0 276 -155 451t-402 175
q-162 0 -288.5 -79.5t-196.5 -222t-70 -324.5z" />
    <glyph glyph-name="uni041F" unicode="&#x41f;" horiz-adv-x="1335" 
d="M258 0h-111v1434h1039v-1434h-111v1331h-817v-1331z" />
    <glyph glyph-name="uni0420" unicode="&#x420;" horiz-adv-x="1179" 
d="M147 0v1434h533q203 0 325.5 -115t122.5 -303t-123 -303t-325 -115h-422v-598h-111zM672 1331h-414v-631h412q157 0 251.5 87.5t94.5 228.5q0 142 -93.5 228.5t-250.5 86.5z" />
    <glyph glyph-name="uni0421" unicode="&#x421;" horiz-adv-x="1429" 
d="M754 -12q-299 0 -478.5 201t-179.5 528q0 324 183 526.5t483 202.5q226 0 380 -119t201 -334h-116q-47 169 -169 259.5t-302 90.5q-163 0 -287.5 -80t-191 -221.5t-66.5 -324.5q0 -278 147.5 -452.5t393.5 -174.5q183 0 304 90t167 262h116q-46 -216 -200 -335t-385 -119
z" />
    <glyph glyph-name="uni0422" unicode="&#x422;" horiz-adv-x="1175" 
d="M41 1331v103h1094v-103h-492v-1331h-111v1331h-491z" />
    <glyph glyph-name="uni0423" unicode="&#x423;" horiz-adv-x="1220" 
d="M336 0h-154v102h127q89 0 133.5 30t89.5 126l56 121l-559 1055h127l489 -936l428 936h119l-561 -1205q-61 -133 -126 -181t-169 -48z" />
    <glyph glyph-name="uni0424" unicode="&#x424;" horiz-adv-x="1763" 
d="M1667 717q0 -282 -196 -445.5t-535 -171.5v-182h-107v182q-339 6 -536 170t-197 447q0 282 197 445t536 171v183h107v-183q339 -8 535 -171t196 -445zM207 717q0 -238 164.5 -375t457.5 -143v1036q-293 -6 -457.5 -143t-164.5 -375zM936 1235v-1036q293 6 456.5 143
t163.5 375t-163 374.5t-457 143.5z" />
    <glyph glyph-name="uni0425" unicode="&#x425;" horiz-adv-x="1218" 
d="M39 0l502 733l-471 701h131l409 -611l410 611h129l-469 -693l500 -741h-131l-443 649l-438 -649h-129z" />
    <glyph glyph-name="uni0426" unicode="&#x426;" horiz-adv-x="1409" 
d="M1182 1434v-1332h178v-395h-111v293h-1102v1434h111v-1332h813v1332h111z" />
    <glyph glyph-name="uni0427" unicode="&#x427;" horiz-adv-x="1245" 
d="M987 768v666h111v-1434h-111v657q-179 -116 -426 -116q-222 0 -347.5 110t-125.5 328v455h111v-433q0 -358 374 -358q236 0 414 125z" />
    <glyph glyph-name="uni0428" unicode="&#x428;" horiz-adv-x="1992" 
d="M1845 0h-1698v1434h111v-1332h684v1332h111v-1332h682v1332h110v-1434z" />
    <glyph glyph-name="uni0429" unicode="&#x429;" horiz-adv-x="2072" 
d="M1845 1434v-1332h178v-395h-110v293h-1766v1434h111v-1332h684v1332h111v-1332h682v1332h110z" />
    <glyph glyph-name="uni042A" unicode="&#x42a;" horiz-adv-x="1517" 
d="M997 0h-524v1339h-432v95h543v-578h413q205 0 332 -120.5t127 -309.5q0 -186 -127 -306t-332 -120zM584 754v-652h403q161 0 258.5 90t97.5 234q0 146 -97.5 237t-258.5 91h-403z" />
    <glyph glyph-name="uni042B" unicode="&#x42b;" horiz-adv-x="1566" 
d="M653 0h-506v1434h111v-578h395q205 0 332 -120.5t127 -309.5q0 -186 -127 -306t-332 -120zM1419 0h-110v1434h110v-1434zM258 754v-652h387q160 0 257 90t97 234q0 146 -97.5 237t-258.5 91h-385z" />
    <glyph glyph-name="uni042C" unicode="&#x42c;" horiz-adv-x="1191" 
d="M672 0h-525v1434h111v-578h414q207 0 332.5 -120t125.5 -310q0 -186 -126.5 -306t-331.5 -120zM258 754v-652h406q160 0 257 90t97 234q0 146 -97 237t-257 91h-406z" />
    <glyph glyph-name="uni042D" unicode="&#x42d;" horiz-adv-x="1431" 
d="M678 1446q199 0 348 -91.5t228 -256.5t79 -381q0 -214 -81 -379t-232 -257.5t-350 -92.5q-232 0 -384 118.5t-198 335.5h117q47 -171 167 -261.5t302 -90.5q237 0 385 161.5t160 420.5h-672v102h672q-15 256 -159.5 412.5t-377.5 156.5q-181 0 -301.5 -90.5
t-167.5 -259.5h-117q46 214 200 333.5t382 119.5z" />
    <glyph glyph-name="uni042E" unicode="&#x42e;" horiz-adv-x="1976" 
d="M1214 1446q194 0 346 -93.5t236 -259.5t84 -376t-84 -376t-236 -259.5t-346 -93.5q-281 0 -465 192t-198 494h-293v-674h-111v1434h111v-658h295q12 195 98 347t232.5 237.5t330.5 85.5zM1214 90q245 0 399 175.5t154 451.5t-154 451t-399 175q-244 0 -397 -175
t-153 -451q0 -182 69 -324.5t194.5 -222.5t286.5 -80z" />
    <glyph glyph-name="uni042F" unicode="&#x42f;" horiz-adv-x="1247" 
d="M559 1434h541v-1434h-111v594h-393l-377 -594h-129l383 604q-176 21 -274.5 132.5t-98.5 279.5q0 185 126.5 301.5t332.5 116.5zM563 696h426v635h-424q-160 0 -256 -87.5t-96 -229.5q0 -143 95 -230.5t255 -87.5z" />
    <glyph glyph-name="uni0430" unicode="&#x430;" horiz-adv-x="1091" 
d="M1036 96h39v-96h-61q-92 0 -132.5 42t-37.5 134v37q-51 -104 -150.5 -164.5t-249.5 -60.5q-167 0 -266.5 80t-99.5 217q0 147 105.5 228t303.5 81h353v90q0 130 -79.5 202t-225.5 72q-130 0 -211.5 -56.5t-102.5 -153.5h-104q20 141 132 222t290 81q195 0 300 -96
t105 -275v-483q0 -58 22 -79.5t70 -21.5zM840 420v84h-361q-144 0 -219.5 -55t-75.5 -158q0 -97 72.5 -155t196.5 -58q181 0 284 94.5t103 247.5z" />
    <glyph glyph-name="uni0431" unicode="&#x431;" horiz-adv-x="1159" 
d="M610 979q203 0 335 -137t132 -355t-137 -358.5t-354 -140.5q-226 0 -359 144.5t-133 420.5q0 150 11.5 262t38.5 204.5t69 155.5t107 110t148.5 74.5t195.5 41.5l340 45v-98l-320 -43q-136 -18 -221.5 -52t-142 -100t-83 -160t-36.5 -241q50 100 156.5 163.5t252.5 63.5z
M586 80q168 0 276.5 113t108.5 290q0 175 -107.5 288.5t-273.5 113.5q-169 0 -279 -108.5t-110 -266.5q0 -204 107 -317t278 -113z" />
    <glyph glyph-name="uni0432" unicode="&#x432;" horiz-adv-x="1024" 
d="M555 0h-432v1038h430q352 0 352 -268q0 -96 -51 -155.5t-141 -77.5q109 -14 171 -76.5t62 -171.5q0 -142 -100 -215.5t-291 -73.5zM227 948v-373h334q238 0 238 187q0 94 -56.5 140t-181.5 46h-334zM227 487v-397h342q133 0 203 50t70 149q0 97 -70.5 147.5t-202.5 50.5
h-342z" />
    <glyph glyph-name="uni0433" unicode="&#x433;" horiz-adv-x="784" 
d="M227 0h-104v1038h639v-96h-535v-942z" />
    <glyph glyph-name="uni0434" unicode="&#x434;" horiz-adv-x="1179" 
d="M987 1038v-942h166v-372h-104v276h-924v-276h-105v372h103q44 38 68.5 83.5t39.5 147t15 271.5v440h741zM252 96h631v846h-535v-354q0 -209 -23 -319t-73 -173z" />
    <glyph glyph-name="uni0435" unicode="&#x435;" horiz-adv-x="1126" 
d="M582 -12q-222 0 -360 147.5t-138 390.5q0 231 133 378t346 147q212 0 342 -130.5t137 -359.5q0 -6 -1 -21t-1 -22h-847v-18q3 -185 106 -301.5t274 -116.5q128 0 223 70.5t126 191.5h106q-34 -159 -156 -257.5t-290 -98.5zM201 606h729q-12 167 -111 259.5t-254 92.5
q-145 0 -248.5 -98t-115.5 -254z" />
    <glyph glyph-name="uni0436" unicode="&#x436;" horiz-adv-x="1513" 
d="M133 0h-121l420 537l-385 501h117l354 -458h189v458h102v-458h188l353 458h116l-383 -501l418 -537h-121l-381 483h-190v-483h-102v483h-193z" />
    <glyph glyph-name="uni0437" unicode="&#x437;" horiz-adv-x="1001" 
d="M694 532q108 -16 169 -76t61 -163q0 -139 -117.5 -222t-317.5 -83q-393 0 -415 315h108q18 -114 90.5 -169.5t219.5 -55.5q149 0 236 58t87 157q0 95 -67 142.5t-191 47.5h-174v90h168q112 0 176 48t64 141q0 91 -77.5 145t-211.5 54q-140 0 -219 -59.5t-97 -162.5h-106
q11 140 124.5 226t299.5 86q183 0 288 -77.5t105 -209.5q0 -96 -56 -156t-147 -76z" />
    <glyph glyph-name="uni0438" unicode="&#x438;" horiz-adv-x="1130" 
d="M215 0h-92v1038h102v-878l690 878h93v-1038h-103v883z" />
    <glyph glyph-name="uni0439" unicode="&#x439;" horiz-adv-x="1130" 
d="M563 1180q-134 0 -204 68t-72 192h88q0 -183 188 -183q193 0 193 183h88q-2 -123 -73.5 -191.5t-207.5 -68.5zM215 0h-92v1038h102v-878l690 878h93v-1038h-103v883z" />
    <glyph glyph-name="uni043A" unicode="&#x43a;" horiz-adv-x="1015" 
d="M227 0h-104v1038h104v-458h252l367 458h123l-404 -499l439 -539h-127l-398 483h-252v-483z" />
    <glyph glyph-name="uni043B" unicode="&#x43b;" horiz-adv-x="1075" 
d="M47 0h-39v96h25q68 0 105.5 36t57 131t19.5 269v506h737v-1038h-104v942h-531v-414q0 -205 -30.5 -322t-87.5 -161.5t-152 -44.5z" />
    <glyph glyph-name="uni043C" unicode="&#x43c;" horiz-adv-x="1388" 
d="M223 0h-100v1038h129l444 -909l441 909h127l2 -1038h-101v881l-430 -881h-84l-428 881v-881z" />
    <glyph glyph-name="uni043D" unicode="&#x43d;" horiz-adv-x="1120" 
d="M893 580v458h104v-1038h-104v483h-666v-483h-104v1038h104v-458h666z" />
    <glyph glyph-name="uni043E" unicode="&#x43e;" horiz-adv-x="1165" 
d="M582 -12q-220 0 -359 148t-139 384q0 235 139 383t359 148t359.5 -148t139.5 -383q0 -236 -139.5 -384t-359.5 -148zM582 82q173 0 282 122t109 316q0 192 -109 315t-282 123t-282.5 -123t-109.5 -315q0 -194 109.5 -316t282.5 -122z" />
    <glyph glyph-name="uni043F" unicode="&#x43f;" horiz-adv-x="1099" 
d="M227 0h-104v1038h854v-1038h-105v942h-645v-942z" />
    <glyph glyph-name="uni0440" unicode="&#x440;" horiz-adv-x="1198" 
d="M625 1051q216 0 352.5 -144.5t136.5 -386.5q0 -235 -137 -383.5t-352 -148.5q-145 0 -249 68t-149 184v-650h-104v1448h90l16 -237q52 114 153.5 182t242.5 68zM616 82q173 0 282.5 122t109.5 316q0 192 -109.5 315t-282.5 123t-282 -122.5t-109 -313.5
q0 -195 109 -317.5t282 -122.5z" />
    <glyph glyph-name="uni0441" unicode="&#x441;" horiz-adv-x="1097" 
d="M575 -12q-220 0 -355.5 145.5t-135.5 384.5q0 236 137 384.5t357 148.5q176 0 292 -92t148 -254h-109q-28 118 -116 185.5t-218 67.5q-171 0 -278 -123t-107 -317q0 -193 107.5 -314.5t277.5 -121.5q128 0 217 68t115 184h111q-31 -159 -149 -252.5t-294 -93.5z" />
    <glyph glyph-name="uni0442" unicode="&#x442;" horiz-adv-x="958" 
d="M532 0h-104v942h-405v96h913v-96h-404v-942z" />
    <glyph glyph-name="uni0443" unicode="&#x443;" horiz-adv-x="976" 
d="M434 0l-416 1038h113l361 -903l354 903h112l-497 -1231q-28 -69 -46 -104.5t-45 -64.5t-61 -38.5t-86 -9.5h-160v97h132q76 0 105.5 27t66.5 118z" />
    <glyph glyph-name="uni0444" unicode="&#x444;" horiz-adv-x="1458" 
d="M780 -410h-102v402q-266 3 -430 147.5t-164 380.5q0 234 164.5 379t429.5 150v352h102v-352q266 -5 430 -149t164 -380q0 -234 -164.5 -379.5t-429.5 -148.5v-402zM678 84v872q-219 -3 -353.5 -121.5t-134.5 -314.5q0 -197 134.5 -315t353.5 -121zM780 956v-872
q220 3 354 121t134 315q0 198 -134 315.5t-354 120.5z" />
    <glyph glyph-name="uni0445" unicode="&#x445;" horiz-adv-x="960" 
d="M12 0l404 530l-383 508h125l323 -430l328 430h119l-383 -508l403 -530h-127l-344 457l-344 -457h-121z" />
    <glyph glyph-name="uni0446" unicode="&#x446;" horiz-adv-x="1153" 
d="M958 1038v-942h168v-372h-104v276h-899v1038h104v-942h625v942h106z" />
    <glyph glyph-name="uni0447" unicode="&#x447;" horiz-adv-x="1017" 
d="M791 547v491h104v-1038h-104v449q-62 -46 -147 -71.5t-177 -25.5q-186 0 -286.5 88t-100.5 271v327h104v-309q0 -148 75 -214t226 -66q184 0 306 98z" />
    <glyph glyph-name="uni0448" unicode="&#x448;" horiz-adv-x="1609" 
d="M1487 0h-1364v1038h104v-942h527v942h104v-942h524v942h105v-1038z" />
    <glyph glyph-name="uni0449" unicode="&#x449;" horiz-adv-x="1683" 
d="M1487 1038v-942h170v-372h-105v276h-1429v1038h104v-942h527v942h104v-942h524v942h105z" />
    <glyph glyph-name="uni044A" unicode="&#x44a;" horiz-adv-x="1241" 
d="M463 668h307q191 0 294 -86.5t103 -247.5q0 -159 -103.5 -246.5t-293.5 -87.5h-412v942h-335v96h440v-370zM463 90h291q149 0 228 63.5t79 180.5q0 121 -78.5 182.5t-228.5 61.5h-291v-488z" />
    <glyph glyph-name="uni044B" unicode="&#x44b;" horiz-adv-x="1327" 
d="M518 0h-395v1038h104v-370h291q191 0 294 -86.5t103 -247.5q0 -159 -103.5 -246.5t-293.5 -87.5zM1206 0h-104v1038h104v-1038zM227 578v-488h275q149 0 228 63.5t79 180.5q0 121 -78.5 182.5t-228.5 61.5h-275z" />
    <glyph glyph-name="uni044C" unicode="&#x44c;" horiz-adv-x="1003" 
d="M532 0h-409v1038h104v-370h305q191 0 295.5 -86.5t104.5 -247.5q0 -158 -105 -246t-295 -88zM227 578v-488h291q149 0 228 63.5t79 180.5q0 121 -78.5 182.5t-228.5 61.5h-291z" />
    <glyph glyph-name="uni044D" unicode="&#x44d;" horiz-adv-x="1097" 
d="M524 1051q221 0 355.5 -145t134.5 -384q0 -238 -137 -386t-355 -148q-179 0 -295 92.5t-147 255.5h108q26 -119 115 -187.5t219 -68.5q161 0 265 109t116 288h-508v92h508q-12 174 -116 281.5t-263 107.5q-128 0 -218 -68t-116 -185h-110q29 160 149 253t295 93z" />
    <glyph glyph-name="uni044E" unicode="&#x44e;" horiz-adv-x="1585" 
d="M1006 1051q223 0 360 -146.5t137 -382.5q0 -237 -137.5 -385.5t-359.5 -148.5q-210 0 -345.5 136.5t-146.5 358.5h-287v-483h-104v1038h104v-469h287q14 217 148.5 349.5t343.5 132.5zM1006 74q173 0 282 125t109 323t-108.5 320.5t-282.5 122.5q-172 0 -281 -123
t-109 -320q0 -198 109 -323t281 -125z" />
    <glyph glyph-name="uni044F" unicode="&#x44f;" horiz-adv-x="1011" 
d="M459 1038h430v-1038h-105v387h-325l-6 2l-283 -389h-123l297 401q-133 22 -204.5 102.5t-71.5 209.5q0 154 102 239.5t289 85.5zM461 477h323v471h-323q-137 0 -212 -60t-75 -173q0 -117 74.5 -177.5t212.5 -60.5z" />
    <glyph glyph-name="uni0450" unicode="&#x450;" horiz-adv-x="1126" 
d="M526 1169l-221 271h123l184 -271h-86zM582 -12q-222 0 -360 147.5t-138 390.5q0 231 133 378t346 147q212 0 342 -130.5t137 -359.5q0 -6 -1 -21t-1 -22h-847v-18q3 -185 106 -301.5t274 -116.5q128 0 223 70.5t126 191.5h106q-34 -159 -156 -257.5t-290 -98.5zM201 606
h729q-12 167 -111 259.5t-254 92.5q-145 0 -248.5 -98t-115.5 -254z" />
    <glyph glyph-name="uni0451" unicode="&#x451;" horiz-adv-x="1126" 
d="M328 1321q0 31 20 51.5t51 20.5q32 0 53 -20.5t21 -51.5t-21 -51.5t-53 -20.5q-31 0 -51 20.5t-20 51.5zM670 1321q0 31 21 51.5t52 20.5t51.5 -20.5t20.5 -51.5t-20.5 -51.5t-51.5 -20.5t-52 20.5t-21 51.5zM582 -12q-222 0 -360 147.5t-138 390.5q0 231 133 378
t346 147q212 0 342 -130.5t137 -359.5q0 -6 -1 -21t-1 -22h-847v-18q3 -185 106 -301.5t274 -116.5q128 0 223 70.5t126 191.5h106q-34 -159 -156 -257.5t-290 -98.5zM201 606h729q-12 167 -111 259.5t-254 92.5q-145 0 -248.5 -98t-115.5 -254z" />
    <glyph glyph-name="uni0452" unicode="&#x452;" horiz-adv-x="1146" 
d="M631 1051q183 0 294 -117t111 -352v-750q0 -126 -56.5 -184t-184.5 -58h-127v97h120q78 0 111 33t33 110v748q0 182 -85.5 279t-236.5 97q-165 0 -261.5 -119.5t-96.5 -322.5v-512h-105v1192h-178v90h178v152h105v-152h364v-90h-364v-399q47 119 141.5 188.5t237.5 69.5z
" />
    <glyph glyph-name="uni0453" unicode="&#x453;" horiz-adv-x="784" 
d="M475 1169h-84l187 271h122zM227 0h-104v1038h639v-96h-535v-942z" />
    <glyph glyph-name="uni0454" unicode="&#x454;" horiz-adv-x="1097" 
d="M573 80q129 0 218.5 68.5t115.5 185.5h111q-31 -160 -150 -253t-297 -93q-220 0 -353.5 144.5t-133.5 385.5q0 238 136.5 385.5t354.5 147.5q177 0 294 -92t149 -254h-109q-28 118 -116.5 185.5t-219.5 67.5q-158 0 -262 -108t-118 -283h505v-92h-505q11 -179 114.5 -287
t265.5 -108z" />
    <glyph glyph-name="uni0455" unicode="&#x455;" horiz-adv-x="997" 
d="M76 319h106q6 -112 96 -176.5t240 -64.5q130 0 214.5 55t84.5 146q0 28 -5.5 51.5t-19.5 41.5t-28 31.5t-40 24t-45 17.5t-55 14t-58 10.5t-64 9.5q-53 7 -90 13.5t-83 17.5t-77 24.5t-63 34t-50.5 46t-30.5 61.5t-12 80q0 133 112 215t286 80q174 0 285 -79t124 -227
h-106q-13 100 -95.5 158t-207.5 58q-132 0 -212.5 -54t-80.5 -143q0 -24 6 -44t13 -35t24.5 -28.5t29.5 -22t39 -17t41.5 -13t48.5 -10.5t49 -8t54 -8q65 -9 109.5 -17.5t97 -23.5t86.5 -35.5t64 -50t44.5 -71.5t14.5 -95q0 -135 -116 -216t-288 -81q-199 0 -317.5 86
t-124.5 245z" />
    <glyph glyph-name="uni0456" unicode="&#x456;" horiz-adv-x="350" 
d="M176 1257q-31 0 -52.5 21t-21.5 53t21.5 53t52.5 21t52.5 -21t21.5 -53t-21.5 -53t-52.5 -21zM123 0v1038h104v-1038h-104z" />
    <glyph glyph-name="uni0457" unicode="&#x457;" horiz-adv-x="350" 
d="M-68 1321q0 31 20.5 51.5t51.5 20.5q32 0 53 -20.5t21 -51.5t-21 -51.5t-53 -20.5q-31 0 -51.5 20.5t-20.5 51.5zM274 1321q0 31 21.5 51.5t52.5 20.5t51.5 -20.5t20.5 -51.5t-20.5 -51.5t-51.5 -20.5t-52.5 20.5t-21.5 51.5zM123 0v1038h104v-1038h-104z" />
    <glyph glyph-name="uni0458" unicode="&#x458;" horiz-adv-x="362" 
d="M186 1257q-31 0 -52 21t-21 53t21 53t52 21t52.5 -21t21.5 -53t-21.5 -53t-52.5 -21zM-131 -410v97h123q78 0 110.5 33t32.5 110v1208h105v-1206q0 -126 -57.5 -184t-186.5 -58h-127z" />
    <glyph glyph-name="uni0459" unicode="&#x459;" horiz-adv-x="1660" 
d="M59 0h-51v90h39q59 0 95.5 23t56.5 84.5t20 167.5v673h715v-413h289q176 0 270 -81t94 -231t-94 -231.5t-270 -81.5h-394v952h-512v-594q0 -199 -63.5 -278.5t-194.5 -79.5zM934 535v-445h272q135 0 206 57.5t71 165.5q0 109 -71 165.5t-206 56.5h-272z" />
    <glyph glyph-name="uni045A" unicode="&#x45a;" horiz-adv-x="1693" 
d="M967 612h288q175 0 270 -79t95 -226q0 -146 -95 -226.5t-270 -80.5h-393v514h-635v-514h-104v1038h104v-428h635v428h105v-426zM967 90h272q134 0 204 56t70 161q0 106 -69.5 160.5t-204.5 54.5h-272v-432z" />
    <glyph glyph-name="uni045B" unicode="&#x45b;" horiz-adv-x="1146" 
d="M627 1051q187 0 298 -116.5t111 -352.5v-582h-104v578q0 182 -85.5 279t-236.5 97q-165 0 -261.5 -119.5t-96.5 -322.5v-512h-105v1192h-178v90h178v152h105v-152h364v-90h-364v-399q47 119 141 188.5t234 69.5z" />
    <glyph glyph-name="uni045C" unicode="&#x45c;" horiz-adv-x="1015" 
d="M559 1169h-84l187 271h122zM227 0h-104v1038h104v-458h252l367 458h123l-404 -499l439 -539h-127l-398 483h-252v-483z" />
    <glyph glyph-name="uni045E" unicode="&#x45e;" horiz-adv-x="976" 
d="M483 1180q-134 0 -204 68t-72 192h88q0 -183 188 -183q193 0 193 183h88q-2 -123 -73.5 -191.5t-207.5 -68.5zM434 0l-416 1038h113l361 -903l354 903h112l-497 -1231q-28 -69 -46 -104.5t-45 -64.5t-61 -38.5t-86 -9.5h-160v97h132q76 0 105.5 27t66.5 118z" />
    <glyph glyph-name="uni045F" unicode="&#x45f;" horiz-adv-x="1079" 
d="M852 1038h106v-1038h-366v-276h-105v276h-364v1038h104v-942h625v942z" />
    <glyph glyph-name="uni0490" unicode="&#x490;" horiz-adv-x="1019" 
d="M868 1434v280h111v-383h-721v-1331h-111v1434h721z" />
    <glyph glyph-name="uni0491" unicode="&#x491;" horiz-adv-x="798" 
d="M676 1317h100v-373h-14v-2h-535v-942h-104v1038h553v279z" />
    <glyph glyph-name="uni0E3F" unicode="&#xe3f;" horiz-adv-x="1259" 
d="M823 737q164 -24 254 -110t90 -238q0 -182 -129.5 -285.5t-375.5 -103.5h-25v-205h-98v205h-392v1434h392v206h98v-206h16q215 0 333 -96.5t118 -268.5q0 -131 -72.5 -217.5t-208.5 -114.5zM539 1333h-281v-551h281v551zM659 1333h-22v-551h22q158 0 246 73.5t88 203.5
q0 129 -87 201.5t-247 72.5zM258 682v-582h281v582h-281zM637 100h25q192 0 292.5 77.5t100.5 215.5q0 140 -102 214.5t-291 74.5h-25v-582z" />
    <glyph glyph-name="Wgrave" unicode="&#x1e80;" horiz-adv-x="1968" 
d="M940 1565l-221 270h123l184 -270h-86zM481 0l-436 1434h117l383 -1289l387 1289h112l377 -1289l387 1289h115l-438 -1434h-131l-371 1251l-371 -1251h-131z" />
    <glyph glyph-name="wgrave" unicode="&#x1e81;" horiz-adv-x="1591" 
d="M754 1169l-222 271h123l185 -271h-86zM375 0l-352 1038h110l303 -913l314 913h96l297 -913l319 913h107l-369 -1038h-113l-292 872l-308 -872h-112z" />
    <glyph glyph-name="Wacute" unicode="&#x1e82;" horiz-adv-x="1968" 
d="M1030 1565h-84l187 270h122zM481 0l-436 1434h117l383 -1289l387 1289h112l377 -1289l387 1289h115l-438 -1434h-131l-371 1251l-371 -1251h-131z" />
    <glyph glyph-name="wacute" unicode="&#x1e83;" horiz-adv-x="1591" 
d="M844 1169h-84l186 271h123zM375 0l-352 1038h110l303 -913l314 913h96l297 -913l319 913h107l-369 -1038h-113l-292 872l-308 -872h-112z" />
    <glyph glyph-name="Wdieresis" unicode="&#x1e84;" horiz-adv-x="1968" 
d="M741 1716q0 31 20.5 51.5t51.5 20.5q32 0 53 -20.5t21 -51.5t-21 -51t-53 -20q-31 0 -51.5 20t-20.5 51zM1083 1716q0 31 21.5 51.5t52.5 20.5t51.5 -20.5t20.5 -51.5t-20.5 -51t-51.5 -20t-52.5 20.5t-21.5 50.5zM481 0l-436 1434h117l383 -1289l387 1289h112l377 -1289
l387 1289h115l-438 -1434h-131l-371 1251l-371 -1251h-131z" />
    <glyph glyph-name="wdieresis" unicode="&#x1e85;" horiz-adv-x="1591" 
d="M555 1321q0 31 20.5 51.5t51.5 20.5q32 0 52.5 -20.5t20.5 -51.5t-20.5 -51.5t-52.5 -20.5q-31 0 -51.5 20.5t-20.5 51.5zM897 1321q0 31 21.5 51.5t52.5 20.5t51 -20.5t20 -51.5t-20 -51.5t-51 -20.5t-52.5 20.5t-21.5 51.5zM375 0l-352 1038h110l303 -913l314 913h96
l297 -913l319 913h107l-369 -1038h-113l-292 872l-308 -872h-112z" />
    <glyph glyph-name="Ygrave" unicode="&#x1ef2;" horiz-adv-x="1265" 
d="M584 1565l-222 270h123l185 -270h-86zM578 528l-549 906h129l475 -785l479 785h125l-549 -906v-528h-110v528z" />
    <glyph glyph-name="ygrave" unicode="&#x1ef3;" horiz-adv-x="976" 
d="M440 1169l-221 271h123l184 -271h-86zM434 0l-416 1038h113l361 -903l354 903h112l-497 -1231q-28 -69 -46 -104.5t-45 -64.5t-61 -38.5t-86 -9.5h-160v97h132q76 0 105.5 27t66.5 118z" />
    <glyph glyph-name="uni2010" unicode="&#x2010;" horiz-adv-x="903" 
d="M782 539h-661v88h661v-88z" />
    <glyph glyph-name="endash" unicode="&#x2013;" horiz-adv-x="1224" 
d="M1090 539h-955v88h955v-88z" />
    <glyph glyph-name="emdash" unicode="&#x2014;" horiz-adv-x="1882" 
d="M121 539v88h1640v-88h-1640z" />
    <glyph glyph-name="uni2015" unicode="&#x2015;" horiz-adv-x="1882" 
d="M121 539v88h1640v-88h-1640z" />
    <glyph glyph-name="quoteleft" unicode="&#x2018;" horiz-adv-x="376" 
d="M211 1038q-54 0 -89.5 49.5t-35.5 120.5q0 104 61.5 169t167.5 69v-64q-75 -3 -115 -50t-40 -109q0 -39 18 -54q16 25 51 25q32 0 52 -20t20 -54q0 -36 -24 -59t-66 -23z" />
    <glyph glyph-name="quoteright" unicode="&#x2019;" horiz-adv-x="376" 
d="M166 1444q55 0 91 -49.5t36 -120.5q0 -102 -62.5 -167t-167.5 -69v62q73 3 113.5 50.5t40.5 111.5q0 35 -18 53q-16 -25 -52 -25q-31 0 -51 19.5t-20 54.5q0 36 24.5 58t65.5 22z" />
    <glyph glyph-name="quotesinglbase" unicode="&#x201a;" horiz-adv-x="376" 
d="M166 143q55 0 91 -49.5t36 -120.5q0 -102 -62.5 -166.5t-167.5 -68.5v61q73 3 113.5 50.5t40.5 111.5q0 35 -18 53q-15 -24 -52 -24q-31 0 -51 19t-20 54q0 34 25 57t65 23z" />
    <glyph glyph-name="quotedblleft" unicode="&#x201c;" horiz-adv-x="684" 
d="M211 1038q-54 0 -89.5 49.5t-35.5 120.5q0 104 61.5 169t167.5 69v-64q-75 -3 -115 -50t-40 -109q0 -39 18 -54q16 25 51 25q32 0 52 -20t20 -54q0 -36 -24 -59t-66 -23zM518 1038q-54 0 -89.5 49.5t-35.5 120.5q0 104 62 169t168 69v-64q-75 -3 -115.5 -50t-40.5 -109
q0 -39 18 -54q16 25 52 25q31 0 51 -20t20 -54q0 -36 -24 -59t-66 -23z" />
    <glyph glyph-name="quotedblright" unicode="&#x201d;" horiz-adv-x="684" 
d="M166 1444q55 0 91 -49.5t36 -120.5q0 -102 -62.5 -167t-167.5 -69v62q73 3 113.5 50.5t40.5 111.5q0 35 -18 53q-16 -25 -52 -25q-31 0 -51 19.5t-20 54.5q0 36 24.5 58t65.5 22zM473 1444q55 0 91 -49.5t36 -120.5q0 -102 -62 -167t-167 -69v62q73 3 113 50.5t40 111.5
q0 35 -18 53q-16 -25 -49 -25q-32 0 -53 19.5t-21 54.5q0 36 24.5 58t65.5 22z" />
    <glyph glyph-name="quotedblbase" unicode="&#x201e;" horiz-adv-x="684" 
d="M166 143q55 0 91 -49.5t36 -120.5q0 -102 -62.5 -166.5t-167.5 -68.5v61q73 3 113.5 50.5t40.5 111.5q0 35 -18 53q-15 -24 -52 -24q-31 0 -51 19t-20 54q0 34 25 57t65 23zM473 143q55 0 91 -49.5t36 -120.5q0 -102 -62 -166.5t-167 -68.5v61q73 3 113 50.5t40 111.5
q0 35 -18 53q-15 -24 -49 -24q-32 0 -53 19t-21 54q0 34 25 57t65 23z" />
    <glyph glyph-name="dagger" unicode="&#x2020;" horiz-adv-x="1056" 
d="M575 983h402v-90h-402v-893h-94v893h-401v90h401v451h94v-451z" />
    <glyph glyph-name="daggerdbl" unicode="&#x2021;" horiz-adv-x="1089" 
d="M999 1055v-92h-407v-492h407v-92h-407v-379h-94v379h-408v92h408v492h-408v92h408v379h94v-379h407z" />
    <glyph glyph-name="bullet" unicode="&#x2022;" horiz-adv-x="700" 
d="M152 700q0 85 55 138t141 53q88 0 144.5 -52.5t56.5 -138.5q0 -87 -56 -138.5t-145 -51.5q-86 0 -141 52t-55 138z" />
    <glyph glyph-name="ellipsis" unicode="&#x2026;" horiz-adv-x="1067" 
d="M111 68q0 35 21.5 55t55.5 20t56 -20t22 -55t-22 -56.5t-56 -21.5t-55.5 21.5t-21.5 56.5zM457 68q0 35 22 55t56 20t55.5 -20t21.5 -55t-21.5 -56.5t-55.5 -21.5t-56 21.5t-22 56.5zM801 68q0 35 22 55t56 20q35 0 57 -20t22 -55t-22.5 -56.5t-56.5 -21.5t-56 21.5
t-22 56.5z" />
    <glyph glyph-name="perthousand" unicode="&#x2030;" horiz-adv-x="2596" 
d="M127 1102q0 148 98 246t246 98q149 0 247.5 -98t98.5 -246t-98.5 -245t-247.5 -97q-148 0 -246 97t-98 245zM471 0h-102l964 1434h105zM723 1102q0 111 -71.5 184.5t-180.5 73.5q-107 0 -178.5 -74t-71.5 -184t71.5 -183t178.5 -73q109 0 180.5 73t71.5 183zM985 330
q0 148 98.5 246t247.5 98q148 0 246 -98t98 -246t-98 -245t-246 -97q-149 0 -247.5 97t-98.5 245zM1780 330q0 148 98.5 246t247.5 98q148 0 247 -98t99 -246q0 -147 -99 -244.5t-247 -97.5q-149 0 -247.5 97t-98.5 245zM1581 330q0 110 -71.5 184t-178.5 74
q-109 0 -180.5 -73.5t-71.5 -184.5q0 -110 71.5 -183t180.5 -73q107 0 178.5 73t71.5 183zM2376 330q0 110 -71.5 184t-178.5 74q-109 0 -180.5 -73.5t-71.5 -184.5q0 -110 71.5 -183t180.5 -73q107 0 178.5 73t71.5 183z" />
    <glyph glyph-name="second" unicode="&#x2033;" horiz-adv-x="733" 
d="M188 1044h-69l86 390h100zM518 1044h-72l89 390h100z" />
    <glyph glyph-name="guilsinglleft" unicode="&#x2039;" horiz-adv-x="602" 
d="M414 1038h106l-330 -518l330 -520h-106l-334 520z" />
    <glyph glyph-name="guilsinglright" unicode="&#x203a;" horiz-adv-x="602" 
d="M412 520l-330 518h106l334 -518l-334 -520h-106z" />
    <glyph glyph-name="uni2042" unicode="&#x2042;" horiz-adv-x="1953" 
d="M1255 1348l31 -74l-262 -100l178 -213l-57 -52l-180 224l-179 -224l-57 52l180 215l-262 100l31 72l254 -111l-2 281h74l-3 -281zM756 348l30 -74l-262 -100l178 -215l-57 -51l-180 223l-180 -223l-56 51l181 215l-263 100l31 74l254 -110l-2 280h74l-4 -282zM1776 348
l30 -74l-262 -100l180 -215l-57 -51l-182 223l-178 -223l-58 51l181 215l-261 100l29 74l254 -110l-2 280h74l-2 -282z" />
    <glyph glyph-name="fraction" unicode="&#x2044;" horiz-adv-x="370" 
d="M-225 0h-88l909 1434h88z" />
    <glyph glyph-name="uni2051" unicode="&#x2051;" horiz-adv-x="933" 
d="M756 1348l30 -74l-262 -100l178 -213l-57 -52l-180 224l-180 -224l-56 52l181 215l-263 100l31 72l254 -111l-2 281h74l-4 -281zM756 344l30 -74l-262 -102l178 -213l-57 -51l-180 223l-180 -223l-56 51l181 215l-263 100l31 74l254 -111l-2 279h74l-4 -281z" />
    <glyph glyph-name="uni2070" unicode="&#x2070;" horiz-adv-x="677" 
d="M51 1268q0 170 78.5 277.5t210.5 107.5q129 0 208 -108t79 -277t-79 -277t-208 -108q-132 0 -210.5 107.5t-78.5 277.5zM551 1268q0 136 -58 224.5t-153 88.5q-98 0 -155.5 -88t-57.5 -225t57.5 -225.5t155.5 -88.5q95 0 153 89t58 225z" />
    <glyph glyph-name="uni2074" unicode="&#x2074;" horiz-adv-x="679" 
d="M43 1159l377 479h90v-479h127v-69h-127v-197h-74v197h-393v69zM436 1159v397l-311 -397h311z" />
    <glyph glyph-name="uni2075" unicode="&#x2075;" horiz-adv-x="638" 
d="M92 1638h445v-69h-385l-17 -277q32 45 84.5 69.5t114.5 24.5q110 0 179 -69.5t69 -179.5q0 -114 -73.5 -185t-189.5 -71q-107 0 -178 59t-82 156h74q11 -65 62 -105.5t124 -40.5q80 0 132.5 53t52.5 134t-50 131.5t-130 50.5q-60 1 -108 -26.5t-75 -75.5h-69z" />
    <glyph glyph-name="uni2076" unicode="&#x2076;" horiz-adv-x="657" 
d="M59 1253q0 182 79 291t214 109q94 0 162.5 -56t83.5 -157h-72q-15 72 -61.5 110.5t-112.5 38.5q-101 0 -161 -86t-60 -229q0 -30 4 -92q3 77 61 133.5t156 56.5q113 0 181.5 -67.5t68.5 -176.5q0 -110 -70.5 -177.5t-187.5 -67.5q-145 0 -215 100t-70 270zM526 1128
q0 82 -50 132.5t-132 50.5q-83 0 -134.5 -49.5t-51.5 -131.5t51.5 -133t134.5 -51q82 0 132 50t50 132z" />
    <glyph glyph-name="uni2077" unicode="&#x2077;" horiz-adv-x="585" 
d="M23 1567v69h522v-63l-361 -682h-82l361 678z" />
    <glyph glyph-name="uni2078" unicode="&#x2078;" horiz-adv-x="657" 
d="M55 1090q0 74 48 126t124 66q-66 14 -107.5 60.5t-41.5 115.5q0 85 71 140t181 55q109 0 179.5 -55t70.5 -140q0 -68 -40.5 -114t-107.5 -62q76 -14 123 -66t47 -126q0 -90 -75 -148.5t-197 -58.5t-198.5 58.5t-76.5 148.5zM504 1450q0 61 -49.5 100t-124.5 39
q-77 0 -126.5 -39t-49.5 -100q0 -63 49.5 -102t126.5 -39t125.5 39t48.5 102zM524 1096q0 66 -54.5 109.5t-139.5 43.5t-141 -43.5t-56 -109.5q0 -65 56 -107.5t141 -42.5q84 0 139 42.5t55 107.5z" />
    <glyph glyph-name="uni2079" unicode="&#x2079;" horiz-adv-x="651" 
d="M598 1282q0 -182 -79.5 -290.5t-215.5 -108.5q-93 0 -161.5 56t-82.5 157h72q15 -72 61.5 -111t112.5 -39q101 0 161 86.5t60 229.5q0 30 -4 92q-3 -77 -61 -134t-156 -57q-113 0 -181.5 67.5t-68.5 176.5q0 111 70.5 178.5t187.5 67.5q144 0 214.5 -100.5t70.5 -270.5z
M131 1407q0 -82 50 -132t132 -50q84 0 135.5 49.5t51.5 130.5q0 82 -52 133t-135 51q-82 0 -132 -50t-50 -132z" />
    <glyph glyph-name="uni2080" unicode="&#x2080;" horiz-adv-x="677" 
d="M51 168q0 170 78.5 277.5t210.5 107.5q129 0 208 -108t79 -277t-79 -277t-208 -108q-132 0 -210.5 107.5t-78.5 277.5zM551 168q0 136 -58 224.5t-153 88.5q-98 0 -155.5 -88t-57.5 -225t57.5 -225t155.5 -88q95 0 153 88.5t58 224.5z" />
    <glyph glyph-name="uni2081" unicode="&#x2081;" horiz-adv-x="393" 
d="M201 422v119h71v-746h-73v527q-9 -19 -37 -19h-142v72h142q17 0 28 14t11 33z" />
    <glyph glyph-name="uni2082" unicode="&#x2082;" horiz-adv-x="634" 
d="M137 295h-74v16q0 110 71.5 176t180.5 66q115 0 184.5 -61t69.5 -160q0 -76 -38.5 -131.5t-112.5 -118.5l-252 -215h412v-72h-523v70l307 256q65 55 97.5 102t32.5 107q0 68 -49 109.5t-126 41.5q-82 0 -131 -45.5t-49 -128.5v-12z" />
    <glyph glyph-name="uni2083" unicode="&#x2083;" horiz-adv-x="653" 
d="M145 332h-75q1 103 70.5 162t183.5 59q113 0 183.5 -56.5t70.5 -146.5q0 -65 -41.5 -108t-106.5 -56q75 -12 120.5 -59.5t45.5 -120.5q0 -100 -74.5 -161.5t-197.5 -61.5q-128 0 -200.5 61.5t-72.5 173.5h74q1 -80 55.5 -122.5t145.5 -42.5q85 0 138.5 41.5t53.5 109.5
q0 69 -55 108.5t-144 39.5h-51v55h47q83 0 134 37.5t51 99.5q0 61 -48.5 100t-123.5 39q-84 0 -133.5 -40.5t-49.5 -110.5z" />
    <glyph glyph-name="uni2084" unicode="&#x2084;" horiz-adv-x="679" 
d="M43 61l377 480h90v-480h127v-69h-127v-197h-74v197h-393v69zM436 61v398l-311 -398h311z" />
    <glyph glyph-name="uni2085" unicode="&#x2085;" horiz-adv-x="638" 
d="M92 541h445v-70h-385l-17 -276q32 45 84.5 69.5t114.5 24.5q110 0 179 -70t69 -180q0 -114 -73.5 -185t-189.5 -71q-107 0 -178 59t-82 156h74q11 -65 62 -105t124 -40q80 0 132.5 52.5t52.5 133.5t-50 131.5t-130 50.5q-60 1 -108 -26.5t-75 -75.5h-69z" />
    <glyph glyph-name="uni2086" unicode="&#x2086;" horiz-adv-x="657" 
d="M59 154q0 182 79 290.5t214 108.5q94 0 162.5 -56t83.5 -157h-72q-15 72 -61.5 110.5t-112.5 38.5q-101 0 -161 -86t-60 -229q0 -30 4 -92q3 77 61 133.5t156 56.5q113 0 181.5 -67t68.5 -176q0 -111 -70.5 -178.5t-187.5 -67.5q-144 0 -214.5 100.5t-70.5 270.5zM526 29
q0 82 -50 132t-132 50q-84 0 -135 -49.5t-51 -130.5q0 -82 51.5 -133.5t134.5 -51.5q82 0 132 50.5t50 132.5z" />
    <glyph glyph-name="uni2087" unicode="&#x2087;" horiz-adv-x="585" 
d="M23 471v70h522v-64l-361 -682h-82l361 678z" />
    <glyph glyph-name="uni2088" unicode="&#x2088;" horiz-adv-x="657" 
d="M55 -10q0 74 48 126t124 66q-66 14 -107.5 60.5t-41.5 115.5q0 85 71 140t181 55q109 0 179.5 -55t70.5 -140q0 -68 -40.5 -114t-107.5 -62q76 -14 123 -66t47 -126q0 -90 -75 -148.5t-197 -58.5t-198.5 58.5t-76.5 148.5zM504 350q0 61 -49.5 100t-124.5 39
q-77 0 -126.5 -39t-49.5 -100q0 -63 49.5 -102t126.5 -39t125.5 39t48.5 102zM524 -4q0 66 -55 110t-139 44q-85 0 -141 -44t-56 -110q0 -65 56 -107.5t141 -42.5q84 0 139 42.5t55 107.5z" />
    <glyph glyph-name="uni2089" unicode="&#x2089;" horiz-adv-x="651" 
d="M598 182q0 -182 -79.5 -290.5t-215.5 -108.5q-93 0 -161.5 56t-82.5 157h72q15 -72 61.5 -111t112.5 -39q101 0 161 86.5t60 229.5q0 30 -4 92q-3 -77 -61 -134t-156 -57q-113 0 -181.5 67.5t-68.5 176.5q0 111 70.5 178.5t187.5 67.5q144 0 214.5 -100.5t70.5 -270.5z
M131 307q0 -82 50 -132t132 -50q84 0 135.5 49.5t51.5 130.5q0 82 -52 133t-135 51q-82 0 -132 -50t-50 -132z" />
    <glyph glyph-name="franc" unicode="&#x20a3;" horiz-adv-x="1077" 
d="M1030 1434v-103h-741v-567h616v-102h-616v-285h342v-98h-342v-279h-111v279h-184v98h184v1057h852z" />
    <glyph glyph-name="uni20A8" unicode="&#x20a8;" horiz-adv-x="1310" 
d="M147 1331v103h1084l-14 -88h-359q81 -42 128.5 -115.5t53.5 -171.5h160l-12 -88h-148q-12 -140 -101 -234t-232 -119l340 -618h-125l-328 598h-447v102h437q144 0 236 73.5t106 197.5h-779v88h779q-12 125 -104 198.5t-236 73.5h-439z" />
    <glyph glyph-name="Euro" unicode="&#x20ac;" horiz-adv-x="1320" 
d="M193 514h-144v88h137q-4 66 -4 115t4 86h-137v88h141q26 260 170.5 407.5t368.5 147.5q210 0 345.5 -119.5t160.5 -316.5h-115q-24 152 -126.5 244t-260.5 92q-178 0 -293 -120.5t-137 -334.5h436l-12 -88h-430q-4 -33 -4 -86q0 -63 6 -115h385l-14 -88h-365
q31 -201 146 -313.5t286 -112.5q156 0 254 90t127 244h115q-30 -198 -161 -316t-339 -118q-218 0 -362 139t-178 387z" />
    <glyph glyph-name="uni20BD" unicode="&#x20bd;" horiz-adv-x="1298" 
d="M776 598h-403v-227h592v-101h-592v-270h-111v270h-211v101h211v227h-211v102h211v734h514q204 0 327.5 -115t123.5 -303t-123.5 -303t-327.5 -115zM768 1331h-395v-631h393q157 0 252.5 87.5t95.5 228.5q0 142 -94.5 228.5t-251.5 86.5z" />
    <glyph glyph-name="uni20BF" unicode="&#x20bf;" horiz-adv-x="1249" 
d="M147 0v1434h205v215h92v-215h183v215h92v-222q179 -14 277 -107t98 -251q0 -131 -70.5 -217t-202.5 -115q161 -26 249.5 -111.5t88.5 -236.5q0 -171 -113.5 -272t-326.5 -113v-201h-92v197h-185v-197h-92v197h-203zM649 1333h-391v-551h391q159 0 246.5 73.5t87.5 203.5
q0 129 -87 201.5t-247 72.5zM653 682h-395v-582h395q192 0 293 78t101 215q0 140 -103 214.5t-291 74.5z" />
    <glyph glyph-name="uni2116" unicode="&#x2116;" horiz-adv-x="2260" 
d="M1690 496q-196 0 -318.5 132.5t-122.5 344.5q0 211 122.5 342t318.5 131q195 0 317.5 -131.5t122.5 -341.5q0 -212 -122.5 -344.5t-317.5 -132.5zM256 0h-109v1434h101l751 -1217v1217h109v-1434h-98l-754 1217v-1217zM1690 590q148 0 239.5 105.5t91.5 277.5
q0 169 -91.5 274t-239.5 105q-149 0 -241.5 -105t-92.5 -274q0 -172 92.5 -277.5t241.5 -105.5z" />
    <glyph glyph-name="trademark" unicode="&#x2122;" horiz-adv-x="1398" 
d="M53 1362v72h486v-72h-203v-479h-80v479h-203zM618 883v551h107l221 -455l221 455h107v-551h-74v463l-223 -463h-66l-219 463v-463h-74z" />
    <glyph glyph-name="uni2126" unicode="&#x2126;" horiz-adv-x="1527" 
d="M1407 0h-489v231q199 108 292 245t93 325q0 238 -153 392.5t-386 154.5q-232 0 -384.5 -154t-152.5 -393q0 -189 92.5 -326t290.5 -244v-231h-487v102h391v93q-205 99 -302 250t-97 360q0 284 182.5 462.5t466.5 178.5q187 0 335 -80t232 -226t84 -333q0 -212 -98.5 -363
t-302.5 -249v-93h393v-102z" />
    <glyph glyph-name="uni2153" unicode="&#x2153;" horiz-adv-x="1417" 
d="M201 1317v119h71v-746h-73v527q-9 -19 -37 -19h-142v72h142q17 0 28 14t11 33zM168 0h-88l909 1434h88zM909 537h-75q1 103 70 162t183 59q113 0 183.5 -56.5t70.5 -146.5q0 -65 -41.5 -108t-105.5 -56q75 -12 120.5 -59.5t45.5 -120.5q0 -100 -75 -161.5t-198 -61.5
q-128 0 -200 61.5t-72 173.5h74q1 -80 55.5 -123t145.5 -43q85 0 138.5 41.5t53.5 110.5t-54.5 108t-144.5 39h-51v56h47q83 0 134 37.5t51 99.5q0 61 -48.5 100t-123.5 39q-84 0 -133.5 -40.5t-49.5 -110.5z" />
    <glyph glyph-name="uni2155" unicode="&#x2155;" horiz-adv-x="1402" 
d="M201 1317v119h71v-746h-73v527q-9 -19 -37 -19h-142v72h142q17 0 28 14t11 33zM168 0h-88l909 1434h88zM856 745h444v-69h-385l-16 -277q32 45 84.5 70t114.5 25q110 0 179 -70t69 -180q0 -114 -73.5 -185t-189.5 -71q-107 0 -178 59t-82 156h74q11 -65 62 -105.5
t124 -40.5q80 0 132.5 53t52.5 134t-50.5 131.5t-130.5 50.5q-60 1 -107.5 -26.5t-74.5 -75.5h-69z" />
    <glyph glyph-name="uni2156" unicode="&#x2156;" horiz-adv-x="1644" 
d="M137 1188h-74v16q0 110 71.5 176t180.5 66q115 0 184.5 -61t69.5 -160q0 -76 -38.5 -131.5t-112.5 -118.5l-252 -215h412v-72h-523v70l307 256q65 55 97.5 102t32.5 107q0 68 -49 109.5t-126 41.5q-82 0 -131 -45.5t-49 -128.5v-12zM410 0h-88l909 1434h88zM1098 745h444
v-69h-385l-16 -277q32 45 84 70t114 25q110 0 179 -70t69 -180q0 -114 -73 -185t-189 -71q-107 0 -178 59t-82 156h74q11 -65 62 -105.5t124 -40.5q80 0 132 52.5t52 134.5q0 81 -50 131.5t-130 50.5q-60 1 -107.5 -26.5t-74.5 -75.5h-70z" />
    <glyph glyph-name="uni2157" unicode="&#x2157;" horiz-adv-x="1662" 
d="M145 1229h-75q1 103 70.5 162t183.5 59q113 0 183.5 -56.5t70.5 -146.5q0 -65 -41.5 -108t-106.5 -56q75 -12 120.5 -59.5t45.5 -120.5q0 -100 -74.5 -161.5t-197.5 -61.5q-128 0 -200.5 61.5t-72.5 173.5h74q1 -80 55.5 -122.5t145.5 -42.5q85 0 138.5 41.5t53.5 109.5
q0 69 -55 108.5t-144 39.5h-51v55h47q83 0 134 37.5t51 99.5q0 61 -48.5 100t-123.5 39q-84 0 -133.5 -40.5t-49.5 -110.5zM428 0h-88l909 1434h88zM1116 745h445v-69h-385l-17 -277q32 45 84.5 70t114.5 25q110 0 179 -70t69 -180q0 -114 -73.5 -185t-189.5 -71
q-107 0 -178 59t-82 156h74q11 -65 62 -105.5t124 -40.5q80 0 132.5 53t52.5 134t-50 131.5t-130 50.5q-60 1 -108 -26.5t-75 -75.5h-69z" />
    <glyph glyph-name="uni2158" unicode="&#x2158;" horiz-adv-x="1689" 
d="M43 954l377 480h90v-480h127v-69h-127v-197h-74v197h-393v69zM455 0h-88l909 1434h88zM436 954v398l-311 -398h311zM1143 745h444v-69h-385l-16 -277q32 45 84 70t114 25q110 0 179 -70t69 -180q0 -114 -73 -185t-189 -71q-107 0 -178 59t-82 156h74q11 -65 62 -105.5
t124 -40.5q80 0 132 52.5t52 134.5q0 81 -50 131.5t-130 50.5q-60 1 -107.5 -26.5t-74.5 -75.5h-70z" />
    <glyph glyph-name="uni2159" unicode="&#x2159;" horiz-adv-x="1421" 
d="M201 1317v119h71v-746h-73v527q-9 -19 -37 -19h-142v72h142q17 0 28 14t11 33zM168 0h-88l909 1434h88zM823 358q0 182 79 291t214 109q94 0 162.5 -56t83.5 -157h-72q-15 72 -61.5 110.5t-112.5 38.5q-101 0 -161 -86t-60 -229q0 -30 4 -92q3 77 61 133.5t156 56.5
q113 0 181.5 -67.5t68.5 -176.5q0 -110 -70.5 -177.5t-187.5 -67.5q-145 0 -215 100t-70 270zM1290 233q0 82 -50 132.5t-132 50.5q-84 0 -135 -49.5t-51 -130.5q0 -82 51.5 -133.5t134.5 -51.5q82 0 132 50t50 132z" />
    <glyph glyph-name="oneeighth" unicode="&#x215b;" horiz-adv-x="1421" 
d="M201 1317v119h71v-746h-73v527q-9 -19 -37 -19h-142v72h142q17 0 28 14t11 33zM168 0h-88l909 1434h88zM819 195q0 74 48 126t124 66q-66 14 -107.5 60.5t-41.5 115.5q0 85 71 140t181 55q109 0 179 -55t70 -140q0 -69 -40 -115t-107 -61q76 -14 123 -66t47 -126
q0 -90 -75 -148.5t-197 -58.5t-198.5 58.5t-76.5 148.5zM1268 555q0 61 -49.5 100t-124.5 39q-77 0 -126.5 -39t-49.5 -100q0 -63 49.5 -102t126.5 -39t125.5 39t48.5 102zM1288 201q0 66 -54.5 109.5t-139.5 43.5t-141 -43.5t-56 -109.5q0 -65 56 -107.5t141 -42.5
q84 0 139 42.5t55 107.5z" />
    <glyph glyph-name="threeeighths" unicode="&#x215c;" horiz-adv-x="1681" 
d="M145 1229h-75q1 103 70.5 162t183.5 59q113 0 183.5 -56.5t70.5 -146.5q0 -65 -41.5 -108t-106.5 -56q75 -12 120.5 -59.5t45.5 -120.5q0 -100 -74.5 -161.5t-197.5 -61.5q-128 0 -200.5 61.5t-72.5 173.5h74q1 -80 55.5 -122.5t145.5 -42.5q85 0 138.5 41.5t53.5 109.5
q0 69 -55 108.5t-144 39.5h-51v55h47q83 0 134 37.5t51 99.5q0 61 -48.5 100t-123.5 39q-84 0 -133.5 -40.5t-49.5 -110.5zM428 0h-88l909 1434h88zM1079 195q0 74 48 126t124 66q-66 14 -107.5 60.5t-41.5 115.5q0 85 71 140t181 55q109 0 179.5 -55t70.5 -140
q0 -68 -40.5 -114t-107.5 -62q76 -14 123 -66t47 -126q0 -90 -75 -148.5t-197 -58.5t-198.5 58.5t-76.5 148.5zM1528 555q0 61 -49.5 100t-124.5 39q-77 0 -126.5 -39t-49.5 -100q0 -63 49.5 -102t126.5 -39t125.5 39t48.5 102zM1548 201q0 66 -54.5 109.5t-139.5 43.5
t-141 -43.5t-56 -109.5q0 -65 56 -107.5t141 -42.5q84 0 139 42.5t55 107.5z" />
    <glyph glyph-name="fiveeighths" unicode="&#x215d;" horiz-adv-x="1667" 
d="M92 1434h445v-70h-385l-17 -277q32 45 84.5 70t114.5 25q110 0 179 -70t69 -180q0 -114 -73.5 -185t-189.5 -71q-107 0 -178 59t-82 156h74q11 -65 62 -105.5t124 -40.5q80 0 132.5 53t52.5 134t-50 131.5t-130 50.5q-60 1 -108 -26.5t-75 -75.5h-69zM414 0h-88l909 1434
h88zM1065 195q0 74 48 126t124 66q-67 14 -108.5 60.5t-41.5 115.5q0 85 71 140t181 55q109 0 179.5 -55t70.5 -140q0 -69 -40 -115t-107 -61q76 -14 123 -66t47 -126q0 -90 -75.5 -148.5t-197.5 -58.5t-198 58.5t-76 148.5zM1513 555q0 61 -49.5 100t-124.5 39
q-77 0 -126.5 -39t-49.5 -100q0 -63 49.5 -102t126.5 -39t125.5 39t48.5 102zM1534 201q0 66 -55 109.5t-140 43.5t-140.5 -43.5t-55.5 -109.5q0 -65 55.5 -107.5t140.5 -42.5t140 42.5t55 107.5z" />
    <glyph glyph-name="seveneighths" unicode="&#x215e;" horiz-adv-x="1556" 
d="M303 0h-88l909 1434h88zM23 1362v70h522v-64l-361 -682h-82l361 678zM954 195q0 74 48 126t124 66q-66 14 -107.5 60.5t-41.5 115.5q0 85 71 140t181 55q109 0 179.5 -55t70.5 -140q0 -68 -40.5 -114t-107.5 -62q76 -14 123 -66t47 -126q0 -90 -75 -148.5t-197 -58.5
t-198.5 58.5t-76.5 148.5zM1403 555q0 61 -49.5 100t-124.5 39q-77 0 -126.5 -39t-49.5 -100q0 -63 49.5 -102t126.5 -39t125.5 39t48.5 102zM1423 201q0 66 -54.5 109.5t-139.5 43.5t-141 -43.5t-56 -109.5q0 -65 56 -107.5t141 -42.5q84 0 139 42.5t55 107.5z" />
    <glyph glyph-name="arrowleft" unicode="&#x2190;" horiz-adv-x="1359" 
d="M102 584l539 536l68 -65l-424 -424h944v-96h-944l424 -424l-68 -66z" />
    <glyph glyph-name="arrowup" unicode="&#x2191;" horiz-adv-x="1282" 
d="M688 63h-94v910l-424 -426l-68 67l539 539l539 -539l-68 -67l-424 426v-910z" />
    <glyph glyph-name="arrowright" unicode="&#x2192;" horiz-adv-x="1359" 
d="M1260 584l-541 -539l-66 66l424 424h-944v96h944l-424 424l66 65z" />
    <glyph glyph-name="arrowdown" unicode="&#x2193;" horiz-adv-x="1282" 
d="M594 246v907h94v-907l424 424l68 -68l-539 -539l-539 539l68 68z" />
    <glyph glyph-name="arrowboth" unicode="&#x2194;" horiz-adv-x="1755" 
d="M684 135l-68 -65l-514 514l514 514l68 -68l-399 -399h1185l-399 399l68 68l514 -514l-514 -514l-68 65l399 400h-1185z" />
    <glyph glyph-name="arrowupdn" unicode="&#x2195;" horiz-adv-x="1232" 
d="M1133 471l-517 -516l-514 516l68 66l399 -400l-2 1137l-399 -402l-66 68l514 516l517 -516l-68 -68l-401 402v-1137l401 400z" />
    <glyph glyph-name="uni2196" unicode="&#x2196;" horiz-adv-x="1077" 
d="M293 926l682 -680l-68 -66l-680 680v-600h-94v762h762v-96h-602z" />
    <glyph glyph-name="uni2197" unicode="&#x2197;" horiz-adv-x="1077" 
d="M848 870l-678 -682l-68 68l680 680h-600v94h762v-762h-96v602z" />
    <glyph glyph-name="uni2198" unicode="&#x2198;" horiz-adv-x="1077" 
d="M782 293l-680 680l68 65l678 -678v601h96v-764h-762v96h600z" />
    <glyph glyph-name="uni2199" unicode="&#x2199;" horiz-adv-x="1077" 
d="M227 350l680 680l68 -65l-680 -680h600v-97h-762v762h94v-600z" />
    <glyph glyph-name="partialdiff" unicode="&#x2202;" horiz-adv-x="1193" 
d="M92 475q0 141 64 251t172 168.5t241 59.5q127 0 231 -51t156 -143q-19 85 -52 160.5t-91.5 151.5t-135 132.5t-188.5 97t-247 52.5v92q178 -12 323.5 -73t240.5 -151.5t160 -208.5t93 -239.5t28 -247.5q0 -242 -134 -390t-367 -148q-219 0 -356.5 137t-137.5 350zM586 80
q179 0 286 115t107 305q0 114 -55.5 198.5t-143.5 126t-194 41.5q-170 0 -278.5 -109.5t-108.5 -281.5t108.5 -283.5t278.5 -111.5z" />
    <glyph glyph-name="emptyset" unicode="&#x2205;" horiz-adv-x="1255" 
d="M1124 1214l-112 -118q69 -71 107 -167t38 -204q0 -227 -152 -379.5t-378 -152.5q-199 0 -344 120l-103 -108l-61 59l102 111q-125 147 -125 350q0 148 69.5 270t191.5 191t270 69q184 0 323 -104l113 121zM203 725q0 -157 90 -274l590 628q-114 84 -256 84
q-180 0 -302 -126.5t-122 -311.5zM627 287q180 0 303 126.5t123 311.5q0 172 -109 297l-592 -633q114 -102 275 -102z" />
    <glyph glyph-name="uni2206" unicode="&#x2206;" horiz-adv-x="1361" 
d="M1311 0h-1260v82l563 1352h131l566 -1352v-82zM676 1321l-500 -1219h1006z" />
    <glyph glyph-name="product" unicode="&#x220f;" horiz-adv-x="1466" 
d="M63 1434h1340v-103h-191v-1548h-110v1548h-737v-1548h-111v1548h-191v103z" />
    <glyph glyph-name="summation" unicode="&#x2211;" horiz-adv-x="1251" 
d="M86 -217v92l604 752l-561 714v93h1024v-99h-879l525 -671v-72l-574 -711h944v-98h-1083z" />
    <glyph glyph-name="minus" unicode="&#x2212;" 
d="M946 545h-811v88h811v-88z" />
    <glyph glyph-name="radical" unicode="&#x221a;" horiz-adv-x="1142" 
d="M528 0l-325 795l-140 -66l-34 84l231 107l318 -791l393 1305h104l-434 -1434h-113z" />
    <glyph glyph-name="infinity" unicode="&#x221e;" horiz-adv-x="1593" 
d="M1171 213q-108 0 -191 61.5t-185 221.5q-102 -160 -184.5 -221.5t-190.5 -61.5q-152 0 -243 102t-91 260q0 159 91 261t243 102q109 0 192 -61.5t183 -219.5q102 158 185 219.5t191 61.5q152 0 243 -102t91 -261q0 -158 -91 -260t-243 -102zM424 307q88 0 156 56.5
t161 209.5q-94 155 -161.5 213t-155.5 58q-109 0 -175.5 -73.5t-66.5 -195.5q0 -124 66 -196t176 -72zM848 578q91 -154 160.5 -212.5t156.5 -58.5q110 0 176 72t66 196q0 122 -66.5 195.5t-175.5 73.5q-88 0 -157 -57t-160 -209z" />
    <glyph glyph-name="integral" unicode="&#x222b;" horiz-adv-x="778" 
d="M66 -217v96h127q78 0 111.5 33.5t33.5 110.5v1169q0 126 57 184t185 58h133v-97h-127q-78 0 -111 -33t-33 -110v-1169q0 -126 -57.5 -184t-185.5 -58h-133z" />
    <glyph glyph-name="approxequal" unicode="&#x2248;" 
d="M238 651h-91q0 119 60.5 187.5t159.5 68.5q49 0 90.5 -16t71 -39.5t56 -46.5t58.5 -39t66 -16q69 0 104 44t35 117h88q0 -117 -59.5 -185.5t-159.5 -68.5q-49 0 -91 16t-71 39t-56 46t-58.5 39t-65.5 16q-68 0 -102.5 -44t-34.5 -118zM238 221h-91q0 117 60.5 185.5
t159.5 68.5q49 0 90.5 -16t71 -39t56 -46t58.5 -39t66 -16q69 0 104 44.5t35 117.5h88q0 -118 -59.5 -186t-159.5 -68q-49 0 -91 16t-71 38.5t-56 45t-58.5 38.5t-65.5 16q-68 1 -102.5 -42.5t-34.5 -117.5z" />
    <glyph glyph-name="notequal" unicode="&#x2260;" 
d="M926 817v-90h-285l-113 -332h398v-88h-426l-74 -213h-92l72 213h-250v88h280l113 332h-393v90h424l69 207h94l-69 -207h252z" />
    <glyph glyph-name="lessequal" unicode="&#x2264;" 
d="M922 260l-760 354v101l760 356v-104l-643 -303l643 -302v-102zM922 0h-760v90h760v-90z" />
    <glyph glyph-name="greaterequal" unicode="&#x2265;" 
d="M162 1071l760 -356v-101l-760 -354v102l643 302l-643 303v104zM922 0h-760v90h760v-90z" />
    <glyph glyph-name="dotmath" unicode="&#x22c5;" horiz-adv-x="376" 
d="M111 588q0 34 21.5 55t55.5 21t56 -21t22 -55q0 -35 -22 -56.5t-56 -21.5t-55.5 21.5t-21.5 56.5z" />
    <glyph glyph-name="filledbox" unicode="&#x25a0;" horiz-adv-x="1736" 
d="M147 0v1434h1442v-1434h-1442z" />
    <glyph glyph-name="uni25A1" unicode="&#x25a1;" horiz-adv-x="1730" 
d="M147 0v1434h1436v-1434h-1436zM1477 1335h-1223v-1237h1223v1237z" />
    <glyph glyph-name="uni25AF" unicode="&#x25af;" horiz-adv-x="1220" 
d="M147 0v1434h926v-1434h-926zM965 1335h-711v-1237h711v1237z" />
    <glyph glyph-name="triagup" unicode="&#x25b2;" horiz-adv-x="1757" 
d="M39 0l842 1458l837 -1458h-1679z" />
    <glyph glyph-name="uni25B3" unicode="&#x25b3;" horiz-adv-x="1757" 
d="M39 0l842 1458l837 -1458h-1679zM1550 96l-669 1164l-674 -1164h1343z" />
    <glyph glyph-name="uni25B6" unicode="&#x25b6;" horiz-adv-x="1071" 
d="M123 -12v1048l913 -524z" />
    <glyph glyph-name="uni25B7" unicode="&#x25b7;" horiz-adv-x="1079" 
d="M123 -10v1059l921 -529zM203 913v-786l686 393z" />
    <glyph glyph-name="uni25C0" unicode="&#x25c0;" horiz-adv-x="1071" 
d="M35 512l913 524v-1048z" />
    <glyph glyph-name="uni25C1" unicode="&#x25c1;" horiz-adv-x="1079" 
d="M35 520l921 529v-1059zM190 520l684 -393v786z" />
    <glyph glyph-name="lozenge" unicode="&#x25ca;" horiz-adv-x="1185" 
d="M528 1434h129l418 -717l-418 -717h-129l-417 717zM231 717l363 -629l360 629l-360 631z" />
    <glyph glyph-name="circle" unicode="&#x25cb;" horiz-adv-x="1662" 
d="M831 1446q153 0 289 -56.5t233.5 -153t154.5 -232t57 -287.5t-57 -287.5t-154.5 -232t-233.5 -153t-289 -56.5t-289.5 56.5t-234 153t-154.5 232t-57 287.5t57 287.5t154.5 232t234 153t289.5 56.5zM831 1376q-184 0 -334 -86t-235.5 -237t-85.5 -336q0 -138 50.5 -260.5
t137 -210.5t208 -138.5t259.5 -50.5q137 0 258.5 51t209 138t138 210t50.5 261q0 185 -86 336t-236.5 237t-333.5 86z" />
    <glyph glyph-name="uni25CF" unicode="&#x25cf;" horiz-adv-x="1652" 
d="M825 1446q-205 0 -372 -95t-262 -262t-95 -372t95 -372t262 -262t372 -95t372 95t262 262t95 372t-95 372t-262 262t-372 95z" />
    <glyph glyph-name="uni25FD" unicode="&#x25fd;" horiz-adv-x="1284" 
d="M123 0v1038h1038v-1038h-1038zM1075 958h-868v-876h868v876z" />
    <glyph glyph-name="uni25FE" unicode="&#x25fe;" horiz-adv-x="1284" 
d="M123 0v1038h1038v-1038h-1038z" />
    <glyph glyph-name="uni262E" unicode="&#x262e;" horiz-adv-x="1656" 
d="M96 717q0 155 55.5 290.5t152 232t232.5 151.5t291 55q207 0 374.5 -94t262.5 -261t95 -374t-95 -374t-262.5 -261t-374.5 -94q-155 0 -291 55t-232.5 151.5t-152 232t-55.5 290.5zM340 317l446 459v576q-170 -8 -306.5 -92t-214 -226.5t-77.5 -316.5q0 -235 152 -400z
M868 1352v-576l447 -459q151 161 151 400q0 174 -77 316.5t-213.5 226.5t-307.5 92zM1276 250l-408 420v-588q246 12 408 168zM786 82v586l-405 -418q162 -156 405 -168z" />
    <glyph glyph-name="uni26AA" unicode="&#x26aa;" horiz-adv-x="1222" 
d="M610 1040q145 0 266.5 -69.5t192 -190.5t70.5 -266q0 -144 -70 -264.5t-192 -190t-267 -69.5q-144 0 -265 69.5t-191 190t-70 264.5q0 145 70 266t191 190.5t265 69.5zM610 963q-186 0 -317 -131t-131 -318q0 -186 131 -316t317 -130q187 0 318 130t131 316
q0 92 -35.5 175.5t-95 143t-143 95t-175.5 35.5z" />
    <glyph glyph-name="uni26AB" unicode="&#x26ab;" horiz-adv-x="1222" 
d="M610 1040q145 0 266.5 -69.5t192 -190.5t70.5 -266q0 -144 -70 -264.5t-192 -190t-267 -69.5q-144 0 -265 69.5t-191 190t-70 264.5q0 145 70 266t191 190.5t265 69.5z" />
    <glyph glyph-name="uni2713" unicode="&#x2713;" horiz-adv-x="2148" 
d="M754 0l-715 715l76 78l639 -639l1276 1280l79 -78z" />
    <glyph glyph-name="uni2715" unicode="&#x2715;" horiz-adv-x="1613" 
d="M92 1356l76 78l639 -637l639 637l76 -78l-639 -637l639 -643l-76 -76l-639 639l-639 -639l-76 76l639 643z" />
    <glyph glyph-name="uni2780" unicode="&#x2780;" horiz-adv-x="1662" 
d="M831 1446q153 0 289 -56.5t233.5 -153t154.5 -232t57 -287.5t-57 -287.5t-154.5 -232t-233.5 -153t-289 -56.5t-289.5 56.5t-234 153t-154.5 232t-57 287.5t57 287.5t154.5 232t234 153t289.5 56.5zM831 1376q-184 0 -334 -86t-235.5 -237t-85.5 -336q0 -138 50.5 -260.5
t137 -210.5t208 -138.5t259.5 -50.5q137 0 258.5 51t209 138t138 210t50.5 261q0 185 -86 336t-236.5 237t-333.5 86zM803 971v119h71v-746h-73v526q-9 -18 -37 -18h-141v72h141q17 0 28 14t11 33z" />
    <glyph glyph-name="uni2781" unicode="&#x2781;" horiz-adv-x="1662" 
d="M831 1446q153 0 289 -56.5t233.5 -153t154.5 -232t57 -287.5t-57 -287.5t-154.5 -232t-233.5 -153t-289 -56.5t-289.5 56.5t-234 153t-154.5 232t-57 287.5t57 287.5t154.5 232t234 153t289.5 56.5zM831 1376q-184 0 -334 -86t-235.5 -237t-85.5 -336q0 -138 50.5 -260.5
t137 -210.5t208 -138.5t259.5 -50.5q137 0 258.5 51t209 138t138 210t50.5 261q0 185 -86 336t-236.5 237t-333.5 86zM643 844h-74v16q0 110 71.5 176t180.5 66q115 0 184.5 -61t69.5 -160q0 -76 -38.5 -131.5t-112.5 -118.5l-252 -215h411v-72h-522v70l307 256
q65 55 97 101.5t32 107.5q0 68 -48.5 109.5t-125.5 41.5q-82 0 -131 -45.5t-49 -128.5v-12z" />
    <glyph glyph-name="uni2782" unicode="&#x2782;" horiz-adv-x="1662" 
d="M831 1446q153 0 289 -56.5t233.5 -153t154.5 -232t57 -287.5t-57 -287.5t-154.5 -232t-233.5 -153t-289 -56.5t-289.5 56.5t-234 153t-154.5 232t-57 287.5t57 287.5t154.5 232t234 153t289.5 56.5zM831 1376q-184 0 -334 -86t-235.5 -237t-85.5 -336q0 -138 50.5 -260.5
t137 -210.5t208 -138.5t259.5 -50.5q137 0 258.5 51t209 138t138 210t50.5 261q0 185 -86 336t-236.5 237t-333.5 86zM649 881h-76q1 103 70.5 162t183.5 59q113 0 183.5 -56.5t70.5 -146.5q0 -65 -41.5 -108t-105.5 -56q75 -12 120.5 -59.5t45.5 -120.5q0 -100 -75 -161.5
t-198 -61.5q-128 0 -200 61.5t-72 173.5h74q1 -80 55 -123t145 -43q85 0 139 42t54 110q0 69 -54.5 108t-144.5 39h-51v56h47q83 0 134 37.5t51 99.5q0 61 -49 100t-124 39q-84 0 -133 -40.5t-49 -110.5z" />
    <glyph glyph-name="uni2783" unicode="&#x2783;" horiz-adv-x="1662" 
d="M831 1446q153 0 289 -56.5t233.5 -153t154.5 -232t57 -287.5t-57 -287.5t-154.5 -232t-233.5 -153t-289 -56.5t-289.5 56.5t-234 153t-154.5 232t-57 287.5t57 287.5t154.5 232t234 153t289.5 56.5zM831 1376q-184 0 -334 -86t-235.5 -237t-85.5 -336q0 -138 50.5 -260.5
t137 -210.5t208 -138.5t259.5 -50.5q137 0 258.5 51t209 138t138 210t50.5 261q0 185 -86 336t-236.5 237t-333.5 86zM498 610l376 480h91v-480h127v-69h-127v-197h-74v197h-393v69zM891 610v398l-311 -398h311z" />
    <glyph glyph-name="uni2784" unicode="&#x2784;" horiz-adv-x="1662" 
d="M831 1446q153 0 289 -56.5t233.5 -153t154.5 -232t57 -287.5t-57 -287.5t-154.5 -232t-233.5 -153t-289 -56.5t-289.5 56.5t-234 153t-154.5 232t-57 287.5t57 287.5t154.5 232t234 153t289.5 56.5zM831 1376q-184 0 -334 -86t-235.5 -237t-85.5 -336q0 -138 50.5 -260.5
t137 -210.5t208 -138.5t259.5 -50.5q137 0 258.5 51t209 138t138 210t50.5 261q0 185 -86 336t-236.5 237t-333.5 86zM612 1090h445v-70h-385l-17 -277q32 45 84.5 70t114.5 25q110 0 179 -70t69 -180q0 -114 -73 -185t-189 -71q-107 0 -178 59t-82 156h73
q11 -65 62.5 -105.5t124.5 -40.5q80 0 132 52.5t52 134.5q0 81 -50 131.5t-130 50.5q-60 1 -107.5 -26.5t-74.5 -75.5h-70z" />
    <glyph glyph-name="uni2785" unicode="&#x2785;" horiz-adv-x="1662" 
d="M831 1446q153 0 289 -56.5t233.5 -153t154.5 -232t57 -287.5t-57 -287.5t-154.5 -232t-233.5 -153t-289 -56.5t-289.5 56.5t-234 153t-154.5 232t-57 287.5t57 287.5t154.5 232t234 153t289.5 56.5zM831 1376q-184 0 -334 -86t-235.5 -237t-85.5 -336q0 -138 50.5 -260.5
t137 -210.5t208 -138.5t259.5 -50.5q137 0 258.5 51t209 138t138 210t50.5 261q0 185 -86 336t-236.5 237t-333.5 86zM545 702q0 182 79 291t214 109q94 0 162 -56t83 -157h-71q-15 72 -61.5 110.5t-112.5 38.5q-101 0 -161.5 -86t-60.5 -229q0 -15 5 -92q3 77 61 133.5
t156 56.5q113 0 181 -67t68 -176q0 -111 -70.5 -178.5t-187.5 -67.5q-144 0 -214 100t-70 270zM1012 578q0 82 -50.5 132t-132.5 50q-84 0 -135 -49.5t-51 -130.5q0 -82 51.5 -133.5t134.5 -51.5q82 0 132.5 50.5t50.5 132.5z" />
    <glyph glyph-name="uni2786" unicode="&#x2786;" horiz-adv-x="1662" 
d="M831 1446q153 0 289 -56.5t233.5 -153t154.5 -232t57 -287.5t-57 -287.5t-154.5 -232t-233.5 -153t-289 -56.5t-289.5 56.5t-234 153t-154.5 232t-57 287.5t57 287.5t154.5 232t234 153t289.5 56.5zM831 1376q-184 0 -334 -86t-235.5 -237t-85.5 -336q0 -138 50.5 -260.5
t137 -210.5t208 -138.5t259.5 -50.5q137 0 258.5 51t209 138t138 210t50.5 261q0 185 -86 336t-236.5 237t-333.5 86zM582 1020v70h522v-64l-361 -682h-81l360 678z" />
    <glyph glyph-name="uni2787" unicode="&#x2787;" horiz-adv-x="1662" 
d="M831 1446q153 0 289 -56.5t233.5 -153t154.5 -232t57 -287.5t-57 -287.5t-154.5 -232t-233.5 -153t-289 -56.5t-289.5 56.5t-234 153t-154.5 232t-57 287.5t57 287.5t154.5 232t234 153t289.5 56.5zM831 1376q-184 0 -334 -86t-235.5 -237t-85.5 -336q0 -138 50.5 -260.5
t137 -210.5t208 -138.5t259.5 -50.5q137 0 258.5 51t209 138t138 210t50.5 261q0 185 -86 336t-236.5 237t-333.5 86zM557 539q0 74 48 126t124 66q-66 14 -107.5 60.5t-41.5 115.5q0 85 70.5 140t180.5 55q109 0 179.5 -55t70.5 -140q0 -69 -40 -115t-107 -61
q76 -14 123 -66t47 -126q0 -90 -75.5 -148.5t-197.5 -58.5t-198 58.5t-76 148.5zM1006 899q0 61 -49.5 100t-125.5 39q-77 0 -126.5 -39t-49.5 -100q0 -63 49.5 -102t126.5 -39t126 39t49 102zM1026 545q0 66 -55 109.5t-140 43.5t-140.5 -43.5t-55.5 -109.5
q0 -65 55.5 -107.5t140.5 -42.5t140 42.5t55 107.5z" />
    <glyph glyph-name="uni2788" unicode="&#x2788;" horiz-adv-x="1662" 
d="M831 1446q153 0 289 -56.5t233.5 -153t154.5 -232t57 -287.5t-57 -287.5t-154.5 -232t-233.5 -153t-289 -56.5t-289.5 56.5t-234 153t-154.5 232t-57 287.5t57 287.5t154.5 232t234 153t289.5 56.5zM831 1376q-184 0 -334 -86t-235.5 -237t-85.5 -336q0 -138 50.5 -260.5
t137 -210.5t208 -138.5t259.5 -50.5q137 0 258.5 51t209 138t138 210t50.5 261q0 185 -86 336t-236.5 237t-333.5 86zM1104 731q0 -182 -79.5 -290.5t-215.5 -108.5q-93 0 -161.5 56t-82.5 157h72q15 -72 61.5 -111t112.5 -39q101 0 161 86.5t60 229.5q0 30 -4 92
q-3 -77 -61 -134t-156 -57q-113 0 -181.5 67.5t-68.5 176.5q0 111 70.5 178.5t187.5 67.5q144 0 214.5 -100.5t70.5 -270.5zM637 856q0 -82 50 -132t132 -50q84 0 135.5 49.5t51.5 130.5q0 82 -52 133t-135 51q-82 0 -132 -50t-50 -132z" />
    <glyph glyph-name="uni278A" unicode="&#x278a;" horiz-adv-x="1652" 
d="M825 1446q-205 0 -372 -95t-262 -262t-95 -372t95 -372t262 -262t372 -95t372 95t262 262t95 372t-95 372t-262 262t-372 95zM797 971v119h71v-746h-73v526q-9 -18 -37 -18h-142v72h142q17 0 28 14t11 33z" />
    <glyph glyph-name="uni278B" unicode="&#x278b;" horiz-adv-x="1652" 
d="M825 1446q-205 0 -372 -95t-262 -262t-95 -372t95 -372t262 -262t372 -95t372 95t262 262t95 372t-95 372t-262 262t-372 95zM639 844h-74v16q0 110 71.5 176t180.5 66q115 0 184.5 -61t69.5 -160q0 -76 -38.5 -131.5t-112.5 -118.5l-252 -215h411v-72h-522v70l307 256
q65 55 97 101.5t32 107.5q0 68 -48.5 109.5t-125.5 41.5q-82 0 -131 -45.5t-49 -128.5v-12z" />
    <glyph glyph-name="uni278C" unicode="&#x278c;" horiz-adv-x="1652" 
d="M825 1446q-205 0 -372 -95t-262 -262t-95 -372t95 -372t262 -262t372 -95t372 95t262 262t95 372t-95 372t-262 262t-372 95zM643 881h-76q1 103 70.5 162t183.5 59q113 0 183.5 -56.5t70.5 -146.5q0 -65 -41.5 -108t-105.5 -56q75 -12 120.5 -59.5t45.5 -120.5
q0 -100 -75 -161.5t-198 -61.5q-128 0 -200 61.5t-72 173.5h74q1 -80 55 -123t145 -43q85 0 139 42t54 110q0 69 -54.5 108t-144.5 39h-51v56h47q82 0 133 37.5t51 99.5q0 61 -48.5 100t-123.5 39q-84 0 -133 -40.5t-49 -110.5z" />
    <glyph glyph-name="uni278D" unicode="&#x278d;" horiz-adv-x="1652" 
d="M825 1446q-205 0 -372 -95t-262 -262t-95 -372t95 -372t262 -262t372 -95t372 95t262 262t95 372t-95 372t-262 262t-372 95zM492 610l376 480h90v-480h127v-69h-127v-197h-73v197h-393v69zM885 610v398l-312 -398h312z" />
    <glyph glyph-name="uni278E" unicode="&#x278e;" horiz-adv-x="1652" 
d="M825 1446q-205 0 -372 -95t-262 -262t-95 -372t95 -372t262 -262t372 -95t372 95t262 262t95 372t-95 372t-262 262t-372 95zM606 1090h445v-70h-385l-17 -277q32 45 84.5 70t114.5 25q110 0 179 -70t69 -180q0 -114 -73 -185t-189 -71q-107 0 -178.5 59t-82.5 156h74
q11 -65 62.5 -105.5t124.5 -40.5q80 0 132 52.5t52 134.5q0 81 -50 131.5t-130 50.5q-60 1 -108 -26.5t-75 -75.5h-69z" />
    <glyph glyph-name="uni278F" unicode="&#x278f;" horiz-adv-x="1652" 
d="M825 1446q-205 0 -372 -95t-262 -262t-95 -372t95 -372t262 -262t372 -95t372 95t262 262t95 372t-95 372t-262 262t-372 95zM541 702q0 182 79 291t214 109q94 0 162 -56t83 -157h-71q-15 72 -61.5 110.5t-112.5 38.5q-101 0 -161.5 -86t-60.5 -229q0 -30 4 -92
q3 76 61.5 133t156.5 57q113 0 181 -67t68 -176q0 -111 -70.5 -178.5t-187.5 -67.5q-144 0 -214 100t-70 270zM1008 578q0 82 -50.5 132t-132.5 50q-84 0 -135 -49.5t-51 -130.5q0 -82 51.5 -133.5t134.5 -51.5q82 0 132.5 50.5t50.5 132.5z" />
    <glyph glyph-name="uni2790" unicode="&#x2790;" horiz-adv-x="1652" 
d="M825 1446q-205 0 -372 -95t-262 -262t-95 -372t95 -372t262 -262t372 -95t372 95t262 262t95 372t-95 372t-262 262t-372 95zM575 1020v70h523v-64l-361 -682h-82l361 678z" />
    <glyph glyph-name="uni2791" unicode="&#x2791;" horiz-adv-x="1652" 
d="M825 1446q-205 0 -372 -95t-262 -262t-95 -372t95 -372t262 -262t372 -95t372 95t262 262t95 372t-95 372t-262 262t-372 95zM553 539q0 74 48 126t124 66q-67 14 -108.5 60.5t-41.5 115.5q0 85 71 140t181 55q109 0 179.5 -55t70.5 -140q0 -69 -40 -115t-107 -61
q76 -14 123 -66t47 -126q0 -90 -75.5 -148.5t-197.5 -58.5t-198 58.5t-76 148.5zM1001 899q0 61 -49.5 100t-124.5 39q-77 0 -126.5 -39t-49.5 -100q0 -63 49.5 -102t126.5 -39t125.5 39t48.5 102zM1022 545q0 66 -55 109.5t-140 43.5t-140.5 -43.5t-55.5 -109.5
q0 -65 55.5 -107.5t140.5 -42.5t140 42.5t55 107.5z" />
    <glyph glyph-name="uni2792" unicode="&#x2792;" horiz-adv-x="1652" 
d="M825 1446q-205 0 -372 -95t-262 -262t-95 -372t95 -372t262 -262t372 -95t372 95t262 262t95 372t-95 372t-262 262t-372 95zM1100 731q0 -182 -79.5 -290.5t-215.5 -108.5q-93 0 -161.5 56t-82.5 157h72q15 -72 61.5 -111t112.5 -39q101 0 161 86.5t60 229.5q0 30 -4 92
q-3 -77 -61 -134t-156 -57q-113 0 -181.5 67.5t-68.5 176.5q0 111 70.5 178.5t187.5 67.5q144 0 214.5 -100.5t70.5 -270.5zM633 856q0 -82 50 -132t132 -50q84 0 135 49.5t51 130.5q0 82 -51.5 133t-134.5 51q-82 0 -132 -50t-50 -132z" />
    <glyph glyph-name="fl" unicode="&#xfb02;" horiz-adv-x="970" 
d="M4 942v96h197v154q0 126 57 184t186 58h174v-97h-169q-78 0 -111 -33t-33 -110v-156h311v-96h-311v-942h-104v942h-197zM743 0v1434h105v-1434h-105z" />
    <glyph glyph-name="u1F10B" unicode="&#x1f10b;" horiz-adv-x="1662" 
d="M831 1446q153 0 289 -56.5t233.5 -153t154.5 -232t57 -287.5t-57 -287.5t-154.5 -232t-233.5 -153t-289 -56.5t-289.5 56.5t-234 153t-154.5 232t-57 287.5t57 287.5t154.5 232t234 153t289.5 56.5zM831 1376q-184 0 -334 -86t-235.5 -237t-85.5 -336q0 -138 50.5 -260.5
t137 -210.5t208 -138.5t259.5 -50.5q137 0 258.5 51t209 138t138 210t50.5 261q0 185 -86 336t-236.5 237t-333.5 86zM543 717q0 170 78 277.5t210 107.5q129 0 208 -108t79 -277t-79 -277t-208 -108q-132 0 -210 107.5t-78 277.5zM1042 717q0 136 -58 224.5t-153 88.5
q-98 0 -155.5 -88t-57.5 -225t57.5 -225.5t155.5 -88.5q95 0 153 89t58 225z" />
    <glyph glyph-name="u1F10C" unicode="&#x1f10c;" horiz-adv-x="1652" 
d="M825 1446q-205 0 -372 -95t-262 -262t-95 -372t95 -372t262 -262t372 -95t372 95t262 262t95 372t-95 372t-262 262t-372 95zM539 717q0 170 78 277.5t210 107.5q129 0 208 -108t79 -277t-79 -277t-208 -108q-132 0 -210 107.5t-78 277.5zM1038 717q0 136 -58 224.5
t-153 88.5q-98 0 -155.5 -88t-57.5 -225t57.5 -225.5t155.5 -88.5q95 0 153 89t58 225z" />
    <glyph glyph-name="J.ss07" horiz-adv-x="1150" 
d="M72 508h110q0 -196 93.5 -307t263.5 -111q179 0 270.5 101t91.5 329v914h111v-912q0 -280 -120.5 -407t-352.5 -127q-224 0 -346 135.5t-121 384.5z" />
    <glyph glyph-name="Jcircumflex.ss07" horiz-adv-x="1150" 
d="M1165 1563l-207 202l-208 -202h-103l260 272h103l260 -272h-105zM72 508h110q0 -196 93.5 -307t263.5 -111q179 0 270.5 101t91.5 329v914h111v-912q0 -280 -120.5 -407t-352.5 -127q-224 0 -346 135.5t-121 384.5z" />
    <glyph glyph-name="Q.ss08" horiz-adv-x="1533" 
d="M1436 717q0 -217 -91 -387t-251 -260l143 -230h-113l-118 189q-109 -41 -240 -41q-194 0 -347 93.5t-238 259.5t-85 376t85 376t238 259.5t347 93.5q195 0 348 -93.5t237.5 -259.5t84.5 -376zM766 90q96 0 184 31l-192 307h112l168 -268q133 76 209 222t76 335
q0 276 -155 451t-402 175q-162 0 -288.5 -79.5t-196.5 -222t-70 -324.5q0 -276 155 -451.5t400 -175.5z" />
    <glyph glyph-name="a.ss01" horiz-adv-x="1198" 
d="M969 805l16 233h90v-1038h-90l-16 240q-52 -114 -154 -183t-242 -69q-217 0 -353 144.5t-136 387.5q0 234 137.5 382.5t351.5 148.5q141 0 244 -67t152 -179zM582 82q173 0 282 122t109 314q0 194 -109 317t-282 123t-282.5 -123t-109.5 -315q0 -194 109.5 -316
t282.5 -122z" />
    <glyph glyph-name="a.ss02" horiz-adv-x="1050" 
d="M535 1051q194 0 299.5 -95.5t105.5 -267.5v-688h-90l-10 209q-106 -221 -389 -221q-170 0 -271.5 79.5t-101.5 215.5q0 149 105 230t300 81h353v100q0 123 -80.5 193.5t-225.5 70.5q-126 0 -207 -56.5t-102 -153.5h-104q20 141 132.5 222t285.5 81zM836 406v98h-363
q-139 0 -214 -56t-75 -161q0 -94 74 -151.5t199 -57.5q175 0 274.5 90.5t104.5 237.5z" />
    <glyph glyph-name="aacute.ss01" horiz-adv-x="1198" 
d="M729 1440h123l-225 -271h-84zM969 805l16 233h90v-1038h-90l-16 240q-52 -114 -154 -183t-242 -69q-217 0 -353 144.5t-136 387.5q0 234 137.5 382.5t351.5 148.5q141 0 244 -67t152 -179zM582 82q173 0 282 122t109 314q0 194 -109 317t-282 123t-282.5 -123
t-109.5 -315q0 -194 109.5 -316t282.5 -122z" />
    <glyph glyph-name="aacute.ss02" horiz-adv-x="1050" 
d="M680 1440h123l-225 -271h-84zM535 1051q194 0 299.5 -95.5t105.5 -267.5v-688h-90l-10 209q-106 -221 -389 -221q-170 0 -271.5 79.5t-101.5 215.5q0 149 105 230t300 81h353v100q0 123 -80.5 193.5t-225.5 70.5q-126 0 -207 -56.5t-102 -153.5h-104q20 141 132.5 222
t285.5 81zM836 406v98h-363q-139 0 -214 -56t-75 -161q0 -94 74 -151.5t199 -57.5q175 0 274.5 90.5t104.5 237.5z" />
    <glyph glyph-name="abreve.ss01" horiz-adv-x="1198" 
d="M578 1180q-113 0 -183 71t-71 189h84q0 -78 48 -128t124 -50q77 0 126.5 50t49.5 128h84q-1 -118 -74 -189t-188 -71zM969 805l16 233h90v-1038h-90l-16 240q-52 -114 -154 -183t-242 -69q-217 0 -353 144.5t-136 387.5q0 234 137.5 382.5t351.5 148.5q141 0 244 -67
t152 -179zM582 82q173 0 282 122t109 314q0 194 -109 317t-282 123t-282.5 -123t-109.5 -315q0 -194 109.5 -316t282.5 -122z" />
    <glyph glyph-name="abreve.ss02" horiz-adv-x="1050" 
d="M528 1180q-113 0 -183 71t-71 189h84q0 -78 48 -128t124 -50q77 0 127 50t50 128h84q-1 -117 -74.5 -188.5t-188.5 -71.5zM535 1051q194 0 299.5 -95.5t105.5 -267.5v-688h-90l-10 209q-106 -221 -389 -221q-170 0 -271.5 79.5t-101.5 215.5q0 149 105 230t300 81h353
v100q0 123 -80.5 193.5t-225.5 70.5q-126 0 -207 -56.5t-102 -153.5h-104q20 141 132.5 222t285.5 81zM836 406v98h-363q-139 0 -214 -56t-75 -161q0 -94 74 -151.5t199 -57.5q175 0 274.5 90.5t104.5 237.5z" />
    <glyph glyph-name="acircumflex.ss01" horiz-adv-x="1198" 
d="M788 1167l-206 203l-209 -203h-103l260 273h103l260 -273h-105zM969 805l16 233h90v-1038h-90l-16 240q-52 -114 -154 -183t-242 -69q-217 0 -353 144.5t-136 387.5q0 234 137.5 382.5t351.5 148.5q141 0 244 -67t152 -179zM582 82q173 0 282 122t109 314q0 194 -109 317
t-282 123t-282.5 -123t-109.5 -315q0 -194 109.5 -316t282.5 -122z" />
    <glyph glyph-name="acircumflex.ss02" horiz-adv-x="1050" 
d="M739 1167l-207 203l-208 -203h-103l260 273h103l260 -273h-105zM535 1051q194 0 299.5 -95.5t105.5 -267.5v-688h-90l-10 209q-106 -221 -389 -221q-170 0 -271.5 79.5t-101.5 215.5q0 149 105 230t300 81h353v100q0 123 -80.5 193.5t-225.5 70.5q-126 0 -207 -56.5
t-102 -153.5h-104q20 141 132.5 222t285.5 81zM836 406v98h-363q-139 0 -214 -56t-75 -161q0 -94 74 -151.5t199 -57.5q175 0 274.5 90.5t104.5 237.5z" />
    <glyph glyph-name="adieresis.ss01" horiz-adv-x="1198" 
d="M410 1249q-31 0 -51.5 20.5t-20.5 51.5t20.5 51.5t51.5 20.5q32 0 52.5 -20.5t20.5 -51.5t-20.5 -51.5t-52.5 -20.5zM754 1249q-31 0 -52.5 20.5t-21.5 51.5t21.5 51.5t52.5 20.5t51 -20.5t20 -51.5t-20 -51.5t-51 -20.5zM969 805l16 233h90v-1038h-90l-16 240
q-52 -114 -154 -183t-242 -69q-217 0 -353 144.5t-136 387.5q0 234 137.5 382.5t351.5 148.5q141 0 244 -67t152 -179zM582 82q173 0 282 122t109 314q0 194 -109 317t-282 123t-282.5 -123t-109.5 -315q0 -194 109.5 -316t282.5 -122z" />
    <glyph glyph-name="adieresis.ss02" horiz-adv-x="1050" 
d="M360 1249q-31 0 -51 20.5t-20 51.5t20 51.5t51 20.5q32 0 53 -20.5t21 -51.5t-21 -51.5t-53 -20.5zM705 1249q-31 0 -52.5 20.5t-21.5 51.5t21.5 51.5t52.5 20.5t51 -20.5t20 -51.5t-20 -51.5t-51 -20.5zM535 1051q194 0 299.5 -95.5t105.5 -267.5v-688h-90l-10 209
q-106 -221 -389 -221q-170 0 -271.5 79.5t-101.5 215.5q0 149 105 230t300 81h353v100q0 123 -80.5 193.5t-225.5 70.5q-126 0 -207 -56.5t-102 -153.5h-104q20 141 132.5 222t285.5 81zM836 406v98h-363q-139 0 -214 -56t-75 -161q0 -94 74 -151.5t199 -57.5
q175 0 274.5 90.5t104.5 237.5z" />
    <glyph glyph-name="agrave.ss01" horiz-adv-x="1198" 
d="M438 1440l185 -271h-86l-222 271h123zM969 805l16 233h90v-1038h-90l-16 240q-52 -114 -154 -183t-242 -69q-217 0 -353 144.5t-136 387.5q0 234 137.5 382.5t351.5 148.5q141 0 244 -67t152 -179zM582 82q173 0 282 122t109 314q0 194 -109 317t-282 123t-282.5 -123
t-109.5 -315q0 -194 109.5 -316t282.5 -122z" />
    <glyph glyph-name="agrave.ss02" horiz-adv-x="1050" 
d="M389 1440l184 -271h-86l-221 271h123zM535 1051q194 0 299.5 -95.5t105.5 -267.5v-688h-90l-10 209q-106 -221 -389 -221q-170 0 -271.5 79.5t-101.5 215.5q0 149 105 230t300 81h353v100q0 123 -80.5 193.5t-225.5 70.5q-126 0 -207 -56.5t-102 -153.5h-104
q20 141 132.5 222t285.5 81zM836 406v98h-363q-139 0 -214 -56t-75 -161q0 -94 74 -151.5t199 -57.5q175 0 274.5 90.5t104.5 237.5z" />
    </font>
</defs>
</svg>
